<svg xmlns="http://www.w3.org/2000/svg" viewBox="0 0 1084.12 298.2"><defs><style>.cls-1{fill:#fff;}</style></defs><title>Asset 1</title><g id="Layer_2" data-name="Layer 2"><g id="Layer_1-2" data-name="Layer 1"><path class="cls-1" d="M.12,197V156c9.66.08,19.33-.07,29,.34,4.79.2,6.18-1.24,6.15-6.11-.2-36.32,0-72.65-.18-109,0-4.3.76-6.12,5.69-6.11q175.71.21,351.42.12c1.93,0,3.86.16,5.89.25V69.64H189.13c0,10.49.18,20.3-.09,30.09-.11,4.08,1.33,5,5.18,5,20.5-.18,41-.09,61.49-.09h6.41v127h46V104.26h125V0h651V298q-539.74,0-1079.5,0c-1.93,0-5.31,1.5-4.5-3,2.33-.07,4.66-.2,7-.2h425.7V139.37H398.22V260h-349c-3.17,0-6.35-.17-9.5,0-3.43.22-4.79-1-4.64-4.56A167.27,167.27,0,0,0,35,238c-.3-4.7,1.1-6.25,6-6.2,27.17.23,54.33,0,81.5.17a74.18,74.18,0,0,0,27.78-5.23c14-5.47,24.85-18.62,24.66-35.81-.41-38.16-.13-76.33-.13-114.49V69.78H89.68v35h38.63a29.68,29.68,0,0,1,.5,3.54c0,23,.3,46-.07,69-.21,13-6.83,19.59-20.13,19.69C72.45,197.26,36.29,197,.12,197Zm857.37,97.69c17.85,0,35.14.06,52.44,0a78,78,0,0,0,11.93-.92c12.25-2,23-6.31,29.41-18.1,9.3-17.17,5.72-41.19-16.47-49.34a22.5,22.5,0,0,1-2.87-1.63c1.8-1.24,3.29-2.23,4.75-3.27,11.58-8.28,15.9-22.07,11-35.33-5.19-13.9-15.92-21-30.1-21.75-18.59-1-37.26-.75-55.89-1-1.28,0-2.57.14-4.15.24Zm-149.62,0C691.81,274,683.68,249.22,660.58,235c1.85-.49,3-.86,4.26-1.12,8.4-1.86,16.44-4.6,22.5-11,10.17-10.81,11.91-23.43,7-37.07-5.12-14.26-16.17-21-30.65-21.52-23.13-.77-46.28-.65-69.43-.88a5.83,5.83,0,0,0-1.74.49c-1.92,13.35-1.92,13.35,10.85,13.35,1,0,2,0,3,0,17.32.21,34.66,0,52,.79,12.43.59,20.48,8.74,21,19.39.56,12.37-6,20.51-18.8,23a50.56,50.56,0,0,1-9.42.93c-17.66.12-35.32.11-53,.18-1.9,0-3.81.29-5.66.44v72.42h16.68V236c6.07,0,11.58.44,17-.08,14.82-1.42,25.25,5,33,17.15Q671.33,272.2,684,291c1,1.57,3.06,3.35,4.74,3.48C694.52,295,700.34,294.68,707.87,294.68Zm17.54-131.16c-.1,1.8-.25,3.11-.25,4.42,0,24.67-.07,49.33.05,74a126.93,126.93,0,0,0,1.13,15.93c2.41,18.57,11.75,31.61,30.45,36.59a74.63,74.63,0,0,0,37.08.57c17.69-4.26,29-15.09,32.24-33.34a96.35,96.35,0,0,0,1.75-15.85c.21-25.67.17-51.33.19-77,0-1.76-.25-3.53-.38-5.27h-16.4v6.17c0,23.67.06,47.34,0,71a112.39,112.39,0,0,1-1,14.44c-2.1,15.51-8.49,23-23.06,25.47a68.32,68.32,0,0,1-20.34.29c-13.26-1.77-21.28-9.95-23.59-22.94A83.07,83.07,0,0,1,742,244.09c-.12-24.83-.07-49.66-.08-74.49v-6.08Zm8.67-142.39v113.7c1.45.14,2.43.3,3.41.33,7.34.24,7.35.23,7.35-7.13q0-37.25,0-74.5V46.9a14.46,14.46,0,0,1,4.25,5.33q21,39.48,42,78.93c.88,1.65,2.71,3.48,4.4,3.84,3,.62,6.16.17,9.18.17V21.51H793.82v87.57a18.51,18.51,0,0,1-4.79-6.26q-20.76-39-41.58-78a7.18,7.18,0,0,0-4.13-3.51C740.46,20.73,737.41,21.13,734.08,21.13Zm287.07,113.59V46.88a35.45,35.45,0,0,1,5.62,8.28q20.13,37.92,40.32,75.83c.9,1.68,2.61,3.66,4.28,4,3,.66,6.15.18,9.22.18V21.43h-10.46v87.73l-1.5.79a13,13,0,0,0-.68-1.87c-4.91-9.27-9.87-18.51-14.77-27.77q-14.73-27.79-29.42-55.6c-1.82-3.42-7.14-5.28-11.66-3.27-1.37.61-2.08,4-2.09,6.16-.13,32.81-.09,65.63-.1,98.44C1009.91,136.05,1009.91,136.05,1021.15,134.72ZM469.49,178.15c12.69,0,24.83.2,37-.1,4.67-.11,6.28,1,6.25,6-.22,34.8-.13,69.61-.13,104.41v6h16.9V178.14h6.72c10.82,0,21.65.11,32.47-.1,1.47,0,4-1.47,4.16-2.51.49-3.87.19-7.84.19-11.88H469.49Zm69.62-97.59a67.19,67.19,0,0,0,6.26,30.07c7,15.12,17.66,25.85,35.52,26.37s30.43-8.39,37.41-24.09c10.87-24.42,10.79-49.33-1.9-73.1-14.11-26.41-48.9-27.95-66-3.43C541.53,49.05,539.2,63.55,539.11,80.56Zm454.8-2.23c-.15-13-2.43-25.39-8.39-37.09-13.95-27.4-50.55-30.45-66.94-4.51C902.83,61.66,903,88.57,915.79,114.8c7.55,15.47,20.61,23.86,38.49,22,16.55-1.68,27-11.65,33.48-26.39C992.24,100.24,993.74,89.41,993.91,78.33ZM890.66,52.59c.83-20.53-14.91-34.72-36.43-33.35-15.63,1-26.11,10.6-28.72,26.31-2.34,14.1,4.67,26.7,18.36,32.5C848.45,80,853.3,81.28,858,83c5.15,1.86,10.54,3.31,15.35,5.85,11.86,6.27,12.59,23.55,1.6,31.21-11.39,7.94-36,5.68-41-14.33-.6-2.38-1-4.8-1.52-7.34-1.16-.06-2.14-.19-3.11-.14-7.58.39-8.16,1.16-6.67,8.71,4,20.06,16.66,30.17,37.83,30.11,20.77-.06,35.48-16.82,33.19-37.48-1.58-14.26-9.69-22.88-22.76-27.42-8.16-2.83-16.46-5.28-24.59-8.22-4.91-1.77-8.47-5.07-9.61-10.57-2.07-10,3.42-18.52,13.68-20.7,14.13-3,27.4,1.75,29.26,18.46a11.82,11.82,0,0,0,1.15,2.78ZM653.74,68V63c0-12.5-.07-25,0-37.5,0-3.12-.82-4.72-4.23-4.39-2.24.21-4.51,0-6.93,0V134.68c1.15.19,2,.4,2.76.45,8.37.52,8.38.52,8.36-7.68,0-13.66.14-27.33-.16-41-.1-4.49,1.36-5.7,5.67-5.59,10.66.27,21.33.08,32,.08h10.28v5.72q0,19.5,0,39c0,10,0,10.06,10.13,9.33.29,0,.57-.29.92-.49V21.41h-11V68ZM521.94,21.51H511.05c0,11.68.08,23,0,34.26q-.24,27.21-.71,54.41a18.06,18.06,0,0,1-1.17,5.83c-2,5.41-6.5,8.29-12.38,8.2-5.67-.07-9.77-2.85-11.46-8.58-1.3-4.39-1.86-9-2.84-13.91l-10.41,1.86c1.31,6.71,1.84,13.07,3.85,18.92,3.35,9.81,10.48,14.43,20.37,14.56,10.92.15,19-4.26,22.31-14.07a72,72,0,0,0,3.47-21.45c.41-25,.17-49.93.16-74.9C522.22,25,522.05,23.4,521.94,21.51ZM1078.65,279.8H988.76c-13,0-13,0-12,13.09a7.48,7.48,0,0,0,.47,1.54h101.38Zm-4-116.27H977v14.12h97.69Zm0,56.11H977v13.93h97.68Z"/><path d="M433.12,0V104.26h-125V231.55h-46v-127h-6.41c-20.5,0-41-.09-61.49.09-3.85,0-5.29-.88-5.18-5,.27-9.79.09-19.6.09-30.09H398.07V35.52c-2-.09-4-.25-5.89-.25q-175.71,0-351.42-.12c-4.93,0-5.7,1.81-5.69,6.11.13,36.32,0,72.65.18,109,0,4.87-1.36,6.31-6.15,6.11-9.65-.41-19.32-.26-29-.34V0Z"/><path d="M.12,197c36.17,0,72.33.26,108.49,0,13.3-.1,19.92-6.66,20.13-19.69.37-23,.1-46,.07-69a29.68,29.68,0,0,0-.5-3.54H89.68v-35h85.2v6.63c0,38.16-.28,76.33.13,114.49.19,17.19-10.7,30.34-24.66,35.81a74.18,74.18,0,0,1-27.78,5.23c-27.17-.17-54.33.06-81.5-.17-4.93-.05-6.33,1.5-6,6.2a167.27,167.27,0,0,1,0,17.49c-.15,3.58,1.21,4.78,4.64,4.56,3.15-.21,6.33,0,9.5,0h349V139.37h34.59V294.79H7.11c-2.33,0-4.66.13-7,.2Z"/><path d="M857.49,294.69V163.54c1.58-.1,2.87-.26,4.15-.24,18.63.26,37.3,0,55.89,1,14.18.78,24.91,7.85,30.1,21.75,5,13.26.63,27.05-11,35.33-1.46,1-2.95,2-4.75,3.27a22.5,22.5,0,0,0,2.87,1.63c22.19,8.15,25.77,32.17,16.47,49.34-6.38,11.79-17.16,16.13-29.41,18.1a78,78,0,0,1-11.93.92C892.63,294.75,875.34,294.69,857.49,294.69Zm16.75-14.39c15.74-.54,31.24-.18,46.51-1.88,12.4-1.37,18.07-10.16,17.69-23.17-.31-11.06-7.41-19-19.37-20.37-8.4-1-16.92-.87-25.4-1.07-6.42-.16-12.85,0-19.43,0Zm-.3-82c0,5.67.07,11.33,0,17,0,2.48.76,3.68,3.42,3.62,12.66-.3,25.34-.09,38-.88,11-.7,17.61-8,17.94-18.44.34-11-5.55-19.12-16.51-20.13-13.23-1.22-26.6-1-39.92-1.13-.94,0-2.66,2.21-2.73,3.47C873.77,187.27,873.94,192.78,873.94,198.28Z"/><path d="M707.87,294.68c-7.53,0-13.35.27-19.12-.16-1.68-.13-3.69-1.91-4.74-3.48q-12.63-18.89-24.89-38c-7.74-12.13-18.17-18.57-33-17.15-5.42.52-10.93.08-17,.08v58.39H592.45V221.94c1.85-.15,3.76-.43,5.66-.44,17.66-.07,35.32-.06,53-.18a50.56,50.56,0,0,0,9.42-.93c12.79-2.52,19.36-10.66,18.8-23-.48-10.65-8.53-18.8-21-19.39-17.29-.81-34.63-.58-52-.79-1,0-2,0-3,0-12.77,0-12.77,0-10.85-13.35a5.83,5.83,0,0,1,1.74-.49c23.15.23,46.3.11,69.43.88,14.48.49,25.53,7.26,30.65,21.52,4.88,13.64,3.14,26.26-7,37.07-6.06,6.45-14.1,9.19-22.5,11-1.22.26-2.41.63-4.26,1.12C683.68,249.22,691.81,274,707.87,294.68Z"/><path d="M725.41,163.52h16.51v6.08c0,24.83,0,49.66.08,74.49A83.07,83.07,0,0,0,743.25,258c2.31,13,10.33,21.17,23.59,22.94a68.32,68.32,0,0,0,20.34-.29c14.57-2.49,21-10,23.06-25.47a112.39,112.39,0,0,0,1-14.44c.1-23.66,0-47.33,0-71v-6.17h16.4c.13,1.74.38,3.51.38,5.27,0,25.67,0,51.33-.19,77a96.35,96.35,0,0,1-1.75,15.85c-3.29,18.25-14.55,29.08-32.24,33.34a74.63,74.63,0,0,1-37.08-.57c-18.7-5-28-18-30.45-36.59a126.93,126.93,0,0,1-1.13-15.93c-.12-24.67-.06-49.33-.05-74C725.16,166.63,725.31,165.32,725.41,163.52Z"/><path d="M734.08,21.13c3.33,0,6.38-.4,9.24.16a7.18,7.18,0,0,1,4.13,3.51q20.91,38.94,41.58,78a18.51,18.51,0,0,0,4.79,6.26V21.51h10.82V135.17c-3,0-6.21.45-9.18-.17-1.69-.36-3.52-2.19-4.4-3.84q-21.12-39.39-42-78.93a14.46,14.46,0,0,0-4.25-5.33v6.63q0,37.25,0,74.5c0,7.36,0,7.37-7.35,7.13-1,0-2-.19-3.41-.33Z"/><path d="M1021.15,134.72c-11.24,1.33-11.24,1.33-11.24-8.68,0-32.81,0-65.63.1-98.44,0-2.14.72-5.55,2.09-6.16,4.52-2,9.84-.15,11.66,3.27q14.73,27.78,29.42,55.6c4.9,9.26,9.86,18.5,14.77,27.77a13,13,0,0,1,.68,1.87l1.5-.79V21.43h10.46V135.2c-3.07,0-6.27.48-9.22-.18-1.67-.37-3.38-2.35-4.28-4q-20.28-37.86-40.32-75.83a35.45,35.45,0,0,0-5.62-8.28Z"/><path d="M469.49,178.15v-14.5H573c0,4,.3,8-.19,11.88-.14,1-2.69,2.48-4.16,2.51-10.82.21-21.65.1-32.47.1h-6.72V294.45h-16.9v-6c0-34.8-.09-69.61.13-104.41,0-5-1.58-6.14-6.25-6C494.32,178.35,482.18,178.15,469.49,178.15Z"/><path d="M539.11,80.56c.09-17,2.42-31.51,11.27-44.18,17.12-24.52,51.91-23,66,3.43,12.69,23.77,12.77,48.68,1.9,73.1-7,15.7-19.56,24.6-37.41,24.09s-28.52-11.25-35.52-26.37A67.19,67.19,0,0,1,539.11,80.56Zm75.81.89c-.8-11.43-1.85-22.31-6.84-32.42-5.43-11-13.84-17.89-26.73-17.38s-21.76,7.91-25.93,19.45c-6.39,17.69-7,36-.06,53.75,4.49,11.51,12.82,19.69,26.12,20s22.28-6.79,27-18.54C611.6,98.42,612.83,89.77,614.92,81.45Z"/><path d="M993.91,78.34c-.17,11.07-1.67,21.9-6.15,32.12-6.45,14.74-16.93,24.71-33.48,26.39-17.88,1.81-30.94-6.58-38.49-22-12.8-26.23-13-53.14,2.79-78.07,16.39-25.94,53-22.89,66.94,4.51C991.48,52.94,993.76,65.37,993.91,78.34Zm-75.49-2.1c.69,7.19.78,12.07,1.72,16.77a57.69,57.69,0,0,0,4.27,13.74c5.26,10.93,13.49,18.35,26.34,18.12,13.22-.23,21.85-7.84,26.44-19.53,7.1-18.07,6.75-36.52-.17-54.6-3.2-8.34-9-14.82-17.8-17.81C944.35,27.87,928,36.37,923,52.6,920.44,60.92,919.62,69.8,918.42,76.24Z"/><path d="M890.66,52.59l-9.88,1.29a11.82,11.82,0,0,1-1.15-2.78c-1.86-16.71-15.13-21.46-29.26-18.46-10.26,2.18-15.75,10.66-13.68,20.7,1.14,5.5,4.7,8.8,9.61,10.57,8.13,2.94,16.43,5.39,24.59,8.22,13.07,4.54,21.18,13.16,22.76,27.42,2.29,20.66-12.42,37.42-33.19,37.48-21.17.06-33.87-10-37.83-30.11-1.49-7.55-.91-8.32,6.67-8.71,1,0,2,.08,3.11.14.52,2.54.92,5,1.52,7.34C839,125.7,863.56,128,875,120c11-7.66,10.26-24.94-1.6-31.21-4.81-2.54-10.2-4-15.35-5.85-4.7-1.68-9.55-3-14.13-4.91-13.69-5.8-20.7-18.4-18.36-32.5,2.61-15.71,13.09-25.32,28.72-26.31C875.75,17.87,891.49,32.06,890.66,52.59Z"/><path d="M653.74,68h47.85V21.41h11v113.1c-.35.2-.63.47-.92.49-10.14.73-10.13.72-10.13-9.33q0-19.5,0-39V81H691.25c-10.67,0-21.34.19-32-.08-4.31-.11-5.77,1.1-5.67,5.59.3,13.66.14,27.33.16,41,0,8.2,0,8.2-8.36,7.68-.81,0-1.61-.26-2.76-.45V21.15c2.42,0,4.69.17,6.93,0,3.41-.33,4.26,1.27,4.23,4.39-.11,12.5,0,25,0,37.5Z"/><path d="M521.94,21.51c.11,1.89.28,3.51.28,5.13,0,25,.25,49.94-.16,74.9A72,72,0,0,1,518.59,123c-3.3,9.81-11.39,14.22-22.31,14.07-9.89-.13-17-4.75-20.37-14.56-2-5.85-2.54-12.21-3.85-18.92l10.41-1.86c1,4.92,1.54,9.52,2.84,13.91,1.69,5.73,5.79,8.51,11.46,8.58,5.88.09,10.38-2.79,12.38-8.2a18.06,18.06,0,0,0,1.17-5.83q.46-27.21.71-54.41c.1-11.29,0-22.58,0-34.26Z"/><path d="M1078.65,279.8v14.64H977.27a7.48,7.48,0,0,1-.47-1.54c-1.07-13.08-1.06-13.09,12-13.09h89.89Z"/><path d="M1074.7,163.53v14.12H977V163.53Z"/><path d="M1074.68,219.64v13.93H977V219.64Z"/><path class="cls-1" d="M874.24,280.3V233.78c6.58,0,13-.13,19.43,0,8.48.2,17,.1,25.4,1.07,12,1.38,19.06,9.31,19.37,20.37.38,13-5.29,21.8-17.69,23.17C905.48,280.12,890,279.76,874.24,280.3Z"/><path class="cls-1" d="M873.94,198.28c0-5.5-.17-11,.13-16.49.07-1.26,1.79-3.47,2.73-3.47,13.32.13,26.69-.09,39.92,1.13,11,1,16.85,9.15,16.51,20.13-.33,10.43-6.9,17.74-17.94,18.44-12.62.79-25.3.58-38,.88-2.66.06-3.46-1.14-3.42-3.62C874,209.61,873.94,204,873.94,198.28Z"/><path class="cls-1" d="M614.92,81.45c-2.09,8.32-3.32,17-6.47,24.86-4.69,11.75-13.76,18.86-27,18.54s-21.63-8.49-26.12-20c-6.92-17.73-6.33-36.06.06-53.75,4.17-11.54,12.93-18.93,25.93-19.45S602.65,38,608.08,49C613.07,59.14,614.12,70,614.92,81.45Z"/><path class="cls-1" d="M918.42,76.24c1.2-6.44,2-15.32,4.6-23.64,5-16.23,21.33-24.73,36.2-19.67,8.8,3,14.6,9.47,17.8,17.81,6.92,18.08,7.27,36.53.17,54.6C972.6,117,964,124.64,950.75,124.87c-12.85.23-21.08-7.19-26.34-18.12A57.69,57.69,0,0,1,920.14,93C919.2,88.31,919.11,83.43,918.42,76.24Z"/></g></g></svg>