<?xml version="1.0" encoding="utf-8"?>
<svg version="1.1"
   xmlns="http://www.w3.org/2000/svg" xmlns:xlink="http://www.w3.org/1999/xlink" xmlns:a="http://ns.adobe.com/AdobeSVGViewerExtensions/3.0/"
   x="0" y="0" width="323.7px" height="324.1px" viewBox="0 0 323.7 324.1" style="enable-background:new 0 0 323.7 324.1;"
   xml:space="preserve">
<defs>
</defs>
<g id="logo_x5F_layer_1_">
  <g id="Layer_1-2_1_">
    <path d="M141.3,114.4v31.4h-28.1v38.4h-10.3v-38.3h-1.4c-4.6,0-9.2,0-13.8,0c-0.9,0-1.2-0.3-1.2-1.5c0.1-3,0-5.9,0-9.1h47V125
      c-0.4,0-0.9-0.1-1.3-0.1c-26.3,0-52.7,0-79,0c-1.1,0-1.3,0.5-1.3,1.8c0,11,0,21.9,0,32.9c0,1.5-0.3,1.9-1.4,1.8
      c-2.2-0.1-4.3-0.1-6.5-0.1v-47.1h97.3V114.4z"/>
    <path d="M44,173.8c8.1,0,16.3,0.1,24.4,0c3,0,4.5-2,4.5-5.9c0.1-6.9,0-13.9,0-20.8c0-0.4-0.1-0.7-0.1-1.1h-8.7v-10.6h19.2v2
      c0,11.5-0.1,23,0,34.5c0,5.2-2.4,9.2-5.5,10.8c-2,1.1-4.1,1.6-6.2,1.6c-6.1-0.1-12.2,0-18.3-0.1c-1.1,0-1.4,0.5-1.3,1.9
      c0.1,1.8,0.1,3.5,0,5.3c0,1.1,0.3,1.4,1,1.4c0.7-0.1,1.4,0,2.1,0h78.5v-36.4h7.8v46.9H45.7c-0.5,0-1,0-1.6,0.1L44,173.8z"/>
    <path d="M236.8,203.3v-39.6c0.4,0,0.6-0.1,0.9-0.1c4.2,0.1,8.4,0,12.6,0.3c3.2,0.2,5.6,2.4,6.8,6.6c1.1,4,0.1,8.2-2.5,10.7
      c-0.3,0.3-0.7,0.6-1.1,1c0.2,0.2,0.4,0.3,0.6,0.5c5,2.5,5.8,9.7,3.7,14.9c-1.4,3.6-3.9,4.9-6.6,5.5c-0.9,0.2-1.8,0.3-2.7,0.3
      C244.7,203.3,240.8,203.3,236.8,203.3z M240.5,198.9c3.5-0.2,7-0.1,10.5-0.6c2.8-0.4,4.1-3.1,4-7c-0.1-3.3-1.7-5.7-4.4-6.1
      c-1.9-0.3-3.8-0.3-5.7-0.3c-1.4,0-2.9,0-4.4,0V198.9z M240.5,174.2c0,1.7,0,3.4,0,5.1c0,0.7,0.2,1.1,0.8,1.1
      c2.8-0.1,5.7,0,8.5-0.3c2.5-0.2,4-2.4,4-5.6c0.1-3.3-1.2-5.8-3.7-6.1c-3-0.4-6-0.3-9-0.3c-0.2,0-0.6,0.7-0.6,1
      C240.4,170.9,240.5,172.5,240.5,174.2L240.5,174.2z"/>
    <path d="M203.1,203.3c-1.7,0-3,0.1-4.3,0c-0.4,0-0.8-0.6-1.1-1c-1.9-3.8-3.8-7.6-5.6-11.5c-1.7-3.7-4.1-5.6-7.4-5.2
      c-1.2,0.2-2.5,0-3.8,0v17.6h-3.7v-21.8c0.4,0,0.8-0.1,1.3-0.1c4,0,7.9,0,11.9-0.1c0.7,0,1.4-0.1,2.1-0.3c2.9-0.8,4.4-3.2,4.2-6.9
      c-0.1-3.2-1.9-5.7-4.7-5.8c-3.9-0.2-7.8-0.2-11.7-0.2c-0.2,0-0.4,0-0.7,0c-2.9,0-2.9,0-2.4-4c0.1-0.1,0.3-0.1,0.4-0.1
      c5.2,0.1,10.4,0,15.6,0.3c3.3,0.1,5.7,2.2,6.9,6.5c1.1,4.1,0.7,7.9-1.6,11.2c-1.4,1.9-3.2,2.8-5.1,3.3c-0.3,0.1-0.5,0.2-1,0.3
      C197.7,189.6,199.5,197,203.1,203.3z"/>
    <path d="M207.1,163.7h3.7v1.8c0,7.5,0,15,0,22.5c0,1.4,0.1,2.8,0.3,4.2c0.5,3.9,2.3,6.4,5.3,6.9c1.5,0.3,3.1,0.2,4.6-0.1
      c3.3-0.8,4.7-3,5.2-7.7c0.1-1.4,0.2-2.9,0.2-4.4c0-7.1,0-14.3,0-21.4v-1.9h3.7c0,0.5,0.1,1.1,0.1,1.6c0,7.7,0,15.5,0,23.2
      c0,1.6-0.2,3.2-0.4,4.8c-0.7,5.5-3.3,8.8-7.2,10.1c-2.7,0.9-5.6,0.8-8.3-0.2c-4.2-1.5-6.3-5.4-6.8-11c-0.2-1.6-0.2-3.2-0.3-4.8
      c0-7.4,0-14.9,0-22.3C207,164.7,207,164.3,207.1,163.7z"/>
    <path d="M209,120.8c0.7,0,1.4-0.1,2.1,0c0.4,0.2,0.7,0.6,0.9,1.1c3.1,7.8,6.3,15.7,9.3,23.5c0.3,0.7,0.6,1.4,1.1,1.9v-26.4h2.4
      v34.3c-0.7,0-1.4,0.1-2.1-0.1c-0.4-0.1-0.8-0.7-1-1.2c-3.2-7.9-6.3-15.9-9.4-23.8c-0.2-0.6-0.5-1.2-1-1.6v2c0,7.5,0,15,0,22.5
      c0,2.2,0,2.2-1.7,2.2c-0.2,0-0.4-0.1-0.8-0.1L209,120.8z"/>
    <path d="M273.6,155c-2.5,0.4-2.5,0.4-2.5-2.6c0-9.9,0-19.8,0-29.7c0-0.6,0.2-1.7,0.5-1.9c1-0.6,2.2,0,2.6,1
      c2.2,5.6,4.4,11.2,6.6,16.8c1.1,2.8,2.2,5.6,3.3,8.4c0.1,0.2,0.1,0.4,0.2,0.6l0.3-0.2v-26.5h2.4v34.3c-0.7,0-1.4,0.1-2.1-0.1
      c-0.4-0.1-0.8-0.7-1-1.2c-3-7.6-6.1-15.2-9.1-22.9c-0.3-0.9-0.8-1.7-1.3-2.5L273.6,155z"/>
    <path d="M149.5,168.1v-4.4h23.3c0,1.2,0.1,2.4,0,3.6c0,0.3-0.6,0.7-0.9,0.8c-2.4,0.1-4.9,0-7.3,0h-1.5v35.1h-3.8v-1.8
      c0-10.5,0-21,0-31.5c0-1.5-0.4-1.9-1.4-1.8C155.1,168.2,152.4,168.1,149.5,168.1z"/>
    <path d="M165.2,138.7c0-5.1,0.5-9.5,2.5-13.3c3.8-7.4,11.7-6.9,14.8,1c2.9,7.2,2.9,14.7,0.4,22.1c-1.6,4.7-4.4,7.4-8.4,7.3
      c-4-0.2-6.4-3.4-8-8C165.6,144.9,165.1,141.8,165.2,138.7z M182.2,139c-0.2-3.4-0.4-6.7-1.5-9.8c-1.2-3.3-3.1-5.4-6-5.2
      s-4.9,2.4-5.8,5.9c-1.4,5.3-1.6,10.9,0,16.2c1,3.5,2.9,5.9,5.9,6s5-2,6.1-5.6C181.5,144.1,181.7,141.5,182.2,139z"/>
    <path d="M267.4,138c0,3.3-0.4,6.6-1.4,9.7c-1.5,4.4-3.8,7.5-7.5,8c-4,0.5-7-2-8.7-6.6c-2.9-7.9-2.9-16,0.6-23.5
      c3.7-7.8,11.9-6.9,15.1,1.4C266.9,130.4,267.4,134.1,267.4,138z M250.5,137.4c0.2,2.2,0.2,3.6,0.4,5.1c0.2,1.4,0.5,2.8,1,4.1
      c1.2,3.3,3,5.5,5.9,5.5c3-0.1,4.9-2.4,5.9-5.9c1.6-5.5,1.5-11,0-16.5c-0.7-2.5-2-4.5-4-5.4c-3.3-1.5-7,1-8.1,5.9
      C250.9,132.8,250.7,135.5,250.5,137.4z"/>
    <path d="M244.2,130.3l-2.2,0.4c-0.1-0.3-0.2-0.5-0.3-0.8c-0.4-5-3.4-6.5-6.6-5.6c-2.3,0.7-3.5,3.2-3.1,6.2
      c0.3,1.7,1.1,2.7,2.2,3.2c1.8,0.9,3.7,1.6,5.5,2.5c2.9,1.4,4.8,4,5.1,8.3c0.5,6.2-2.8,11.3-7.5,11.3c-4.8,0-7.6-3-8.5-9.1
      c-0.3-2.3-0.2-2.5,1.5-2.6c0.2,0,0.4,0,0.7,0c0.1,0.8,0.2,1.5,0.3,2.2c1.1,6,6.7,6.7,9.2,4.3c2.5-2.3,2.3-7.5-0.4-9.4
      c-1.1-0.8-2.3-1.2-3.5-1.8c-1.1-0.5-2.1-0.9-3.2-1.5c-3.1-1.7-4.7-5.6-4.1-9.8c0.6-4.7,2.9-7.6,6.5-7.9
      C240.9,119.8,244.4,124.1,244.2,130.3z"/>
    <path d="M190.9,134.9h10.8v-14.1h2.5v34.1c-0.1,0.1-0.1,0.1-0.2,0.1c-2.3,0.2-2.3,0.2-2.3-2.8c0-3.9,0-7.8,0-11.8v-1.7h-2.3
      c-2.4,0-4.8,0.1-7.2,0c-1,0-1.3,0.3-1.3,1.7c0.1,4.1,0,8.2,0,12.4c0,2.5,0,2.5-1.9,2.3c-0.2,0-0.4-0.1-0.6-0.1v-34.3
      c0.5,0,1.1,0.1,1.6,0c0.8-0.1,1,0.4,1,1.3c0,3.8,0,7.5,0,11.3L190.9,134.9z"/>
    <path d="M161.3,120.9c0,0.6,0.1,1.1,0.1,1.5c0,7.5,0.1,15.1,0,22.6c0,2.2-0.3,4.4-0.8,6.5c-0.7,3-2.6,4.3-5,4.2
      c-2.2,0-3.8-1.4-4.6-4.4c-0.4-1.8-0.6-3.7-0.9-5.7l2.3-0.6c0.2,1.5,0.3,2.9,0.6,4.2c0.4,1.7,1.3,2.6,2.6,2.6
      c1.3,0,2.3-0.8,2.8-2.5c0.2-0.6,0.2-1.2,0.3-1.8c0.1-5.5,0.1-10.9,0.2-16.4c0-3.4,0-6.8,0-10.3L161.3,120.9z"/>
    <path d="M286.5,198.8v4.4h-22.8c0-0.1-0.1-0.3-0.1-0.5c-0.2-3.9-0.2-3.9,2.7-3.9H286.5L286.5,198.8z"/>
    <path d="M285.6,163.7v4.3h-22v-4.3H285.6z"/>
    <path d="M285.6,180.7v4.2h-22v-4.2H285.6z"/>
  </g>
</g>
<g id="circle_x5F_text_1_">
  <path d="M171.7,0.1l-0.6,12.1l-2.2-0.1L169.5,0L171.7,0.1z"/>
  <path d="M178.6,0.7l7,0.8l-0.2,1.8l-4.8-0.6L180.2,6l4.4,0.5l-0.2,1.8L180,7.8l-0.6,5.1l-2.2-0.3L178.6,0.7z"/>
  <path d="M194.5,10.8c-0.6,3.2-3.1,4.2-5.3,3.8c-2.4-0.4-4-2.5-3.5-5.2c0.5-2.8,2.7-4.2,5.3-3.8C193.6,6.1,195,8.2,194.5,10.8z
     M188,9.8c-0.3,1.7,0.3,3.1,1.6,3.3c1.2,0.2,2.3-0.8,2.7-2.6c0.2-1.4-0.1-3-1.6-3.3C189.1,6.9,188.2,8.3,188,9.8z"/>
  <path d="M196.7,9.9c0.3-1.1,0.5-2,0.6-2.8l1.9,0.4l-0.3,1.6h0.1c0.7-1.1,1.8-1.5,2.8-1.3c0.2,0.1,0.3,0.1,0.5,0.2l-0.5,2
    c-0.2-0.1-0.4-0.2-0.6-0.2c-1-0.2-1.9,0.2-2.3,1.2c-0.1,0.2-0.2,0.4-0.2,0.6l-1.1,4.4l-2.2-0.5L196.7,9.9z"/>
  <path d="M211.4,10.9c-0.2,0.6-0.4,1.2-0.8,2.4l-1.4,4.8c-0.5,1.8-1.3,2.9-2.4,3.4c-1.1,0.5-2.4,0.4-3.6,0.1
    c-1.1-0.3-2.1-0.9-2.7-1.5l0.9-1.5c0.4,0.5,1.2,1.1,2.3,1.4c1.4,0.4,2.6,0,3.2-1.8l0.2-0.7l0,0c-0.7,0.6-1.7,0.8-2.8,0.5
    c-2.1-0.6-3.1-2.8-2.3-5.2c0.8-2.8,3.1-3.9,5.1-3.3c1.3,0.4,1.9,1.2,2.1,2l0,0l0.4-1.1L211.4,10.9z M208.2,13.7
    c0.1-0.2,0.1-0.4,0.1-0.6c0-0.8-0.4-1.6-1.3-1.9c-1.2-0.3-2.4,0.4-2.9,2.1c-0.4,1.4,0,2.8,1.3,3.2c0.8,0.2,1.6-0.1,2.1-0.8
    c0.1-0.2,0.2-0.5,0.3-0.7L208.2,13.7z"/>
  <path d="M213.7,17c-0.5,1.5,0.4,2.6,1.7,3.1c1,0.4,1.7,0.5,2.4,0.5l-0.2,1.5c-0.8,0-1.9-0.1-3.1-0.5c-2.7-1-3.6-3.2-2.7-5.7
    c0.8-2.3,3-3.9,5.7-2.9s2.7,3.5,2.1,5.3c-0.1,0.4-0.3,0.7-0.4,0.8L213.7,17z M217.8,16.9c0.3-0.8,0.4-2.1-1-2.6
    c-1.3-0.5-2.2,0.5-2.6,1.3L217.8,16.9z"/>
  <path d="M226.2,13.9l-1,2.3l1.9,0.8l-0.7,1.5l-1.9-0.8l-1.5,3.6c-0.4,1-0.4,1.6,0.4,1.9c0.3,0.1,0.6,0.2,0.8,0.3l-0.6,1.6
    c-0.4,0-0.9-0.2-1.6-0.4c-0.7-0.3-1.3-0.8-1.5-1.4c-0.2-0.6-0.1-1.5,0.3-2.5l1.6-3.8l-1.1-0.5L222,15l1.1,0.5l0.8-1.8L226.2,13.9z"
    />
  <path d="M229.6,27.9l3.2-12.1l2.1,1.1l-1.6,5.4c-0.4,1.4-0.9,2.9-1.3,4.1l0,0c0.8-1,1.8-2.1,2.8-3.3l3.8-4.2l2.1,1.1l-1.6,5.5
    c-0.4,1.4-0.8,2.7-1.3,4l0,0c0.8-1.1,1.7-2.2,2.7-3.3l3.7-4.2l2,1.1l-8.7,9.1l-2.1-1.1l1.6-5.6c0.4-1.4,0.7-2.5,1.2-3.7l0,0
    c-0.8,1-1.6,2-2.5,3l-4,4.3L229.6,27.9z"/>
  <path d="M248.1,23.7l1.9,1.2l-2.9,4.4l0,0c0.5-0.2,1-0.3,1.5-0.2c0.5,0,1,0.2,1.5,0.5c1.2,0.8,2,2.5,0.5,4.9l-2.8,4.3l-1.9-1.2
    l2.7-4.1c0.7-1.1,0.8-2.1-0.2-2.8c-0.7-0.5-1.6-0.3-2.1,0.1c-0.2,0.1-0.3,0.3-0.4,0.5l-2.9,4.4l-1.9-1.2L248.1,23.7z"/>
  <path d="M253.5,43l0.5-0.9l0,0c-0.8,0.2-1.9,0.1-2.8-0.6c-1.4-1.1-1.4-2.7-0.6-3.7c1.3-1.8,3.6-1.5,6.1,0.5l0.1-0.1
    c0.3-0.5,0.7-1.4-0.5-2.3c-0.7-0.5-1.6-0.8-2.3-0.9l0.5-1.4c0.8,0.1,1.9,0.5,3,1.3c2.2,1.7,1.8,3.6,0.7,5.1l-1.9,2.5
    c-0.5,0.6-0.9,1.3-1.2,1.8L253.5,43z M255.8,39.3c-1.2-1-2.6-1.6-3.4-0.5c-0.5,0.7-0.3,1.3,0.3,1.8c0.7,0.5,1.6,0.5,2.1,0.1
    c0.1-0.1,0.2-0.2,0.3-0.3L255.8,39.3z"/>
  <path d="M265.7,38.3l-1.6,1.9l1.6,1.3l-1.1,1.3l-1.6-1.3l-2.5,3c-0.7,0.8-0.8,1.4-0.2,2c0.3,0.2,0.5,0.4,0.7,0.5l-1,1.3
    c-0.3-0.1-0.8-0.4-1.4-0.9c-0.6-0.5-1-1.2-1-1.8c0-0.7,0.3-1.5,1-2.3l2.6-3.2l-1-0.8l1.1-1.3l1,0.8l1.3-1.5L265.7,38.3z"/>
  <path d="M272.3,45.6l-2.5-2.4l1.3-1.3l6.6,6.4l-1.3,1.3l-2.5-2.4l-7.1,7.3l-1.6-1.5L272.3,45.6z"/>
  <path d="M273,55.4c-1.1,1.1-0.8,2.5,0.2,3.5c0.7,0.7,1.3,1.2,2,1.5l-0.9,1.3c-0.7-0.3-1.6-0.9-2.5-1.9c-1.9-2.1-1.8-4.5,0.1-6.3
    c1.8-1.7,4.4-2.2,6.4-0.1c2,2.1,0.9,4.4-0.5,5.7c-0.3,0.3-0.6,0.5-0.7,0.6L273,55.4z M276.8,57.1c0.6-0.5,1.3-1.7,0.3-2.8
    c-0.9-1-2.2-0.6-2.9,0L276.8,57.1z"/>
  <path d="M282.9,58.9l-0.6,1.9c-0.2,0.5-0.3,1-0.5,1.5l0,0c0.5-0.1,1-0.2,1.6-0.3l1.9-0.3l1.5,1.9l-5.1,0.4l-1.6,5.2l-1.6-1.9
    l0.7-1.9c0.2-0.5,0.4-1,0.6-1.5l0,0c-0.5,0.1-1.1,0.2-1.6,0.3l-2,0.3l-1.6-1.9l5.4-0.5l1.4-5L282.9,58.9z"/>
  <path d="M291.5,65.6l-2,1.5l1.3,1.7l-1.3,1l-1.3-1.7l-3.1,2.3c-0.9,0.6-1.1,1.2-0.6,1.9c0.2,0.3,0.4,0.5,0.6,0.6l-1.3,1
    c-0.3-0.2-0.7-0.6-1.2-1.2c-0.5-0.7-0.7-1.4-0.6-2c0.1-0.7,0.6-1.3,1.5-2l3.3-2.5l-0.8-1l1.3-1l0.8,1l1.6-1.2L291.5,65.6z"/>
  <path d="M298.1,73.5L288,80.2l-1.2-1.8l10.1-6.7L298.1,73.5z"/>
  <path d="M290.9,81c0,0.6,0.2,1.6,0.6,2.2c0.5,0.8,1.1,1,1.6,0.7s0.6-0.8,0.3-1.9c-0.4-1.8,0-2.9,0.9-3.4c1.3-0.8,3-0.3,4.1,1.4
    c0.5,0.8,0.7,1.7,0.8,2.3l-1.6,0.4c0-0.4-0.1-1.2-0.5-1.8c-0.4-0.7-1-0.8-1.4-0.6c-0.5,0.3-0.5,0.8-0.3,1.9c0.3,1.7,0,2.7-1.1,3.4
    c-1.4,0.8-3,0.4-4.2-1.6c-0.5-0.9-0.8-1.9-0.9-2.6L290.9,81z"/>
  <path d="M299.6,100.2c-0.6-0.6-1.6-1.8-2.3-3.2c-0.9-1.8-1.1-3.5-0.6-5c0.4-1.4,1.6-2.7,3.2-3.5c3.5-1.7,6.9-0.3,8.6,3.3
    c0.7,1.3,0.9,2.5,0.9,3.1l-1.8,0.3c0-0.7-0.2-1.6-0.8-2.7c-1.1-2.3-3.3-3.3-5.8-2c-2.5,1.2-3.2,3.5-2.1,5.7c0.4,0.7,0.7,1.2,1,1.4
    l2.7-1.3l-0.9-1.9l1.6-0.8l1.9,3.8L299.6,100.2z"/>
  <path d="M307.2,108.4c-3,1.2-5.2-0.4-6-2.4c-0.9-2.3-0.1-4.7,2.5-5.8c2.7-1.1,5,0,6,2.5C310.7,105.1,309.6,107.4,307.2,108.4z
     M304.6,102.3c-1.6,0.6-2.4,1.9-1.9,3.1c0.5,1.2,1.9,1.5,3.6,0.9c1.3-0.5,2.5-1.7,1.9-3.1C307.6,101.8,306,101.7,304.6,102.3z"/>
  <path d="M303.5,111.7l8.3-2.9l0.7,2.1l-8.3,2.9L303.5,111.7z M314.9,110.2c-0.6,0.2-1.3-0.1-1.5-0.8s0.1-1.3,0.7-1.5
    c0.6-0.2,1.3,0.1,1.5,0.8C315.9,109.4,315.5,110,314.9,110.2z"/>
  <path d="M310.9,114.1c1-0.3,1.8-0.6,2.5-0.8l0.5,1.9l-1.2,0.5l0,0c0.8,0.2,1.8,0.9,2.2,2.3c0.4,1.5-0.1,3.3-2.7,4l-5,1.5l-0.6-2.1
    l4.7-1.4c1.2-0.4,2-1.1,1.7-2.2c-0.2-0.8-1-1.3-1.7-1.3c-0.2,0-0.5,0-0.7,0.1l-4.9,1.5l-0.6-2.1L310.9,114.1z"/>
  <path d="M318.1,131.5c-0.6,0.1-1.3,0.2-2.5,0.5l-4.9,1.1c-1.8,0.4-3.2,0.3-4.2-0.4s-1.5-1.9-1.8-3.1c-0.2-1.1-0.3-2.3,0-3.1
    l1.8,0.1c-0.2,0.6-0.3,1.6-0.1,2.6c0.3,1.4,1.3,2.3,3.1,1.9l0.7-0.2l0,0c-0.9-0.3-1.6-1.1-1.8-2.2c-0.5-2.1,1-4,3.4-4.6
    c2.8-0.6,4.9,0.8,5.4,2.9c0.3,1.3-0.2,2.2-0.8,2.8l0,0l1.2-0.2L318.1,131.5z M314.2,130c0.2,0,0.4-0.1,0.6-0.2
    c0.7-0.4,1.2-1.2,1-2.1c-0.3-1.2-1.5-1.9-3.3-1.5c-1.5,0.3-2.5,1.3-2.2,2.7c0.2,0.8,0.9,1.4,1.7,1.5c0.2,0,0.5,0,0.8-0.1L314.2,130
    z"/>
  <path d="M322.8,139.9l-4.8,0.6l0.6,5.1l4.8-0.6l0.3,2.2l-12,1.5l-0.3-2.2l5.3-0.6l-0.6-5.1l-5.3,0.6l-0.3-2.2l12-1.5L322.8,139.9z"
    />
  <path d="M315.7,152.2c-1.6,0.1-2.2,1.4-2.1,2.8c0.1,1,0.2,1.7,0.5,2.4l-1.5,0.4c-0.4-0.7-0.6-1.8-0.7-3c-0.1-2.8,1.5-4.6,4.2-4.7
    c2.4-0.1,4.8,1.2,4.9,4c0.1,2.8-2.1,3.9-4.1,4c-0.4,0-0.7,0-0.9,0L315.7,152.2z M317.4,156c0.8,0,2.1-0.5,2-1.9
    c-0.1-1.4-1.3-1.9-2.2-1.9L317.4,156z"/>
  <path d="M318.1,159.8c1.2,0,2-0.1,2.8-0.1v1.9l-1.7,0.1v0.1c1.2,0.4,1.9,1.4,1.9,2.4c0,0.2,0,0.3,0,0.5H319c0-0.2,0.1-0.4,0.1-0.7
    c0-1.1-0.7-1.8-1.7-2c-0.2,0-0.4,0-0.7,0l-4.5,0.1v-2.2L318.1,159.8z"/>
  <path d="M315.9,167.8c-1.6,0-2.3,1.2-2.4,2.6c0,1,0.1,1.8,0.3,2.4l-1.5,0.3c-0.3-0.8-0.5-1.8-0.4-3.1c0.1-2.8,2-4.4,4.7-4.3
    c2.4,0.1,4.6,1.7,4.5,4.5c-0.1,2.8-2.5,3.7-4.4,3.6c-0.4,0-0.7-0.1-0.9-0.1L315.9,167.8z M317.2,171.7c0.8,0,2.1-0.2,2.2-1.7
    c0.1-1.4-1.1-2-2-2.1L317.2,171.7z"/>
  <path d="M312.9,174.8c0.8,0.1,1.4,0.7,1.3,1.5c-0.1,0.8-0.7,1.3-1.5,1.2c-0.8-0.1-1.4-0.7-1.3-1.5
    C311.4,175.2,312.1,174.7,312.9,174.8z"/>
  <path d="M319.3,202.2l-11.8-2.9l0.5-2.2l11.8,2.9L319.3,202.2z"/>
  <path d="M317.5,208.8l-2.2,6.7l-1.7-0.6l1.5-4.6l-3.2-1l-1.4,4.2l-1.7-0.6l1.4-4.2l-4.9-1.6l0.7-2.1L317.5,208.8z"/>
  <path d="M304.4,222.5c-3-1.2-3.5-3.8-2.7-5.9c0.9-2.3,3.2-3.5,5.8-2.4c2.7,1,3.6,3.5,2.7,5.9C309.3,222.5,306.9,223.4,304.4,222.5z
     M306.8,216.3c-1.6-0.6-3.1-0.3-3.5,0.9c-0.5,1.2,0.4,2.5,2,3.1c1.3,0.5,3,0.5,3.5-0.9S308.1,216.8,306.8,216.3z"/>
  <path d="M305,224.8c1.1,0.5,1.9,0.8,2.6,1.1l-0.8,1.7l-1.5-0.6v0.1c0.9,0.9,1.1,2.1,0.7,3c-0.1,0.2-0.2,0.3-0.3,0.5l-1.9-0.9
    c0.1-0.2,0.2-0.3,0.3-0.6c0.4-1,0.1-1.9-0.7-2.5c-0.2-0.1-0.4-0.2-0.6-0.3l-4.1-1.9l0.9-2L305,224.8z"/>
  <path d="M301.1,239.1c-0.5-0.3-1.1-0.7-2.2-1.2l-4.4-2.3c-1.6-0.9-2.6-1.8-2.9-3s0.1-2.4,0.6-3.5c0.5-1,1.3-1.9,2-2.4l1.3,1.2
    c-0.6,0.3-1.3,1-1.8,2c-0.7,1.3-0.5,2.6,1.2,3.5l0.7,0.3l0,0c-0.4-0.8-0.5-1.8,0-2.9c1-1.9,3.3-2.5,5.5-1.3
    c2.6,1.3,3.2,3.8,2.3,5.7c-0.6,1.2-1.6,1.6-2.4,1.6l0,0l1,0.6L301.1,239.1z M299,235.4c0.2,0.1,0.4,0.2,0.6,0.2
    c0.8,0.2,1.7-0.1,2.1-0.9c0.6-1.1,0-2.4-1.5-3.2c-1.3-0.7-2.7-0.6-3.4,0.6c-0.4,0.7-0.2,1.6,0.4,2.2c0.2,0.2,0.4,0.3,0.6,0.4
    L299,235.4z"/>
  <path d="M294.7,240.1c-1.4-0.8-2.6-0.1-3.4,1.1c-0.5,0.9-0.8,1.6-0.9,2.3l-1.5-0.5c0.1-0.8,0.5-1.8,1.1-2.9
    c1.5-2.4,3.8-2.9,6.1-1.5c2.1,1.3,3.3,3.7,1.8,6.1s-4,2-5.6,1c-0.4-0.2-0.6-0.4-0.8-0.6L294.7,240.1z M294,244.2
    c0.7,0.4,2,0.8,2.8-0.5c0.7-1.2-0.1-2.3-0.8-2.8L294,244.2z"/>
  <path d="M295.3,253l-2.1-1.4l-1.2,1.7l-1.4-0.9l1.2-1.7l-3.2-2.2c-0.9-0.6-1.5-0.7-2,0c-0.2,0.3-0.3,0.6-0.4,0.8l-1.4-0.9
    c0.1-0.3,0.3-0.9,0.7-1.5c0.5-0.7,1.1-1.1,1.7-1.2c0.7-0.1,1.5,0.2,2.4,0.8l3.4,2.3l0.7-1l1.4,0.9l-0.7,1l1.6,1.1L295.3,253z"/>
  <path d="M281,253.7l11.3,5.4l-1.5,1.8l-5-2.6c-1.3-0.7-2.7-1.5-3.8-2.1l0,0c0.9,1,1.8,2.1,2.7,3.4l3.4,4.5l-1.5,1.8l-5.1-2.6
    c-1.3-0.7-2.5-1.3-3.6-2l0,0c0.9,1,1.8,2.1,2.7,3.3l3.4,4.5l-1.4,1.7l-7.3-10.2l1.5-1.8l5.2,2.7c1.3,0.6,2.3,1.2,3.4,1.9l0,0
    c-0.9-1-1.6-1.9-2.5-3.1l-3.5-4.7L281,253.7z"/>
  <path d="M281.6,272.7l-1.5,1.6l-3.7-3.6l0,0c0.1,0.5,0.1,1,0,1.5c-0.1,0.5-0.4,1-0.8,1.4c-1,1.1-2.8,1.5-4.9-0.5l-3.7-3.6l1.5-1.6
    l3.5,3.4c0.9,0.9,1.9,1.2,2.8,0.4c0.6-0.6,0.6-1.5,0.3-2.1c-0.1-0.2-0.2-0.4-0.4-0.5l-3.8-3.7l1.5-1.6L281.6,272.7z"/>
  <path d="M261.7,274.3l0.8,0.6l0,0c-0.1-0.9,0.3-1.8,1.1-2.6c1.3-1.2,2.9-0.9,3.8,0.1c1.5,1.6,0.8,3.8-1.6,5.9l0.1,0.1
    c0.4,0.4,1.2,1,2.3-0.1c0.6-0.6,1.1-1.4,1.3-2.1l1.3,0.8c-0.2,0.7-0.8,1.8-1.8,2.7c-2.1,1.9-3.9,1.1-5.2-0.3l-2.1-2.3
    c-0.5-0.6-1.1-1.1-1.5-1.5L261.7,274.3z M264.8,277.2c1.2-1,2.1-2.3,1.2-3.3c-0.6-0.6-1.3-0.6-1.8-0.1c-0.7,0.6-0.7,1.4-0.5,2.1
    c0.1,0.1,0.2,0.3,0.3,0.4L264.8,277.2z"/>
  <path d="M263.9,287.2l-1.6-1.9l-1.6,1.3l-1-1.3l1.6-1.3l-2.4-3c-0.7-0.8-1.2-1.1-1.9-0.5c-0.3,0.2-0.5,0.5-0.6,0.6l-1.1-1.3
    c0.2-0.3,0.6-0.8,1.1-1.2c0.6-0.5,1.3-0.7,1.9-0.6c0.7,0.1,1.4,0.6,2.1,1.5l2.6,3.2l1-0.8l1,1.3l-1,0.8l1.3,1.5L263.9,287.2z"/>
  <path d="M255.5,292.3l2.8-2l1.1,1.5l-7.5,5.3l-1.1-1.5l2.9-2l-5.9-8.4l1.8-1.3L255.5,292.3z"/>
  <path d="M245.8,291.1c-0.9-1.3-2.3-1.2-3.5-0.5c-0.9,0.5-1.4,1.1-1.8,1.6l-1.1-1.1c0.5-0.7,1.2-1.4,2.3-2.1
    c2.4-1.5,4.8-0.9,6.2,1.3c1.3,2,1.3,4.8-1.1,6.3s-4.4,0-5.5-1.6c-0.2-0.3-0.4-0.6-0.4-0.8L245.8,291.1z M243.4,294.5
    c0.4,0.7,1.4,1.6,2.7,0.8c1.2-0.7,1-2.1,0.6-2.9L243.4,294.5z"/>
  <path d="M240.4,300.2l-1.7-0.9c-0.5-0.3-0.9-0.5-1.4-0.8l0,0c0,0.6,0,1.1,0,1.6l-0.1,1.9l-2.1,1.2l0.5-5.1l-4.8-2.5l2.2-1.2l1.8,1
    c0.5,0.3,0.9,0.6,1.4,0.9l0,0c0-0.6,0-1.1,0-1.6v-2l2.1-1.2l-0.5,5.4l4.6,2.3L240.4,300.2z"/>
  <path d="M232.3,307.3l-1.1-2.3l-1.9,0.9l-0.7-1.5l1.9-0.9l-1.7-3.5c-0.5-1-1-1.3-1.7-1c-0.3,0.2-0.6,0.3-0.7,0.5l-0.8-1.5
    c0.2-0.3,0.7-0.6,1.3-0.9c0.7-0.4,1.5-0.4,2-0.2c0.6,0.2,1.2,0.9,1.7,1.9l1.8,3.7l1.1-0.5l0.7,1.5l-1.1,0.5l0.9,1.8L232.3,307.3z"
    />
  <path d="M223.2,312.3l-4.6-11.2l2-0.8l4.6,11.2L223.2,312.3z"/>
  <path d="M217.2,303.8c-0.6-0.1-1.6-0.1-2.3,0.2c-0.9,0.3-1.2,0.9-1,1.4c0.2,0.6,0.6,0.7,1.8,0.7c1.8,0,2.8,0.6,3.2,1.6
    c0.5,1.4-0.3,3-2.2,3.7c-0.9,0.3-1.8,0.4-2.4,0.3l-0.1-1.6c0.4,0.1,1.2,0.1,1.9-0.2c0.7-0.3,1-0.8,0.8-1.3s-0.7-0.6-1.9-0.6
    c-1.7,0-2.7-0.5-3.1-1.7c-0.6-1.5,0.2-3,2.4-3.8c1-0.4,2-0.5,2.7-0.3L217.2,303.8z"/>
  <path d="M196.7,308.7c0.7-0.5,2-1.2,3.6-1.7c2-0.5,3.6-0.4,5,0.3c1.3,0.7,2.3,2.1,2.8,3.9c1,3.7-1,6.8-4.9,7.9
    c-1.4,0.4-2.6,0.4-3.3,0.3v-1.9c0.7,0.1,1.6,0.1,2.8-0.2c2.5-0.7,3.9-2.6,3.1-5.4c-0.7-2.7-2.8-3.8-5.2-3.1
    c-0.8,0.2-1.3,0.5-1.6,0.7l0.8,2.9l2.1-0.6l0.5,1.7l-4.1,1.1L196.7,308.7z"/>
  <path d="M187.2,314.5c-0.6-3.2,1.3-5,3.5-5.4c2.4-0.5,4.6,0.8,5.2,3.6c0.5,2.8-1,4.9-3.6,5.4C189.8,318.6,187.7,317.1,187.2,314.5z
     M193.7,313.2c-0.3-1.7-1.4-2.7-2.7-2.5c-1.2,0.2-1.9,1.6-1.5,3.3c0.3,1.4,1.2,2.8,2.7,2.5C193.6,316.2,194,314.6,193.7,313.2z"/>
  <path d="M184.7,310.3l1.2,8.7l-2.2,0.3l-1.2-8.7L184.7,310.3z M184,321.8c-0.1-0.7,0.3-1.3,1.1-1.4c0.7-0.1,1.3,0.4,1.4,1
    c0.1,0.7-0.3,1.3-1.1,1.4S184.1,322.4,184,321.8z"/>
  <path d="M180.8,317.1c0.1,1,0.2,1.8,0.3,2.6l-1.9,0.2l-0.2-1.3h-0.1c-0.3,0.7-1.2,1.6-2.6,1.8c-1.5,0.1-3.2-0.7-3.5-3.5l-0.5-5.2
    l2.2-0.2l0.5,4.9c0.1,1.3,0.7,2.2,1.9,2.1c0.9-0.1,1.4-0.8,1.6-1.5c0.1-0.2,0.1-0.5,0-0.7l-0.5-5.1l2.2-0.2L180.8,317.1z"/>
  <path d="M162.5,320.8c0-0.6,0-1.3,0-2.5l-0.1-5c0-1.8,0.3-3.2,1.2-4c0.9-0.8,2.2-1.1,3.4-1.2c1.1,0,2.3,0.2,3.1,0.6l-0.4,1.7
    c-0.6-0.3-1.5-0.6-2.6-0.6c-1.4,0-2.5,0.8-2.4,2.7v0.7l0,0c0.5-0.8,1.4-1.3,2.5-1.4c2.2-0.1,3.8,1.7,3.8,4.2
    c0.1,2.9-1.7,4.7-3.8,4.7c-1.3,0-2.1-0.6-2.6-1.3l0,0v1.2L162.5,320.8z M164.7,317.2c0,0.2,0,0.4,0.1,0.6c0.3,0.8,0.9,1.4,1.8,1.4
    c1.2,0,2.1-1.1,2.1-2.9c0-1.5-0.8-2.7-2.2-2.6c-0.8,0-1.5,0.6-1.8,1.4c-0.1,0.2-0.1,0.5-0.1,0.8L164.7,317.2z"/>
  <path d="M153.3,323.9l0.3-4.8l-5.1-0.4l-0.3,4.8l-2.2-0.2l0.8-12.1l2.2,0.2l-0.4,5.3l5.1,0.4l0.4-5.3l2.2,0.2l-0.8,12.1
    L153.3,323.9z"/>
  <path d="M142.6,314.5c0.2-1.6-1-2.4-2.4-2.6c-1-0.1-1.8-0.1-2.5,0.1l-0.1-1.6c0.8-0.2,1.8-0.3,3.1-0.1c2.8,0.4,4.2,2.4,3.9,5
    c-0.3,2.4-2.1,4.5-4.9,4.1c-2.8-0.4-3.4-2.8-3.1-4.7c0.1-0.4,0.1-0.7,0.2-0.9L142.6,314.5z M138.6,315.5c-0.1,0.8,0,2.2,1.5,2.4
    c1.4,0.2,2.1-1,2.3-1.8L138.6,315.5z"/>
  <path d="M134.5,315.5c-0.2,1.2-0.4,2-0.5,2.8l-1.9-0.4l0.2-1.7h-0.1c-0.7,1.1-1.8,1.6-2.7,1.4c-0.2,0-0.3-0.1-0.5-0.1l0.4-2
    c0.2,0.1,0.4,0.1,0.6,0.2c1,0.2,1.9-0.3,2.3-1.3c0.1-0.2,0.1-0.4,0.2-0.6l0.9-4.5l2.2,0.4L134.5,315.5z"/>
  <path d="M127.2,311.8c0.3-1.6-0.7-2.5-2.1-2.9c-1-0.2-1.7-0.3-2.4-0.2v-1.6c0.8-0.1,1.9-0.1,3.1,0.2c2.8,0.7,4,2.8,3.3,5.4
    c-0.6,2.3-2.5,4.2-5.3,3.6c-2.8-0.7-3.1-3.2-2.7-5c0.1-0.4,0.2-0.7,0.3-0.9L127.2,311.8z M123.1,312.4c-0.2,0.8-0.2,2.2,1.3,2.5
    c1.3,0.3,2.2-0.7,2.5-1.6L123.1,312.4z"/>
  <path d="M120.9,307.5c-0.2,0.8-0.9,1.2-1.7,1s-1.1-0.9-0.9-1.8c0.2-0.8,0.9-1.2,1.7-1C120.8,306,121.2,306.7,120.9,307.5z"/>
  <path d="M82.3,303.1l5.9-10.6l1.9,1.1l-5.9,10.6L82.3,303.1z"/>
  <path d="M76.4,299.6l-5.9-3.8l1-1.5l4,2.6l1.8-2.8l-3.7-2.4l1-1.5l3.7,2.4l2.8-4.3l1.9,1.2L76.4,299.6z"/>
  <path d="M66.7,283.5c1.9-2.6,4.6-2.4,6.4-1.1c2,1.5,2.5,4,0.8,6.2c-1.7,2.3-4.3,2.6-6.4,1C65.4,288.1,65.1,285.6,66.7,283.5z
     M72,287.3c1-1.4,1.1-2.9,0-3.7c-1-0.8-2.5-0.3-3.5,1.1c-0.8,1.1-1.3,2.7,0,3.6C69.7,289.3,71.2,288.5,72,287.3z"/>
  <path d="M64.3,283.4c-0.7,0.9-1.3,1.6-1.7,2.2l-1.5-1.2l1-1.3l0,0c-1.1,0.7-2.3,0.5-3-0.1c-0.2-0.1-0.3-0.2-0.4-0.4L60,281
    c0.1,0.2,0.3,0.3,0.5,0.5c0.8,0.7,1.8,0.6,2.6,0c0.2-0.1,0.3-0.3,0.5-0.5l2.9-3.5l1.7,1.4L64.3,283.4z"/>
  <path d="M51.5,275.9c0.4-0.4,0.9-0.9,1.8-1.8l3.4-3.7c1.2-1.3,2.4-2.1,3.6-2c1.2,0,2.3,0.7,3.2,1.5c0.8,0.8,1.5,1.7,1.8,2.6
    l-1.5,0.9c-0.2-0.6-0.6-1.5-1.4-2.2c-1.1-1-2.4-1.1-3.6,0.2l-0.5,0.5l0,0c0.9-0.2,1.9,0,2.7,0.8c1.6,1.5,1.5,3.8-0.2,5.7
    c-2,2.1-4.5,2.1-6.1,0.7c-1-0.9-1.1-1.9-0.9-2.7l0,0l-0.8,0.8L51.5,275.9z M55.6,274.9c-0.1,0.2-0.3,0.3-0.4,0.5
    c-0.4,0.8-0.3,1.6,0.4,2.3c0.9,0.8,2.3,0.7,3.5-0.6c1-1.1,1.3-2.5,0.3-3.4c-0.6-0.6-1.5-0.6-2.2-0.2c-0.2,0.1-0.4,0.3-0.6,0.5
    L55.6,274.9z"/>
  <path d="M52.2,269.5c1.1-1.1,0.8-2.5-0.2-3.5c-0.7-0.7-1.3-1.2-2-1.5l0.9-1.3c0.7,0.3,1.6,0.9,2.5,1.8c2,2.1,1.8,4.5-0.1,6.3
    c-1.8,1.7-4.4,2.2-6.4,0.1s-0.9-4.3,0.5-5.7c0.3-0.3,0.6-0.5,0.7-0.6L52.2,269.5z M48.4,267.7c-0.6,0.6-1.3,1.7-0.3,2.8
    c0.9,1,2.2,0.5,2.9,0L48.4,267.7z"/>
  <path d="M39.6,266.7l1.9-1.6l-1.4-1.6l1.3-1.1l1.4,1.6l2.9-2.5c0.8-0.7,1-1.3,0.5-1.9c-0.2-0.3-0.5-0.5-0.6-0.6l1.2-1.1
    c0.3,0.2,0.8,0.5,1.2,1.1c0.5,0.6,0.8,1.3,0.7,1.9c-0.1,0.7-0.5,1.4-1.4,2.1l-3.1,2.7l0.8,0.9l-1.3,1.1l-0.8-0.9l-1.5,1.3
    L39.6,266.7z"/>
  <path d="M42.6,252.7l-8.2,9.5l-1.4-1.9l3.8-4.1c1-1.1,2.1-2.2,3-3.1l0,0c-1.1,0.6-2.5,1.1-4,1.8l-5.2,2.1l-1.4-1.9l3.9-4.2
    c1-1.1,1.9-2.1,2.9-3l0,0c-1.2,0.6-2.5,1.2-3.9,1.8l-5.2,2.2l-1.3-1.8l11.8-4.4l1.4,1.9l-3.9,4.3c-0.9,1-1.8,1.9-2.7,2.8l0,0
    c1.2-0.6,2.3-1.1,3.6-1.6l5.5-2.2L42.6,252.7z"/>
  <path d="M24.1,248.3l-1.1-1.9l4.5-2.7l0,0c-0.5,0-1-0.2-1.4-0.4c-0.4-0.2-0.8-0.6-1.1-1.1c-0.8-1.3-0.7-3.1,1.7-4.6l4.4-2.6
    l1.1,1.9l-4.2,2.5c-1.1,0.6-1.7,1.5-1.1,2.6c0.4,0.7,1.3,1,1.9,0.8c0.2,0,0.4-0.1,0.6-0.3l4.5-2.7l1.1,1.9L24.1,248.3z"/>
  <path d="M27.8,228.7l-0.8,0.6l0,0c0.9,0.2,1.7,0.8,2.2,1.8c0.8,1.6,0.1,3-1.1,3.6c-2,1-3.9-0.2-5.3-3.1l-0.1,0.1
    c-0.5,0.3-1.3,0.9-0.6,2.3c0.4,0.8,1,1.4,1.7,1.8l-1.1,1c-0.7-0.4-1.5-1.2-2.1-2.5c-1.3-2.5-0.1-4,1.7-4.9l2.8-1.4
    c0.7-0.4,1.4-0.7,1.8-1.1L27.8,228.7z M24.1,230.9c0.7,1.4,1.7,2.6,2.9,2c0.8-0.4,0.9-1.1,0.6-1.7c-0.4-0.8-1.2-1.1-1.9-1
    c-0.2,0-0.3,0.1-0.5,0.2L24.1,230.9z"/>
  <path d="M14.8,227.5l2.3-1l-0.9-1.9l1.5-0.7l0.9,1.9l3.5-1.6c1-0.4,1.4-0.9,1-1.7c-0.2-0.3-0.3-0.6-0.4-0.7l1.5-0.7
    c0.2,0.3,0.6,0.7,0.9,1.4c0.3,0.7,0.4,1.5,0.1,2c-0.3,0.6-0.9,1.2-2,1.6l-3.8,1.7l0.5,1.1l-1.5,0.7l-0.5-1.1l-1.8,0.8L14.8,227.5z"
    />
  <path d="M12,218l1.2,3.3l-1.7,0.6l-3.2-8.6l1.7-0.6l1.2,3.3l9.6-3.5l0.8,2.1L12,218z"/>
  <path d="M15.7,209c1.5-0.5,1.8-1.9,1.4-3.3c-0.3-1-0.7-1.6-1.1-2.2l1.4-0.8c0.5,0.6,1.1,1.5,1.4,2.8c0.8,2.7-0.4,4.8-2.9,5.6
    c-2.3,0.7-4.9,0-5.8-2.7c-0.8-2.7,1.1-4.3,3-4.9c0.4-0.1,0.7-0.2,0.9-0.2L15.7,209z M13.1,205.7c-0.8,0.2-1.9,1-1.5,2.4
    c0.4,1.3,1.8,1.5,2.6,1.3L13.1,205.7z"/>
  <path d="M8.4,201.4l1.4-1.4c0.4-0.4,0.8-0.7,1.1-1.1l0,0c-0.5-0.1-1-0.3-1.5-0.4l-1.8-0.6L7,195.6l4.8,1.9l3.7-4l0.6,2.4l-1.4,1.4
    c-0.4,0.4-0.8,0.7-1.2,1.1l0,0c0.5,0.1,1,0.3,1.6,0.4l1.9,0.6l0.6,2.4l-5.1-1.9L9,203.8L8.4,201.4z"/>
  <path d="M3.6,191.6l2.5-0.5L5.7,189l1.6-0.3l0.4,2.1l3.8-0.7c1.1-0.2,1.5-0.6,1.4-1.4c-0.1-0.4-0.2-0.6-0.3-0.8l1.6-0.4
    c0.2,0.3,0.4,0.9,0.5,1.5c0.2,0.8,0,1.5-0.4,2c-0.4,0.6-1.2,0.9-2.3,1.1l-4,0.8l0.2,1.2l-1.6,0.3l-0.2-1.2l-1.9,0.4L3.6,191.6z"/>
  <path d="M1.2,181.6l12-1.5l0.3,2.2l-12,1.5L1.2,181.6z"/>
  <path d="M11,178c0.3-0.5,0.5-1.5,0.4-2.3c-0.1-1-0.5-1.4-1.1-1.3s-0.9,0.4-1.1,1.5c-0.4,1.8-1.3,2.6-2.3,2.6c-1.5,0.1-2.8-1-3-3.1
    c-0.1-1,0.1-1.8,0.3-2.4l1.6,0.3c-0.2,0.4-0.4,1.1-0.3,1.9s0.5,1.2,1,1.1c0.6,0,0.8-0.5,1.1-1.6c0.4-1.6,1.2-2.4,2.5-2.6
    c1.6-0.1,2.8,1,3,3.3c0.1,1.1-0.1,2-0.4,2.7L11,178z"/>
  <path d="M11.6,157.1c0.3,0.8,0.7,2.3,0.7,3.9c0,2-0.5,3.6-1.5,4.8c-1,1.1-2.6,1.7-4.4,1.8c-3.8,0.1-6.3-2.6-6.4-6.7
    c0-1.5,0.3-2.7,0.5-3.2l1.8,0.5c-0.3,0.7-0.5,1.5-0.5,2.8c0,2.6,1.6,4.4,4.4,4.3c2.8,0,4.4-1.8,4.3-4.3c0-0.8-0.1-1.4-0.3-1.7h-3
    v2.1H5.5l-0.1-4.3L11.6,157.1z"/>
  <path d="M8.4,146.3c3.2,0.2,4.5,2.6,4.3,4.8c-0.2,2.5-2,4.3-4.8,4.1C5,155,3.4,153,3.6,150.3C3.8,147.7,5.8,146.1,8.4,146.3z
     M8.1,152.9c1.7,0.1,3-0.6,3.1-2c0.1-1.3-1.1-2.2-2.8-2.4c-1.4-0.1-3,0.4-3.1,1.9C5.1,152,6.6,152.8,8.1,152.9z"/>
  <path d="M2.3,141.3c0.7,0.1,1.1,0.6,1,1.4c-0.1,0.7-0.7,1.1-1.3,1.1c-0.7-0.1-1.1-0.6-1-1.4C1,141.6,1.6,141.2,2.3,141.3z
     M13.1,145l-8.7-1l0.3-2.2l8.7,1L13.1,145z"/>
  <path d="M7.6,139.5c-1-0.2-1.8-0.3-2.6-0.4l0.3-1.9l1.3,0.1v-0.1c-0.6-0.5-1.3-1.6-1-3c0.3-1.5,1.5-2.9,4.2-2.4l5.1,0.9l-0.4,2.2
    l-4.9-0.8c-1.2-0.2-2.3,0.1-2.5,1.3c-0.1,0.9,0.4,1.6,1,1.9c0.2,0.1,0.4,0.2,0.7,0.2l5.1,0.9l-0.4,2.2L7.6,139.5z"/>
  <path d="M8.8,120.8c0.6,0.2,1.3,0.4,2.4,0.7l4.8,1.2c1.8,0.4,3,1.1,3.6,2.2c0.6,1.1,0.5,2.4,0.2,3.5s-0.8,2.2-1.4,2.8l-1.5-0.9
    c0.5-0.5,1-1.3,1.3-2.3c0.3-1.4-0.2-2.6-2-3.1l-0.7-0.2l0,0c0.6,0.7,0.9,1.7,0.7,2.8c-0.5,2.1-2.6,3.2-5,2.6
    c-2.8-0.7-4.1-2.9-3.6-4.9c0.3-1.3,1.1-1.9,1.9-2.2l0,0l-1.1-0.4L8.8,120.8z M11.7,123.8c-0.2,0-0.4-0.1-0.6-0.1
    c-0.8,0-1.6,0.5-1.8,1.4c-0.3,1.2,0.5,2.3,2.3,2.8c1.4,0.3,2.8-0.1,3.1-1.5c0.2-0.8-0.2-1.6-0.9-2.1c-0.2-0.1-0.5-0.2-0.7-0.3
    L11.7,123.8z"/>
  <path d="M8.2,111.1l4.6,1.6l1.7-4.8l-4.6-1.6l0.7-2.1l11.5,4l-0.7,2.1l-5.1-1.8l-1.7,4.8l5.1,1.8l-0.7,2.1l-11.5-4L8.2,111.1z"/>
  <path d="M20,103.2c1.5,0.6,2.6-0.3,3.2-1.6c0.4-0.9,0.5-1.7,0.6-2.4l1.5,0.3c0,0.8-0.2,1.9-0.7,3c-1.1,2.6-3.4,3.5-5.9,2.4
    c-2.2-1-3.7-3.2-2.6-5.8s3.6-2.5,5.4-1.8c0.4,0.2,0.7,0.3,0.8,0.4L20,103.2z M20.1,99.1c-0.7-0.3-2.1-0.5-2.7,0.8
    c-0.5,1.3,0.4,2.3,1.2,2.7L20.1,99.1z"/>
  <path d="M21.2,95.2c-1.1-0.5-1.8-0.9-2.6-1.2l0.8-1.7l1.5,0.7v-0.1c-0.9-0.9-1-2.1-0.6-3c0.1-0.2,0.2-0.3,0.3-0.4l1.9,0.9
    c-0.1,0.2-0.2,0.3-0.3,0.6c-0.5,0.9-0.2,1.9,0.6,2.5c0.2,0.1,0.4,0.2,0.6,0.3l4.1,2l-1,2L21.2,95.2z"/>
  <path d="M26.7,89.1c1.4,0.7,2.6,0,3.3-1.3c0.5-0.9,0.7-1.6,0.8-2.3l1.5,0.5c-0.1,0.8-0.4,1.8-1,2.9c-1.4,2.5-3.7,3.1-6.1,1.8
    c-2.1-1.2-3.4-3.6-2-6c1.4-2.5,3.9-2.2,5.6-1.2c0.4,0.2,0.6,0.4,0.8,0.5L26.7,89.1z M27.3,85c-0.7-0.4-2-0.7-2.8,0.6
    c-0.7,1.2,0.1,2.3,0.9,2.8L27.3,85z"/>
  <path d="M32.5,84.2c-0.7-0.4-0.9-1.2-0.5-1.9s1.2-0.9,1.9-0.4c0.7,0.4,0.9,1.2,0.5,1.9C34,84.4,33.2,84.6,32.5,84.2z"/>
</g>
</svg>