<?xml version="1.0" encoding="utf-8"?>
<!-- Generator: Adobe Illustrator 22.1.0, SVG Export Plug-In . SVG Version: 6.00 Build 0)  -->
<svg version="1.1" id="logo_1_" xmlns="http://www.w3.org/2000/svg" xmlns:xlink="http://www.w3.org/1999/xlink" x="0px" y="0px"
	 viewBox="0 0 560 560" style="enable-background:new 0 0 560 560;" xml:space="preserve">
<title>Asset 1</title>
<g id="logo_x5F_layer">
	<g id="Layer_1-2">
		<path d="M248.5,220.9v31.4h-28.1v38.4h-10.3v-38.3h-1.4c-4.6,0-9.2,0-13.8,0c-0.9,0-1.2-0.3-1.2-1.5c0.1-3,0-5.9,0-9.1h47v-10.3
			c-0.4,0-0.9-0.1-1.3-0.1c-26.3,0-52.7,0-79,0c-1.1,0-1.3,0.5-1.3,1.8c0,11,0,21.9,0,32.9c0,1.5-0.3,1.9-1.4,1.8
			c-2.2-0.1-4.3-0.1-6.5-0.1v-47.1h97.3V220.9z"/>
		<path d="M151.2,280.3c8.1,0,16.3,0.1,24.4,0c3,0,4.5-2,4.5-5.9c0.1-6.9,0-13.9,0-20.8c0-0.4-0.1-0.7-0.1-1.1h-8.7v-10.6h19.2v2
			c0,11.5-0.1,23,0,34.5c0,5.2-2.4,9.2-5.5,10.8c-2,1.1-4.1,1.6-6.2,1.6c-6.1-0.1-12.2,0-18.3-0.1c-1.1,0-1.4,0.5-1.3,1.9
			c0.1,1.8,0.1,3.5,0,5.3c0,1.1,0.3,1.4,1,1.4c0.7-0.1,1.4,0,2.1,0h78.5v-36.4h7.8v46.9h-95.7c-0.5,0-1,0-1.6,0.1L151.2,280.3z"/>
		<path d="M344,309.8v-39.6c0.4,0,0.6-0.1,0.9-0.1c4.2,0.1,8.4,0,12.6,0.3c3.2,0.2,5.6,2.4,6.8,6.6c1.1,4,0.1,8.2-2.5,10.7
			c-0.3,0.3-0.7,0.6-1.1,1c0.2,0.2,0.4,0.3,0.6,0.5c5,2.5,5.8,9.7,3.7,14.9c-1.4,3.6-3.9,4.9-6.6,5.5c-0.9,0.2-1.8,0.3-2.7,0.3
			C351.9,309.8,348,309.8,344,309.8z M347.7,305.4c3.5-0.2,7-0.1,10.5-0.6c2.8-0.4,4.1-3.1,4-7c-0.1-3.3-1.7-5.7-4.4-6.1
			c-1.9-0.3-3.8-0.3-5.7-0.3c-1.4,0-2.9,0-4.4,0V305.4z M347.7,280.7c0,1.7,0,3.4,0,5.1c0,0.7,0.2,1.1,0.8,1.1
			c2.8-0.1,5.7,0,8.5-0.3c2.5-0.2,4-2.4,4-5.6c0.1-3.3-1.2-5.8-3.7-6.1c-3-0.4-6-0.3-9-0.3c-0.2,0-0.6,0.7-0.6,1
			C347.6,277.4,347.7,279,347.7,280.7L347.7,280.7z"/>
		<path d="M310.3,309.8c-1.7,0-3,0.1-4.3,0c-0.4,0-0.8-0.6-1.1-1c-1.9-3.8-3.8-7.6-5.6-11.5c-1.7-3.7-4.1-5.6-7.4-5.2
			c-1.2,0.2-2.5,0-3.8,0v17.6h-3.7v-21.8c0.4,0,0.8-0.1,1.3-0.1c4,0,7.9,0,11.9-0.1c0.7,0,1.4-0.1,2.1-0.3c2.9-0.8,4.4-3.2,4.2-6.9
			c-0.1-3.2-1.9-5.7-4.7-5.8c-3.9-0.2-7.8-0.2-11.7-0.2c-0.2,0-0.4,0-0.7,0c-2.9,0-2.9,0-2.4-4c0.1-0.1,0.3-0.1,0.4-0.1
			c5.2,0.1,10.4,0,15.6,0.3c3.3,0.1,5.7,2.2,6.9,6.5c1.1,4.1,0.7,7.9-1.6,11.2c-1.4,1.9-3.2,2.8-5.1,3.3c-0.3,0.1-0.5,0.2-1,0.3
			C304.9,296.1,306.7,303.5,310.3,309.8z"/>
		<path d="M314.3,270.2h3.7v1.8c0,7.5,0,15,0,22.5c0,1.4,0.1,2.8,0.3,4.2c0.5,3.9,2.3,6.4,5.3,6.9c1.5,0.3,3.1,0.2,4.6-0.1
			c3.3-0.8,4.7-3,5.2-7.7c0.1-1.4,0.2-2.9,0.2-4.4c0-7.1,0-14.3,0-21.4v-1.9h3.7c0,0.5,0.1,1.1,0.1,1.6c0,7.7,0,15.5,0,23.2
			c0,1.6-0.2,3.2-0.4,4.8c-0.7,5.5-3.3,8.8-7.2,10.1c-2.7,0.9-5.6,0.8-8.3-0.2c-4.2-1.5-6.3-5.4-6.8-11c-0.2-1.6-0.2-3.2-0.3-4.8
			c0-7.4,0-14.9,0-22.3C314.2,271.2,314.2,270.8,314.3,270.2z"/>
		<path d="M316.2,227.3c0.7,0,1.4-0.1,2.1,0c0.4,0.2,0.7,0.6,0.9,1.1c3.1,7.8,6.3,15.7,9.3,23.5c0.3,0.7,0.6,1.4,1.1,1.9v-26.4h2.4
			v34.3c-0.7,0-1.4,0.1-2.1-0.1c-0.4-0.1-0.8-0.7-1-1.2c-3.2-7.9-6.3-15.9-9.4-23.8c-0.2-0.6-0.5-1.2-1-1.6v2c0,7.5,0,15,0,22.5
			c0,2.2,0,2.2-1.7,2.2c-0.2,0-0.4-0.1-0.8-0.1L316.2,227.3z"/>
		<path d="M380.8,261.5c-2.5,0.4-2.5,0.4-2.5-2.6c0-9.9,0-19.8,0-29.7c0-0.6,0.2-1.7,0.5-1.9c1-0.6,2.2,0,2.6,1
			c2.2,5.6,4.4,11.2,6.6,16.8c1.1,2.8,2.2,5.6,3.3,8.4c0.1,0.2,0.1,0.4,0.2,0.6l0.3-0.2v-26.5h2.4v34.3c-0.7,0-1.4,0.1-2.1-0.1
			c-0.4-0.1-0.8-0.7-1-1.2c-3-7.6-6.1-15.2-9.1-22.9c-0.3-0.9-0.8-1.7-1.3-2.5L380.8,261.5z"/>
		<path d="M256.7,274.6v-4.4H280c0,1.2,0.1,2.4,0,3.6c0,0.3-0.6,0.7-0.9,0.8c-2.4,0.1-4.9,0-7.3,0h-1.5v35.1h-3.8v-1.8
			c0-10.5,0-21,0-31.5c0-1.5-0.4-1.9-1.4-1.8C262.3,274.7,259.6,274.6,256.7,274.6z"/>
		<path d="M272.4,245.2c0-5.1,0.5-9.5,2.5-13.3c3.8-7.4,11.7-6.9,14.8,1c2.9,7.2,2.9,14.7,0.4,22.1c-1.6,4.7-4.4,7.4-8.4,7.3
			c-4-0.2-6.4-3.4-8-8C272.8,251.4,272.3,248.3,272.4,245.2z M289.4,245.5c-0.2-3.4-0.4-6.7-1.5-9.8c-1.2-3.3-3.1-5.4-6-5.2
			s-4.9,2.4-5.8,5.9c-1.4,5.3-1.6,10.9,0,16.2c1,3.5,2.9,5.9,5.9,6s5-2,6.1-5.6C288.7,250.6,288.9,248,289.4,245.5z"/>
		<path d="M374.6,244.5c0,3.3-0.4,6.6-1.4,9.7c-1.5,4.4-3.8,7.5-7.5,8c-4,0.5-7-2-8.7-6.6c-2.9-7.9-2.9-16,0.6-23.5
			c3.7-7.8,11.9-6.9,15.1,1.4C374.1,236.9,374.6,240.6,374.6,244.5z M357.7,243.9c0.2,2.2,0.2,3.6,0.4,5.1c0.2,1.4,0.5,2.8,1,4.1
			c1.2,3.3,3,5.5,5.9,5.5c3-0.1,4.9-2.4,5.9-5.9c1.6-5.5,1.5-11,0-16.5c-0.7-2.5-2-4.5-4-5.4c-3.3-1.5-7,1-8.1,5.9
			C358.1,239.3,357.9,242,357.7,243.9z"/>
		<path d="M351.4,236.8l-2.2,0.4c-0.1-0.3-0.2-0.5-0.3-0.8c-0.4-5-3.4-6.5-6.6-5.6c-2.3,0.7-3.5,3.2-3.1,6.2
			c0.3,1.7,1.1,2.7,2.2,3.2c1.8,0.9,3.7,1.6,5.5,2.5c2.9,1.4,4.8,4,5.1,8.3c0.5,6.2-2.8,11.3-7.5,11.3c-4.8,0-7.6-3-8.5-9.1
			c-0.3-2.3-0.2-2.5,1.5-2.6c0.2,0,0.4,0,0.7,0c0.1,0.8,0.2,1.5,0.3,2.2c1.1,6,6.7,6.7,9.2,4.3c2.5-2.3,2.3-7.5-0.4-9.4
			c-1.1-0.8-2.3-1.2-3.5-1.8c-1.1-0.5-2.1-0.9-3.2-1.5c-3.1-1.7-4.7-5.6-4.1-9.8c0.6-4.7,2.9-7.6,6.5-7.9
			C348.1,226.3,351.6,230.6,351.4,236.8z"/>
		<path d="M298.1,241.4h10.8v-14.1h2.5v34.1c-0.1,0.1-0.1,0.1-0.2,0.1c-2.3,0.2-2.3,0.2-2.3-2.8c0-3.9,0-7.8,0-11.8v-1.7h-2.3
			c-2.4,0-4.8,0.1-7.2,0c-1,0-1.3,0.3-1.3,1.7c0.1,4.1,0,8.2,0,12.4c0,2.5,0,2.5-1.9,2.3c-0.2,0-0.4-0.1-0.6-0.1v-34.3
			c0.5,0,1.1,0.1,1.6,0c0.8-0.1,1,0.4,1,1.3c0,3.8,0,7.5,0,11.3L298.1,241.4z"/>
		<path d="M268.5,227.4c0,0.6,0.1,1.1,0.1,1.5c0,7.5,0.1,15.1,0,22.6c0,2.2-0.3,4.4-0.8,6.5c-0.7,3-2.6,4.3-5,4.2
			c-2.2,0-3.8-1.4-4.6-4.4c-0.4-1.8-0.6-3.7-0.9-5.7l2.3-0.6c0.2,1.5,0.3,2.9,0.6,4.2c0.4,1.7,1.3,2.6,2.6,2.6
			c1.3,0,2.3-0.8,2.8-2.5c0.2-0.6,0.2-1.2,0.3-1.8c0.1-5.5,0.1-10.9,0.2-16.4c0-3.4,0-6.8,0-10.3L268.5,227.4z"/>
		<path d="M393.7,305.3v4.4h-22.8c0-0.1-0.1-0.3-0.1-0.5c-0.2-3.9-0.2-3.9,2.7-3.9H393.7L393.7,305.3z"/>
		<path d="M392.8,270.2v4.3h-22v-4.3H392.8z"/>
		<path d="M392.8,287.2v4.2h-22v-4.2H392.8z"/>
	</g>
</g>
<g id="circle_x5F_text">
	<path d="M278.9,106.6l-0.6,12.1l-2.2-0.1l0.6-12.1L278.9,106.6z"/>
	<path d="M285.8,107.2l7,0.8l-0.2,1.8l-4.8-0.6l-0.4,3.3l4.4,0.5l-0.2,1.8l-4.4-0.5l-0.6,5.1l-2.2-0.3L285.8,107.2z"/>
	<path d="M301.7,117.3c-0.6,3.2-3.1,4.2-5.3,3.8c-2.4-0.4-4-2.5-3.5-5.2c0.5-2.8,2.7-4.2,5.3-3.8
		C300.8,112.6,302.2,114.7,301.7,117.3z M295.2,116.3c-0.3,1.7,0.3,3.1,1.6,3.3c1.2,0.2,2.3-0.8,2.7-2.6c0.2-1.4-0.1-3-1.6-3.3
		C296.3,113.4,295.4,114.8,295.2,116.3z"/>
	<path d="M303.9,116.4c0.3-1.1,0.5-2,0.6-2.8l1.9,0.4l-0.3,1.6h0.1c0.7-1.1,1.8-1.5,2.8-1.3c0.2,0.1,0.3,0.1,0.5,0.2l-0.5,2
		c-0.2-0.1-0.4-0.2-0.6-0.2c-1-0.2-1.9,0.2-2.3,1.2c-0.1,0.2-0.2,0.4-0.2,0.6l-1.1,4.4l-2.2-0.5L303.9,116.4z"/>
	<path d="M318.6,117.4c-0.2,0.6-0.4,1.2-0.8,2.4l-1.4,4.8c-0.5,1.8-1.3,2.9-2.4,3.4c-1.1,0.5-2.4,0.4-3.6,0.1
		c-1.1-0.3-2.1-0.9-2.7-1.5l0.9-1.5c0.4,0.5,1.2,1.1,2.3,1.4c1.4,0.4,2.6,0,3.2-1.8l0.2-0.7l0,0c-0.7,0.6-1.7,0.8-2.8,0.5
		c-2.1-0.6-3.1-2.8-2.3-5.2c0.8-2.8,3.1-3.9,5.1-3.3c1.3,0.4,1.9,1.2,2.1,2l0,0l0.4-1.1L318.6,117.4z M315.4,120.2
		c0.1-0.2,0.1-0.4,0.1-0.6c0-0.8-0.4-1.6-1.3-1.9c-1.2-0.3-2.4,0.4-2.9,2.1c-0.4,1.4,0,2.8,1.3,3.2c0.8,0.2,1.6-0.1,2.1-0.8
		c0.1-0.2,0.2-0.5,0.3-0.7L315.4,120.2z"/>
	<path d="M320.9,123.5c-0.5,1.5,0.4,2.6,1.7,3.1c1,0.4,1.7,0.5,2.4,0.5l-0.2,1.5c-0.8,0-1.9-0.1-3.1-0.5c-2.7-1-3.6-3.2-2.7-5.7
		c0.8-2.3,3-3.9,5.7-2.9s2.7,3.5,2.1,5.3c-0.1,0.4-0.3,0.7-0.4,0.8L320.9,123.5z M325,123.4c0.3-0.8,0.4-2.1-1-2.6
		c-1.3-0.5-2.2,0.5-2.6,1.3L325,123.4z"/>
	<path d="M333.4,120.4l-1,2.3l1.9,0.8l-0.7,1.5l-1.9-0.8l-1.5,3.6c-0.4,1-0.4,1.6,0.4,1.9c0.3,0.1,0.6,0.2,0.8,0.3l-0.6,1.6
		c-0.4,0-0.9-0.2-1.6-0.4c-0.7-0.3-1.3-0.8-1.5-1.4c-0.2-0.6-0.1-1.5,0.3-2.5l1.6-3.8l-1.1-0.5l0.7-1.5l1.1,0.5l0.8-1.8L333.4,120.4
		z"/>
	<path d="M336.8,134.4l3.2-12.1l2.1,1.1l-1.6,5.4c-0.4,1.4-0.9,2.9-1.3,4.1l0,0c0.8-1,1.8-2.1,2.8-3.3l3.8-4.2l2.1,1.1l-1.6,5.5
		c-0.4,1.4-0.8,2.7-1.3,4l0,0c0.8-1.1,1.7-2.2,2.7-3.3l3.7-4.2l2,1.1l-8.7,9.1l-2.1-1.1l1.6-5.6c0.4-1.4,0.7-2.5,1.2-3.7l0,0
		c-0.8,1-1.6,2-2.5,3l-4,4.3L336.8,134.4z"/>
	<path d="M355.3,130.2l1.9,1.2l-2.9,4.4l0,0c0.5-0.2,1-0.3,1.5-0.2c0.5,0,1,0.2,1.5,0.5c1.2,0.8,2,2.5,0.5,4.9l-2.8,4.3l-1.9-1.2
		l2.7-4.1c0.7-1.1,0.8-2.1-0.2-2.8c-0.7-0.5-1.6-0.3-2.1,0.1c-0.2,0.1-0.3,0.3-0.4,0.5l-2.9,4.4l-1.9-1.2L355.3,130.2z"/>
	<path d="M360.7,149.5l0.5-0.9l0,0c-0.8,0.2-1.9,0.1-2.8-0.6c-1.4-1.1-1.4-2.7-0.6-3.7c1.3-1.8,3.6-1.5,6.1,0.5l0.1-0.1
		c0.3-0.5,0.7-1.4-0.5-2.3c-0.7-0.5-1.6-0.8-2.3-0.9l0.5-1.4c0.8,0.1,1.9,0.5,3,1.3c2.2,1.7,1.8,3.6,0.7,5.1l-1.9,2.5
		c-0.5,0.6-0.9,1.3-1.2,1.8L360.7,149.5z M363,145.8c-1.2-1-2.6-1.6-3.4-0.5c-0.5,0.7-0.3,1.3,0.3,1.8c0.7,0.5,1.6,0.5,2.1,0.1
		c0.1-0.1,0.2-0.2,0.3-0.3L363,145.8z"/>
	<path d="M372.9,144.8l-1.6,1.9l1.6,1.3l-1.1,1.3l-1.6-1.3l-2.5,3c-0.7,0.8-0.8,1.4-0.2,2c0.3,0.2,0.5,0.4,0.7,0.5l-1,1.3
		c-0.3-0.1-0.8-0.4-1.4-0.9s-1-1.2-1-1.8c0-0.7,0.3-1.5,1-2.3l2.6-3.2l-1-0.8l1.1-1.3l1,0.8l1.3-1.5L372.9,144.8z"/>
	<path d="M379.5,152.1l-2.5-2.4l1.3-1.3l6.6,6.4l-1.3,1.3l-2.5-2.4L374,161l-1.6-1.5L379.5,152.1z"/>
	<path d="M380.2,161.9c-1.1,1.1-0.8,2.5,0.2,3.5c0.7,0.7,1.3,1.2,2,1.5l-0.9,1.3c-0.7-0.3-1.6-0.9-2.5-1.9c-1.9-2.1-1.8-4.5,0.1-6.3
		c1.8-1.7,4.4-2.2,6.4-0.1c2,2.1,0.9,4.4-0.5,5.7c-0.3,0.3-0.6,0.5-0.7,0.6L380.2,161.9z M384,163.6c0.6-0.5,1.3-1.7,0.3-2.8
		c-0.9-1-2.2-0.6-2.9,0L384,163.6z"/>
	<path d="M390.1,165.4l-0.6,1.9c-0.2,0.5-0.3,1-0.5,1.5l0,0c0.5-0.1,1-0.2,1.6-0.3l1.9-0.3l1.5,1.9l-5.1,0.4l-1.6,5.2l-1.6-1.9
		l0.7-1.9c0.2-0.5,0.4-1,0.6-1.5l0,0c-0.5,0.1-1.1,0.2-1.6,0.3l-2,0.3l-1.6-1.9l5.4-0.5l1.4-5L390.1,165.4z"/>
	<path d="M398.7,172.1l-2,1.5l1.3,1.7l-1.3,1l-1.3-1.7l-3.1,2.3c-0.9,0.6-1.1,1.2-0.6,1.9c0.2,0.3,0.4,0.5,0.6,0.6l-1.3,1
		c-0.3-0.2-0.7-0.6-1.2-1.2c-0.5-0.7-0.7-1.4-0.6-2c0.1-0.7,0.6-1.3,1.5-2l3.3-2.5l-0.8-1l1.3-1l0.8,1l1.6-1.2L398.7,172.1z"/>
	<path d="M405.3,180l-10.1,6.7l-1.2-1.8l10.1-6.7L405.3,180z"/>
	<path d="M398.1,187.5c0,0.6,0.2,1.6,0.6,2.2c0.5,0.8,1.1,1,1.6,0.7s0.6-0.8,0.3-1.9c-0.4-1.8,0-2.9,0.9-3.4c1.3-0.8,3-0.3,4.1,1.4
		c0.5,0.8,0.7,1.7,0.8,2.3l-1.6,0.4c0-0.4-0.1-1.2-0.5-1.8c-0.4-0.7-1-0.8-1.4-0.6c-0.5,0.3-0.5,0.8-0.3,1.9c0.3,1.7,0,2.7-1.1,3.4
		c-1.4,0.8-3,0.4-4.2-1.6c-0.5-0.9-0.8-1.9-0.9-2.6L398.1,187.5z"/>
	<path d="M406.8,206.7c-0.6-0.6-1.6-1.8-2.3-3.2c-0.9-1.8-1.1-3.5-0.6-5c0.4-1.4,1.6-2.7,3.2-3.5c3.5-1.7,6.9-0.3,8.6,3.3
		c0.7,1.3,0.9,2.5,0.9,3.1l-1.8,0.3c0-0.7-0.2-1.6-0.8-2.7c-1.1-2.3-3.3-3.3-5.8-2c-2.5,1.2-3.2,3.5-2.1,5.7c0.4,0.7,0.7,1.2,1,1.4
		l2.7-1.3l-0.9-1.9l1.6-0.8l1.9,3.8L406.8,206.7z"/>
	<path d="M414.4,214.9c-3,1.2-5.2-0.4-6-2.4c-0.9-2.3-0.1-4.7,2.5-5.8c2.7-1.1,5,0,6,2.5C417.9,211.6,416.8,213.9,414.4,214.9z
		 M411.8,208.8c-1.6,0.6-2.4,1.9-1.9,3.1c0.5,1.2,1.9,1.5,3.6,0.9c1.3-0.5,2.5-1.7,1.9-3.1C414.8,208.3,413.2,208.2,411.8,208.8z"/>
	<path d="M410.7,218.2l8.3-2.9l0.7,2.1l-8.3,2.9L410.7,218.2z M422.1,216.7c-0.6,0.2-1.3-0.1-1.5-0.8s0.1-1.3,0.7-1.5
		s1.3,0.1,1.5,0.8C423.1,215.9,422.7,216.5,422.1,216.7z"/>
	<path d="M418.1,220.6c1-0.3,1.8-0.6,2.5-0.8l0.5,1.9l-1.2,0.5l0,0c0.8,0.2,1.8,0.9,2.2,2.3c0.4,1.5-0.1,3.3-2.7,4l-5,1.5l-0.6-2.1
		l4.7-1.4c1.2-0.4,2-1.1,1.7-2.2c-0.2-0.8-1-1.3-1.7-1.3c-0.2,0-0.5,0-0.7,0.1l-4.9,1.5l-0.6-2.1L418.1,220.6z"/>
	<path d="M425.3,238c-0.6,0.1-1.3,0.2-2.5,0.5l-4.9,1.1c-1.8,0.4-3.2,0.3-4.2-0.4s-1.5-1.9-1.8-3.1c-0.2-1.1-0.3-2.3,0-3.1l1.8,0.1
		c-0.2,0.6-0.3,1.6-0.1,2.6c0.3,1.4,1.3,2.3,3.1,1.9l0.7-0.2l0,0c-0.9-0.3-1.6-1.1-1.8-2.2c-0.5-2.1,1-4,3.4-4.6
		c2.8-0.6,4.9,0.8,5.4,2.9c0.3,1.3-0.2,2.2-0.8,2.8l0,0l1.2-0.2L425.3,238z M421.4,236.5c0.2,0,0.4-0.1,0.6-0.2
		c0.7-0.4,1.2-1.2,1-2.1c-0.3-1.2-1.5-1.9-3.3-1.5c-1.5,0.3-2.5,1.3-2.2,2.7c0.2,0.8,0.9,1.4,1.7,1.5c0.2,0,0.5,0,0.8-0.1
		L421.4,236.5z"/>
	<path d="M430,246.4l-4.8,0.6l0.6,5.1l4.8-0.6l0.3,2.2l-12,1.5l-0.3-2.2l5.3-0.6l-0.6-5.1l-5.3,0.6l-0.3-2.2l12-1.5L430,246.4z"/>
	<path d="M422.9,258.7c-1.6,0.1-2.2,1.4-2.1,2.8c0.1,1,0.2,1.7,0.5,2.4l-1.5,0.4c-0.4-0.7-0.6-1.8-0.7-3c-0.1-2.8,1.5-4.6,4.2-4.7
		c2.4-0.1,4.8,1.2,4.9,4s-2.1,3.9-4.1,4c-0.4,0-0.7,0-0.9,0L422.9,258.7z M424.6,262.5c0.8,0,2.1-0.5,2-1.9s-1.3-1.9-2.2-1.9
		L424.6,262.5z"/>
	<path d="M425.3,266.3c1.2,0,2-0.1,2.8-0.1v1.9l-1.7,0.1v0.1c1.2,0.4,1.9,1.4,1.9,2.4c0,0.2,0,0.3,0,0.5h-2.1c0-0.2,0.1-0.4,0.1-0.7
		c0-1.1-0.7-1.8-1.7-2c-0.2,0-0.4,0-0.7,0l-4.5,0.1v-2.2L425.3,266.3z"/>
	<path d="M423.1,274.3c-1.6,0-2.3,1.2-2.4,2.6c0,1,0.1,1.8,0.3,2.4l-1.5,0.3c-0.3-0.8-0.5-1.8-0.4-3.1c0.1-2.8,2-4.4,4.7-4.3
		c2.4,0.1,4.6,1.7,4.5,4.5s-2.5,3.7-4.4,3.6c-0.4,0-0.7-0.1-0.9-0.1L423.1,274.3z M424.4,278.2c0.8,0,2.1-0.2,2.2-1.7
		c0.1-1.4-1.1-2-2-2.1L424.4,278.2z"/>
	<path d="M420.1,281.3c0.8,0.1,1.4,0.7,1.3,1.5s-0.7,1.3-1.5,1.2c-0.8-0.1-1.4-0.7-1.3-1.5C418.6,281.7,419.3,281.2,420.1,281.3z"/>
	<path d="M426.5,308.7l-11.8-2.9l0.5-2.2l11.8,2.9L426.5,308.7z"/>
	<path d="M424.7,315.3l-2.2,6.7l-1.7-0.6l1.5-4.6l-3.2-1l-1.4,4.2l-1.7-0.6l1.4-4.2l-4.9-1.6l0.7-2.1L424.7,315.3z"/>
	<path d="M411.6,329c-3-1.2-3.5-3.8-2.7-5.9c0.9-2.3,3.2-3.5,5.8-2.4c2.7,1,3.6,3.5,2.7,5.9S414.1,329.9,411.6,329z M414,322.8
		c-1.6-0.6-3.1-0.3-3.5,0.9c-0.5,1.2,0.4,2.5,2,3.1c1.3,0.5,3,0.5,3.5-0.9S415.3,323.3,414,322.8z"/>
	<path d="M412.2,331.3c1.1,0.5,1.9,0.8,2.6,1.1l-0.8,1.7l-1.5-0.6v0.1c0.9,0.9,1.1,2.1,0.7,3c-0.1,0.2-0.2,0.3-0.3,0.5l-1.9-0.9
		c0.1-0.2,0.2-0.3,0.3-0.6c0.4-1,0.1-1.9-0.7-2.5c-0.2-0.1-0.4-0.2-0.6-0.3l-4.1-1.9l0.9-2L412.2,331.3z"/>
	<path d="M408.3,345.6c-0.5-0.3-1.1-0.7-2.2-1.2l-4.4-2.3c-1.6-0.9-2.6-1.8-2.9-3s0.1-2.4,0.6-3.5c0.5-1,1.3-1.9,2-2.4l1.3,1.2
		c-0.6,0.3-1.3,1-1.8,2c-0.7,1.3-0.5,2.6,1.2,3.5l0.7,0.3l0,0c-0.4-0.8-0.5-1.8,0-2.9c1-1.9,3.3-2.5,5.5-1.3
		c2.6,1.3,3.2,3.8,2.3,5.7c-0.6,1.2-1.6,1.6-2.4,1.6l0,0l1,0.6L408.3,345.6z M406.2,341.9c0.2,0.1,0.4,0.2,0.6,0.2
		c0.8,0.2,1.7-0.1,2.1-0.9c0.6-1.1,0-2.4-1.5-3.2c-1.3-0.7-2.7-0.6-3.4,0.6c-0.4,0.7-0.2,1.6,0.4,2.2c0.2,0.2,0.4,0.3,0.6,0.4
		L406.2,341.9z"/>
	<path d="M401.9,346.6c-1.4-0.8-2.6-0.1-3.4,1.1c-0.5,0.9-0.8,1.6-0.9,2.3l-1.5-0.5c0.1-0.8,0.5-1.8,1.1-2.9
		c1.5-2.4,3.8-2.9,6.1-1.5c2.1,1.3,3.3,3.7,1.8,6.1s-4,2-5.6,1c-0.4-0.2-0.6-0.4-0.8-0.6L401.9,346.6z M401.2,350.7
		c0.7,0.4,2,0.8,2.8-0.5c0.7-1.2-0.1-2.3-0.8-2.8L401.2,350.7z"/>
	<path d="M402.5,359.5l-2.1-1.4l-1.2,1.7l-1.4-0.9l1.2-1.7l-3.2-2.2c-0.9-0.6-1.5-0.7-2,0c-0.2,0.3-0.3,0.6-0.4,0.8l-1.4-0.9
		c0.1-0.3,0.3-0.9,0.7-1.5c0.5-0.7,1.1-1.1,1.7-1.2c0.7-0.1,1.5,0.2,2.4,0.8l3.4,2.3l0.7-1l1.4,0.9l-0.7,1l1.6,1.1L402.5,359.5z"/>
	<path d="M388.2,360.2l11.3,5.4l-1.5,1.8l-5-2.6c-1.3-0.7-2.7-1.5-3.8-2.1l0,0c0.9,1,1.8,2.1,2.7,3.4l3.4,4.5l-1.5,1.8l-5.1-2.6
		c-1.3-0.7-2.5-1.3-3.6-2l0,0c0.9,1,1.8,2.1,2.7,3.3l3.4,4.5l-1.4,1.7l-7.3-10.2l1.5-1.8l5.2,2.7c1.3,0.6,2.3,1.2,3.4,1.9l0,0
		c-0.9-1-1.6-1.9-2.5-3.1l-3.5-4.7L388.2,360.2z"/>
	<path d="M388.8,379.2l-1.5,1.6l-3.7-3.6l0,0c0.1,0.5,0.1,1,0,1.5s-0.4,1-0.8,1.4c-1,1.1-2.8,1.5-4.9-0.5l-3.7-3.6l1.5-1.6l3.5,3.4
		c0.9,0.9,1.9,1.2,2.8,0.4c0.6-0.6,0.6-1.5,0.3-2.1c-0.1-0.2-0.2-0.4-0.4-0.5l-3.8-3.7l1.5-1.6L388.8,379.2z"/>
	<path d="M368.9,380.8l0.8,0.6l0,0c-0.1-0.9,0.3-1.8,1.1-2.6c1.3-1.2,2.9-0.9,3.8,0.1c1.5,1.6,0.8,3.8-1.6,5.9l0.1,0.1
		c0.4,0.4,1.2,1,2.3-0.1c0.6-0.6,1.1-1.4,1.3-2.1l1.3,0.8c-0.2,0.7-0.8,1.8-1.8,2.7c-2.1,1.9-3.9,1.1-5.2-0.3l-2.1-2.3
		c-0.5-0.6-1.1-1.1-1.5-1.5L368.9,380.8z M372,383.7c1.2-1,2.1-2.3,1.2-3.3c-0.6-0.6-1.3-0.6-1.8-0.1c-0.7,0.6-0.7,1.4-0.5,2.1
		c0.1,0.1,0.2,0.3,0.3,0.4L372,383.7z"/>
	<path d="M371.1,393.7l-1.6-1.9l-1.6,1.3l-1-1.3l1.6-1.3l-2.4-3c-0.7-0.8-1.2-1.1-1.9-0.5c-0.3,0.2-0.5,0.5-0.6,0.6l-1.1-1.3
		c0.2-0.3,0.6-0.8,1.1-1.2c0.6-0.5,1.3-0.7,1.9-0.6c0.7,0.1,1.4,0.6,2.1,1.5l2.6,3.2l1-0.8l1,1.3l-1,0.8l1.3,1.5L371.1,393.7z"/>
	<path d="M362.7,398.8l2.8-2l1.1,1.5l-7.5,5.3l-1.1-1.5l2.9-2l-5.9-8.4l1.8-1.3L362.7,398.8z"/>
	<path d="M353,397.6c-0.9-1.3-2.3-1.2-3.5-0.5c-0.9,0.5-1.4,1.1-1.8,1.6l-1.1-1.1c0.5-0.7,1.2-1.4,2.3-2.1c2.4-1.5,4.8-0.9,6.2,1.3
		c1.3,2,1.3,4.8-1.1,6.3s-4.4,0-5.5-1.6c-0.2-0.3-0.4-0.6-0.4-0.8L353,397.6z M350.6,401c0.4,0.7,1.4,1.6,2.7,0.8
		c1.2-0.7,1-2.1,0.6-2.9L350.6,401z"/>
	<path d="M347.6,406.7l-1.7-0.9c-0.5-0.3-0.9-0.5-1.4-0.8l0,0c0,0.6,0,1.1,0,1.6l-0.1,1.9l-2.1,1.2l0.5-5.1l-4.8-2.5l2.2-1.2l1.8,1
		c0.5,0.3,0.9,0.6,1.4,0.9l0,0c0-0.6,0-1.1,0-1.6v-2l2.1-1.2l-0.5,5.4l4.6,2.3L347.6,406.7z"/>
	<path d="M339.5,413.8l-1.1-2.3l-1.9,0.9l-0.7-1.5l1.9-0.9l-1.7-3.5c-0.5-1-1-1.3-1.7-1c-0.3,0.2-0.6,0.3-0.7,0.5l-0.8-1.5
		c0.2-0.3,0.7-0.6,1.3-0.9c0.7-0.4,1.5-0.4,2-0.2c0.6,0.2,1.2,0.9,1.7,1.9l1.8,3.7l1.1-0.5l0.7,1.5l-1.1,0.5l0.9,1.8L339.5,413.8z"
		/>
	<path d="M330.4,418.8l-4.6-11.2l2-0.8l4.6,11.2L330.4,418.8z"/>
	<path d="M324.4,410.3c-0.6-0.1-1.6-0.1-2.3,0.2c-0.9,0.3-1.2,0.9-1,1.4c0.2,0.6,0.6,0.7,1.8,0.7c1.8,0,2.8,0.6,3.2,1.6
		c0.5,1.4-0.3,3-2.2,3.7c-0.9,0.3-1.8,0.4-2.4,0.3l-0.1-1.6c0.4,0.1,1.2,0.1,1.9-0.2c0.7-0.3,1-0.8,0.8-1.3s-0.7-0.6-1.9-0.6
		c-1.7,0-2.7-0.5-3.1-1.7c-0.6-1.5,0.2-3,2.4-3.8c1-0.4,2-0.5,2.7-0.3L324.4,410.3z"/>
	<path d="M303.9,415.2c0.7-0.5,2-1.2,3.6-1.7c2-0.5,3.6-0.4,5,0.3c1.3,0.7,2.3,2.1,2.8,3.9c1,3.7-1,6.8-4.9,7.9
		c-1.4,0.4-2.6,0.4-3.3,0.3V424c0.7,0.1,1.6,0.1,2.8-0.2c2.5-0.7,3.9-2.6,3.1-5.4c-0.7-2.7-2.8-3.8-5.2-3.1
		c-0.8,0.2-1.3,0.5-1.6,0.7l0.8,2.9l2.1-0.6l0.5,1.7l-4.1,1.1L303.9,415.2z"/>
	<path d="M294.4,421c-0.6-3.2,1.3-5,3.5-5.4c2.4-0.5,4.6,0.8,5.2,3.6c0.5,2.8-1,4.9-3.6,5.4C297,425.1,294.9,423.6,294.4,421z
		 M300.9,419.7c-0.3-1.7-1.4-2.7-2.7-2.5c-1.2,0.2-1.9,1.6-1.5,3.3c0.3,1.4,1.2,2.8,2.7,2.5C300.8,422.7,301.2,421.1,300.9,419.7z"
		/>
	<path d="M291.9,416.8l1.2,8.7l-2.2,0.3l-1.2-8.7L291.9,416.8z M291.2,428.3c-0.1-0.7,0.3-1.3,1.1-1.4c0.7-0.1,1.3,0.4,1.4,1
		c0.1,0.7-0.3,1.3-1.1,1.4S291.3,428.9,291.2,428.3z"/>
	<path d="M288,423.6c0.1,1,0.2,1.8,0.3,2.6l-1.9,0.2l-0.2-1.3h-0.1c-0.3,0.7-1.2,1.6-2.6,1.8c-1.5,0.1-3.2-0.7-3.5-3.5l-0.5-5.2
		l2.2-0.2l0.5,4.9c0.1,1.3,0.7,2.2,1.9,2.1c0.9-0.1,1.4-0.8,1.6-1.5c0.1-0.2,0.1-0.5,0-0.7l-0.5-5.1l2.2-0.2L288,423.6z"/>
	<path d="M269.7,427.3c0-0.6,0-1.3,0-2.5l-0.1-5c0-1.8,0.3-3.2,1.2-4c0.9-0.8,2.2-1.1,3.4-1.2c1.1,0,2.3,0.2,3.1,0.6l-0.4,1.7
		c-0.6-0.3-1.5-0.6-2.6-0.6c-1.4,0-2.5,0.8-2.4,2.7v0.7l0,0c0.5-0.8,1.4-1.3,2.5-1.4c2.2-0.1,3.8,1.7,3.8,4.2
		c0.1,2.9-1.7,4.7-3.8,4.7c-1.3,0-2.1-0.6-2.6-1.3l0,0v1.2L269.7,427.3z M271.9,423.7c0,0.2,0,0.4,0.1,0.6c0.3,0.8,0.9,1.4,1.8,1.4
		c1.2,0,2.1-1.1,2.1-2.9c0-1.5-0.8-2.7-2.2-2.6c-0.8,0-1.5,0.6-1.8,1.4c-0.1,0.2-0.1,0.5-0.1,0.8L271.9,423.7z"/>
	<path d="M260.5,430.4l0.3-4.8l-5.1-0.4l-0.3,4.8l-2.2-0.2l0.8-12.1l2.2,0.2l-0.4,5.3l5.1,0.4l0.4-5.3l2.2,0.2l-0.8,12.1
		L260.5,430.4z"/>
	<path d="M249.8,421c0.2-1.6-1-2.4-2.4-2.6c-1-0.1-1.8-0.1-2.5,0.1l-0.1-1.6c0.8-0.2,1.8-0.3,3.1-0.1c2.8,0.4,4.2,2.4,3.9,5
		c-0.3,2.4-2.1,4.5-4.9,4.1c-2.8-0.4-3.4-2.8-3.1-4.7c0.1-0.4,0.1-0.7,0.2-0.9L249.8,421z M245.8,422c-0.1,0.8,0,2.2,1.5,2.4
		c1.4,0.2,2.1-1,2.3-1.8L245.8,422z"/>
	<path d="M241.7,422c-0.2,1.2-0.4,2-0.5,2.8l-1.9-0.4l0.2-1.7h-0.1c-0.7,1.1-1.8,1.6-2.7,1.4c-0.2,0-0.3-0.1-0.5-0.1l0.4-2
		c0.2,0.1,0.4,0.1,0.6,0.2c1,0.2,1.9-0.3,2.3-1.3c0.1-0.2,0.1-0.4,0.2-0.6l0.9-4.5l2.2,0.4L241.7,422z"/>
	<path d="M234.4,418.3c0.3-1.6-0.7-2.5-2.1-2.9c-1-0.2-1.7-0.3-2.4-0.2v-1.6c0.8-0.1,1.9-0.1,3.1,0.2c2.8,0.7,4,2.8,3.3,5.4
		c-0.6,2.3-2.5,4.2-5.3,3.6c-2.8-0.7-3.1-3.2-2.7-5c0.1-0.4,0.2-0.7,0.3-0.9L234.4,418.3z M230.3,418.9c-0.2,0.8-0.2,2.2,1.3,2.5
		c1.3,0.3,2.2-0.7,2.5-1.6L230.3,418.9z"/>
	<path d="M228.1,414c-0.2,0.8-0.9,1.2-1.7,1s-1.1-0.9-0.9-1.8c0.2-0.8,0.9-1.2,1.7-1C228,412.5,228.4,413.2,228.1,414z"/>
	<path d="M189.5,409.6l5.9-10.6l1.9,1.1l-5.9,10.6L189.5,409.6z"/>
	<path d="M183.6,406.1l-5.9-3.8l1-1.5l4,2.6l1.8-2.8l-3.7-2.4l1-1.5l3.7,2.4l2.8-4.3l1.9,1.2L183.6,406.1z"/>
	<path d="M173.9,390c1.9-2.6,4.6-2.4,6.4-1.1c2,1.5,2.5,4,0.8,6.2c-1.7,2.3-4.3,2.6-6.4,1C172.6,394.6,172.3,392.1,173.9,390z
		 M179.2,393.8c1-1.4,1.1-2.9,0-3.7c-1-0.8-2.5-0.3-3.5,1.1c-0.8,1.1-1.3,2.7,0,3.6C176.9,395.8,178.4,395,179.2,393.8z"/>
	<path d="M171.5,389.9c-0.7,0.9-1.3,1.6-1.7,2.2l-1.5-1.2l1-1.3l0,0c-1.1,0.7-2.3,0.5-3-0.1c-0.2-0.1-0.3-0.2-0.4-0.4l1.3-1.6
		c0.1,0.2,0.3,0.3,0.5,0.5c0.8,0.7,1.8,0.6,2.6,0c0.2-0.1,0.3-0.3,0.5-0.5l2.9-3.5l1.7,1.4L171.5,389.9z"/>
	<path d="M158.7,382.4c0.4-0.4,0.9-0.9,1.8-1.8l3.4-3.7c1.2-1.3,2.4-2.1,3.6-2c1.2,0,2.3,0.7,3.2,1.5c0.8,0.8,1.5,1.7,1.8,2.6
		l-1.5,0.9c-0.2-0.6-0.6-1.5-1.4-2.2c-1.1-1-2.4-1.1-3.6,0.2l-0.5,0.5l0,0c0.9-0.2,1.9,0,2.7,0.8c1.6,1.5,1.5,3.8-0.2,5.7
		c-2,2.1-4.5,2.1-6.1,0.7c-1-0.9-1.1-1.9-0.9-2.7l0,0l-0.8,0.8L158.7,382.4z M162.8,381.4c-0.1,0.2-0.3,0.3-0.4,0.5
		c-0.4,0.8-0.3,1.6,0.4,2.3c0.9,0.8,2.3,0.7,3.5-0.6c1-1.1,1.3-2.5,0.3-3.4c-0.6-0.6-1.5-0.6-2.2-0.2c-0.2,0.1-0.4,0.3-0.6,0.5
		L162.8,381.4z"/>
	<path d="M159.4,376c1.1-1.1,0.8-2.5-0.2-3.5c-0.7-0.7-1.3-1.2-2-1.5l0.9-1.3c0.7,0.3,1.6,0.9,2.5,1.8c2,2.1,1.8,4.5-0.1,6.3
		c-1.8,1.7-4.4,2.2-6.4,0.1s-0.9-4.3,0.5-5.7c0.3-0.3,0.6-0.5,0.7-0.6L159.4,376z M155.6,374.2c-0.6,0.6-1.3,1.7-0.3,2.8
		c0.9,1,2.2,0.5,2.9,0L155.6,374.2z"/>
	<path d="M146.8,373.2l1.9-1.6l-1.4-1.6l1.3-1.1l1.4,1.6l2.9-2.5c0.8-0.7,1-1.3,0.5-1.9c-0.2-0.3-0.5-0.5-0.6-0.6l1.2-1.1
		c0.3,0.2,0.8,0.5,1.2,1.1c0.5,0.6,0.8,1.3,0.7,1.9c-0.1,0.7-0.5,1.4-1.4,2.1l-3.1,2.7l0.8,0.9l-1.3,1.1l-0.8-0.9l-1.5,1.3
		L146.8,373.2z"/>
	<path d="M149.8,359.2l-8.2,9.5l-1.4-1.9l3.8-4.1c1-1.1,2.1-2.2,3-3.1l0,0c-1.1,0.6-2.5,1.1-4,1.8l-5.2,2.1l-1.4-1.9l3.9-4.2
		c1-1.1,1.9-2.1,2.9-3l0,0c-1.2,0.6-2.5,1.2-3.9,1.8l-5.2,2.2l-1.3-1.8l11.8-4.4l1.4,1.9l-3.9,4.3c-0.9,1-1.8,1.9-2.7,2.8l0,0
		c1.2-0.6,2.3-1.1,3.6-1.6l5.5-2.2L149.8,359.2z"/>
	<path d="M131.3,354.8l-1.1-1.9l4.5-2.7l0,0c-0.5,0-1-0.2-1.4-0.4c-0.4-0.2-0.8-0.6-1.1-1.1c-0.8-1.3-0.7-3.1,1.7-4.6l4.4-2.6
		l1.1,1.9l-4.2,2.5c-1.1,0.6-1.7,1.5-1.1,2.6c0.4,0.7,1.3,1,1.9,0.8c0.2,0,0.4-0.1,0.6-0.3l4.5-2.7l1.1,1.9L131.3,354.8z"/>
	<path d="M135,335.2l-0.8,0.6l0,0c0.9,0.2,1.7,0.8,2.2,1.8c0.8,1.6,0.1,3-1.1,3.6c-2,1-3.9-0.2-5.3-3.1l-0.1,0.1
		c-0.5,0.3-1.3,0.9-0.6,2.3c0.4,0.8,1,1.4,1.7,1.8l-1.1,1c-0.7-0.4-1.5-1.2-2.1-2.5c-1.3-2.5-0.1-4,1.7-4.9l2.8-1.4
		c0.7-0.4,1.4-0.7,1.8-1.1L135,335.2z M131.3,337.4c0.7,1.4,1.7,2.6,2.9,2c0.8-0.4,0.9-1.1,0.6-1.7c-0.4-0.8-1.2-1.1-1.9-1
		c-0.2,0-0.3,0.1-0.5,0.2L131.3,337.4z"/>
	<path d="M122,334l2.3-1l-0.9-1.9l1.5-0.7l0.9,1.9l3.5-1.6c1-0.4,1.4-0.9,1-1.7c-0.2-0.3-0.3-0.6-0.4-0.7l1.5-0.7
		c0.2,0.3,0.6,0.7,0.9,1.4c0.3,0.7,0.4,1.5,0.1,2c-0.3,0.6-0.9,1.2-2,1.6l-3.8,1.7l0.5,1.1l-1.5,0.7l-0.5-1.1l-1.8,0.8L122,334z"/>
	<path d="M119.2,324.5l1.2,3.3l-1.7,0.6l-3.2-8.6l1.7-0.6l1.2,3.3l9.6-3.5l0.8,2.1L119.2,324.5z"/>
	<path d="M122.9,315.5c1.5-0.5,1.8-1.9,1.4-3.3c-0.3-1-0.7-1.6-1.1-2.2l1.4-0.8c0.5,0.6,1.1,1.5,1.4,2.8c0.8,2.7-0.4,4.8-2.9,5.6
		c-2.3,0.7-4.9,0-5.8-2.7c-0.8-2.7,1.1-4.3,3-4.9c0.4-0.1,0.7-0.2,0.9-0.2L122.9,315.5z M120.3,312.2c-0.8,0.2-1.9,1-1.5,2.4
		c0.4,1.3,1.8,1.5,2.6,1.3L120.3,312.2z"/>
	<path d="M115.6,307.9l1.4-1.4c0.4-0.4,0.8-0.7,1.1-1.1l0,0c-0.5-0.1-1-0.3-1.5-0.4l-1.8-0.6l-0.6-2.3l4.8,1.9l3.7-4l0.6,2.4
		l-1.4,1.4c-0.4,0.4-0.8,0.7-1.2,1.1l0,0c0.5,0.1,1,0.3,1.6,0.4l1.9,0.6l0.6,2.4l-5.1-1.9l-3.5,3.9L115.6,307.9z"/>
	<path d="M110.8,298.1l2.5-0.5l-0.4-2.1l1.6-0.3l0.4,2.1l3.8-0.7c1.1-0.2,1.5-0.6,1.4-1.4c-0.1-0.4-0.2-0.6-0.3-0.8l1.6-0.4
		c0.2,0.3,0.4,0.9,0.5,1.5c0.2,0.8,0,1.5-0.4,2c-0.4,0.6-1.2,0.9-2.3,1.1l-4,0.8l0.2,1.2l-1.6,0.3l-0.2-1.2l-1.9,0.4L110.8,298.1z"
		/>
	<path d="M108.4,288.1l12-1.5l0.3,2.2l-12,1.5L108.4,288.1z"/>
	<path d="M118.2,284.5c0.3-0.5,0.5-1.5,0.4-2.3c-0.1-1-0.5-1.4-1.1-1.3s-0.9,0.4-1.1,1.5c-0.4,1.8-1.3,2.6-2.3,2.6
		c-1.5,0.1-2.8-1-3-3.1c-0.1-1,0.1-1.8,0.3-2.4l1.6,0.3c-0.2,0.4-0.4,1.1-0.3,1.9s0.5,1.2,1,1.1c0.6,0,0.8-0.5,1.1-1.6
		c0.4-1.6,1.2-2.4,2.5-2.6c1.6-0.1,2.8,1,3,3.3c0.1,1.1-0.1,2-0.4,2.7L118.2,284.5z"/>
	<path d="M118.8,263.6c0.3,0.8,0.7,2.3,0.7,3.9c0,2-0.5,3.6-1.5,4.8c-1,1.1-2.6,1.7-4.4,1.8c-3.8,0.1-6.3-2.6-6.4-6.7
		c0-1.5,0.3-2.7,0.5-3.2l1.8,0.5c-0.3,0.7-0.5,1.5-0.5,2.8c0,2.6,1.6,4.4,4.4,4.3c2.8,0,4.4-1.8,4.3-4.3c0-0.8-0.1-1.4-0.3-1.7h-3
		v2.1h-1.7l-0.1-4.3L118.8,263.6z"/>
	<path d="M115.6,252.8c3.2,0.2,4.5,2.6,4.3,4.8c-0.2,2.5-2,4.3-4.8,4.1c-2.9-0.2-4.5-2.2-4.3-4.9C111,254.2,113,252.6,115.6,252.8z
		 M115.3,259.4c1.7,0.1,3-0.6,3.1-2c0.1-1.3-1.1-2.2-2.8-2.4c-1.4-0.1-3,0.4-3.1,1.9C112.3,258.5,113.8,259.3,115.3,259.4z"/>
	<path d="M109.5,247.8c0.7,0.1,1.1,0.6,1,1.4c-0.1,0.7-0.7,1.1-1.3,1.1c-0.7-0.1-1.1-0.6-1-1.4C108.2,248.1,108.8,247.7,109.5,247.8
		z M120.3,251.5l-8.7-1l0.3-2.2l8.7,1L120.3,251.5z"/>
	<path d="M114.8,246c-1-0.2-1.8-0.3-2.6-0.4l0.3-1.9l1.3,0.1v-0.1c-0.6-0.5-1.3-1.6-1-3c0.3-1.5,1.5-2.9,4.2-2.4l5.1,0.9l-0.4,2.2
		l-4.9-0.8c-1.2-0.2-2.3,0.1-2.5,1.3c-0.1,0.9,0.4,1.6,1,1.9c0.2,0.1,0.4,0.2,0.7,0.2l5.1,0.9l-0.4,2.2L114.8,246z"/>
	<path d="M116,227.3c0.6,0.2,1.3,0.4,2.4,0.7l4.8,1.2c1.8,0.4,3,1.1,3.6,2.2c0.6,1.1,0.5,2.4,0.2,3.5s-0.8,2.2-1.4,2.8l-1.5-0.9
		c0.5-0.5,1-1.3,1.3-2.3c0.3-1.4-0.2-2.6-2-3.1l-0.7-0.2l0,0c0.6,0.7,0.9,1.7,0.7,2.8c-0.5,2.1-2.6,3.2-5,2.6
		c-2.8-0.7-4.1-2.9-3.6-4.9c0.3-1.3,1.1-1.9,1.9-2.2l0,0l-1.1-0.4L116,227.3z M118.9,230.3c-0.2,0-0.4-0.1-0.6-0.1
		c-0.8,0-1.6,0.5-1.8,1.4c-0.3,1.2,0.5,2.3,2.3,2.8c1.4,0.3,2.8-0.1,3.1-1.5c0.2-0.8-0.2-1.6-0.9-2.1c-0.2-0.1-0.5-0.2-0.7-0.3
		L118.9,230.3z"/>
	<path d="M115.4,217.6l4.6,1.6l1.7-4.8l-4.6-1.6l0.7-2.1l11.5,4l-0.7,2.1l-5.1-1.8l-1.7,4.8l5.1,1.8l-0.7,2.1l-11.5-4L115.4,217.6z"
		/>
	<path d="M127.2,209.7c1.5,0.6,2.6-0.3,3.2-1.6c0.4-0.9,0.5-1.7,0.6-2.4l1.5,0.3c0,0.8-0.2,1.9-0.7,3c-1.1,2.6-3.4,3.5-5.9,2.4
		c-2.2-1-3.7-3.2-2.6-5.8s3.6-2.5,5.4-1.8c0.4,0.2,0.7,0.3,0.8,0.4L127.2,209.7z M127.3,205.6c-0.7-0.3-2.1-0.5-2.7,0.8
		c-0.5,1.3,0.4,2.3,1.2,2.7L127.3,205.6z"/>
	<path d="M128.4,201.7c-1.1-0.5-1.8-0.9-2.6-1.2l0.8-1.7l1.5,0.7v-0.1c-0.9-0.9-1-2.1-0.6-3c0.1-0.2,0.2-0.3,0.3-0.4l1.9,0.9
		c-0.1,0.2-0.2,0.3-0.3,0.6c-0.5,0.9-0.2,1.9,0.6,2.5c0.2,0.1,0.4,0.2,0.6,0.3l4.1,2l-1,2L128.4,201.7z"/>
	<path d="M133.9,195.6c1.4,0.7,2.6,0,3.3-1.3c0.5-0.9,0.7-1.6,0.8-2.3l1.5,0.5c-0.1,0.8-0.4,1.8-1,2.9c-1.4,2.5-3.7,3.1-6.1,1.8
		c-2.1-1.2-3.4-3.6-2-6c1.4-2.5,3.9-2.2,5.6-1.2c0.4,0.2,0.6,0.4,0.8,0.5L133.9,195.6z M134.5,191.5c-0.7-0.4-2-0.7-2.8,0.6
		c-0.7,1.2,0.1,2.3,0.9,2.8L134.5,191.5z"/>
	<path d="M139.7,190.7c-0.7-0.4-0.9-1.2-0.5-1.9s1.2-0.9,1.9-0.4c0.7,0.4,0.9,1.2,0.5,1.9C141.2,190.9,140.4,191.1,139.7,190.7z"/>
</g>
</svg>
