<?xml version="1.0" encoding="utf-8"?>
<!-- Generator: Adobe Illustrator 22.1.0, SVG Export Plug-In . SVG Version: 6.00 Build 0)  -->
<svg version="1.1" id="logo_1_" xmlns="http://www.w3.org/2000/svg" xmlns:xlink="http://www.w3.org/1999/xlink" x="0px" y="0px"
	 viewBox="0 0 560 560" style="enable-background:new 0 0 560 560;" xml:space="preserve">
<title>Asset 1</title>
<g id="logo_x5F_layer">
	<g id="Layer_1-2">
		<path d="M248.5,220.9v31.4h-28.1v38.4h-10.3v-38.3h-1.4c-4.6,0-9.2,0-13.8,0c-0.9,0-1.2-0.3-1.2-1.5c0.1-3,0-5.9,0-9.1h47v-10.3
			c-0.4,0-0.9-0.1-1.3-0.1c-26.3,0-52.7,0-79,0c-1.1,0-1.3,0.5-1.3,1.8c0,11,0,21.9,0,32.9c0,1.5-0.3,1.9-1.4,1.8
			c-2.2-0.1-4.3-0.1-6.5-0.1v-47.1h97.3V220.9z"/>
		<path d="M151.2,280.3c8.1,0,16.3,0.1,24.4,0c3,0,4.5-2,4.5-5.9c0.1-6.9,0-13.9,0-20.8c0-0.4-0.1-0.7-0.1-1.1h-8.7v-10.6h19.2v2
			c0,11.5-0.1,23,0,34.5c0,5.2-2.4,9.2-5.5,10.8c-2,1.1-4.1,1.6-6.2,1.6c-6.1-0.1-12.2,0-18.3-0.1c-1.1,0-1.4,0.5-1.3,1.9
			c0.1,1.8,0.1,3.5,0,5.3c0,1.1,0.3,1.4,1,1.4c0.7-0.1,1.4,0,2.1,0h78.5v-36.4h7.8v46.9h-95.7c-0.5,0-1,0-1.6,0.1L151.2,280.3z"/>
		<path d="M344,309.8v-39.6c0.4,0,0.6-0.1,0.9-0.1c4.2,0.1,8.4,0,12.6,0.3c3.2,0.2,5.6,2.4,6.8,6.6c1.1,4,0.1,8.2-2.5,10.7
			c-0.3,0.3-0.7,0.6-1.1,1c0.2,0.2,0.4,0.3,0.6,0.5c5,2.5,5.8,9.7,3.7,14.9c-1.4,3.6-3.9,4.9-6.6,5.5c-0.9,0.2-1.8,0.3-2.7,0.3
			C351.9,309.8,348,309.8,344,309.8z M347.7,305.4c3.5-0.2,7-0.1,10.5-0.6c2.8-0.4,4.1-3.1,4-7c-0.1-3.3-1.7-5.7-4.4-6.1
			c-1.9-0.3-3.8-0.3-5.7-0.3c-1.4,0-2.9,0-4.4,0V305.4z M347.7,280.7c0,1.7,0,3.4,0,5.1c0,0.7,0.2,1.1,0.8,1.1
			c2.8-0.1,5.7,0,8.5-0.3c2.5-0.2,4-2.4,4-5.6c0.1-3.3-1.2-5.8-3.7-6.1c-3-0.4-6-0.3-9-0.3c-0.2,0-0.6,0.7-0.6,1
			C347.6,277.4,347.7,279,347.7,280.7L347.7,280.7z"/>
		<path d="M310.3,309.8c-1.7,0-3,0.1-4.3,0c-0.4,0-0.8-0.6-1.1-1c-1.9-3.8-3.8-7.6-5.6-11.5c-1.7-3.7-4.1-5.6-7.4-5.2
			c-1.2,0.2-2.5,0-3.8,0v17.6h-3.7v-21.8c0.4,0,0.8-0.1,1.3-0.1c4,0,7.9,0,11.9-0.1c0.7,0,1.4-0.1,2.1-0.3c2.9-0.8,4.4-3.2,4.2-6.9
			c-0.1-3.2-1.9-5.7-4.7-5.8c-3.9-0.2-7.8-0.2-11.7-0.2c-0.2,0-0.4,0-0.7,0c-2.9,0-2.9,0-2.4-4c0.1-0.1,0.3-0.1,0.4-0.1
			c5.2,0.1,10.4,0,15.6,0.3c3.3,0.1,5.7,2.2,6.9,6.5c1.1,4.1,0.7,7.9-1.6,11.2c-1.4,1.9-3.2,2.8-5.1,3.3c-0.3,0.1-0.5,0.2-1,0.3
			C304.9,296.1,306.7,303.5,310.3,309.8z"/>
		<path d="M314.3,270.2h3.7v1.8c0,7.5,0,15,0,22.5c0,1.4,0.1,2.8,0.3,4.2c0.5,3.9,2.3,6.4,5.3,6.9c1.5,0.3,3.1,0.2,4.6-0.1
			c3.3-0.8,4.7-3,5.2-7.7c0.1-1.4,0.2-2.9,0.2-4.4c0-7.1,0-14.3,0-21.4v-1.9h3.7c0,0.5,0.1,1.1,0.1,1.6c0,7.7,0,15.5,0,23.2
			c0,1.6-0.2,3.2-0.4,4.8c-0.7,5.5-3.3,8.8-7.2,10.1c-2.7,0.9-5.6,0.8-8.3-0.2c-4.2-1.5-6.3-5.4-6.8-11c-0.2-1.6-0.2-3.2-0.3-4.8
			c0-7.4,0-14.9,0-22.3C314.2,271.2,314.2,270.8,314.3,270.2z"/>
		<path d="M316.2,227.3c0.7,0,1.4-0.1,2.1,0c0.4,0.2,0.7,0.6,0.9,1.1c3.1,7.8,6.3,15.7,9.3,23.5c0.3,0.7,0.6,1.4,1.1,1.9v-26.4h2.4
			v34.3c-0.7,0-1.4,0.1-2.1-0.1c-0.4-0.1-0.8-0.7-1-1.2c-3.2-7.9-6.3-15.9-9.4-23.8c-0.2-0.6-0.5-1.2-1-1.6v2c0,7.5,0,15,0,22.5
			c0,2.2,0,2.2-1.7,2.2c-0.2,0-0.4-0.1-0.8-0.1L316.2,227.3z"/>
		<path d="M380.8,261.5c-2.5,0.4-2.5,0.4-2.5-2.6c0-9.9,0-19.8,0-29.7c0-0.6,0.2-1.7,0.5-1.9c1-0.6,2.2,0,2.6,1
			c2.2,5.6,4.4,11.2,6.6,16.8c1.1,2.8,2.2,5.6,3.3,8.4c0.1,0.2,0.1,0.4,0.2,0.6l0.3-0.2v-26.5h2.4v34.3c-0.7,0-1.4,0.1-2.1-0.1
			c-0.4-0.1-0.8-0.7-1-1.2c-3-7.6-6.1-15.2-9.1-22.9c-0.3-0.9-0.8-1.7-1.3-2.5L380.8,261.5z"/>
		<path d="M256.7,274.6v-4.4H280c0,1.2,0.1,2.4,0,3.6c0,0.3-0.6,0.7-0.9,0.8c-2.4,0.1-4.9,0-7.3,0h-1.5v35.1h-3.8v-1.8
			c0-10.5,0-21,0-31.5c0-1.5-0.4-1.9-1.4-1.8C262.3,274.7,259.6,274.6,256.7,274.6z"/>
		<path d="M272.4,245.2c0-5.1,0.5-9.5,2.5-13.3c3.8-7.4,11.7-6.9,14.8,1c2.9,7.2,2.9,14.7,0.4,22.1c-1.6,4.7-4.4,7.4-8.4,7.3
			c-4-0.2-6.4-3.4-8-8C272.8,251.4,272.3,248.3,272.4,245.2z M289.4,245.5c-0.2-3.4-0.4-6.7-1.5-9.8c-1.2-3.3-3.1-5.4-6-5.2
			s-4.9,2.4-5.8,5.9c-1.4,5.3-1.6,10.9,0,16.2c1,3.5,2.9,5.9,5.9,6s5-2,6.1-5.6C288.7,250.6,288.9,248,289.4,245.5z"/>
		<path d="M374.6,244.5c0,3.3-0.4,6.6-1.4,9.7c-1.5,4.4-3.8,7.5-7.5,8c-4,0.5-7-2-8.7-6.6c-2.9-7.9-2.9-16,0.6-23.5
			c3.7-7.8,11.9-6.9,15.1,1.4C374.1,236.9,374.6,240.6,374.6,244.5z M357.7,243.9c0.2,2.2,0.2,3.6,0.4,5.1c0.2,1.4,0.5,2.8,1,4.1
			c1.2,3.3,3,5.5,5.9,5.5c3-0.1,4.9-2.4,5.9-5.9c1.6-5.5,1.5-11,0-16.5c-0.7-2.5-2-4.5-4-5.4c-3.3-1.5-7,1-8.1,5.9
			C358.1,239.3,357.9,242,357.7,243.9z"/>
		<path d="M351.4,236.8l-2.2,0.4c-0.1-0.3-0.2-0.5-0.3-0.8c-0.4-5-3.4-6.5-6.6-5.6c-2.3,0.7-3.5,3.2-3.1,6.2
			c0.3,1.7,1.1,2.7,2.2,3.2c1.8,0.9,3.7,1.6,5.5,2.5c2.9,1.4,4.8,4,5.1,8.3c0.5,6.2-2.8,11.3-7.5,11.3c-4.8,0-7.6-3-8.5-9.1
			c-0.3-2.3-0.2-2.5,1.5-2.6c0.2,0,0.4,0,0.7,0c0.1,0.8,0.2,1.5,0.3,2.2c1.1,6,6.7,6.7,9.2,4.3c2.5-2.3,2.3-7.5-0.4-9.4
			c-1.1-0.8-2.3-1.2-3.5-1.8c-1.1-0.5-2.1-0.9-3.2-1.5c-3.1-1.7-4.7-5.6-4.1-9.8c0.6-4.7,2.9-7.6,6.5-7.9
			C348.1,226.3,351.6,230.6,351.4,236.8z"/>
		<path d="M298.1,241.4h10.8v-14.1h2.5v34.1c-0.1,0.1-0.1,0.1-0.2,0.1c-2.3,0.2-2.3,0.2-2.3-2.8c0-3.9,0-7.8,0-11.8v-1.7h-2.3
			c-2.4,0-4.8,0.1-7.2,0c-1,0-1.3,0.3-1.3,1.7c0.1,4.1,0,8.2,0,12.4c0,2.5,0,2.5-1.9,2.3c-0.2,0-0.4-0.1-0.6-0.1v-34.3
			c0.5,0,1.1,0.1,1.6,0c0.8-0.1,1,0.4,1,1.3c0,3.8,0,7.5,0,11.3L298.1,241.4z"/>
		<path d="M268.5,227.4c0,0.6,0.1,1.1,0.1,1.5c0,7.5,0.1,15.1,0,22.6c0,2.2-0.3,4.4-0.8,6.5c-0.7,3-2.6,4.3-5,4.2
			c-2.2,0-3.8-1.4-4.6-4.4c-0.4-1.8-0.6-3.7-0.9-5.7l2.3-0.6c0.2,1.5,0.3,2.9,0.6,4.2c0.4,1.7,1.3,2.6,2.6,2.6
			c1.3,0,2.3-0.8,2.8-2.5c0.2-0.6,0.2-1.2,0.3-1.8c0.1-5.5,0.1-10.9,0.2-16.4c0-3.4,0-6.8,0-10.3L268.5,227.4z"/>
		<path d="M393.7,305.3v4.4h-22.8c0-0.1-0.1-0.3-0.1-0.5c-0.2-3.9-0.2-3.9,2.7-3.9H393.7L393.7,305.3z"/>
		<path d="M392.8,270.2v4.3h-22v-4.3H392.8z"/>
		<path d="M392.8,287.2v4.2h-22v-4.2H392.8z"/>
	</g>
</g>
<g id="text_x5F_layer">
	<path d="M152.2,161.9l2.3,4.1l-1.3,1.4l-7.1-13.2l1.5-1.6l13.7,6.1l-1.3,1.4l-4.3-1.9L152.2,161.9z M154.3,157.5l-3.9-1.8
		c-0.9-0.4-1.6-0.8-2.4-1.2l0,0c0.5,0.7,0.9,1.5,1.4,2.3l2.1,3.8L154.3,157.5z"/>
	<path d="M166.7,149.8c0.7,0.8,1.4,1.4,1.9,2l-1.2,1.1l-1.2-1.1l0,0c0.2,0.9,0.1,2.4-1.2,3.7c-1.2,1.1-3.2,1.7-5.6-0.9l-4-4.4
		l1.4-1.3l3.8,4.1c1.3,1.4,2.6,2,3.9,0.8c0.9-0.8,1-2.1,0.6-2.9c-0.1-0.3-0.3-0.6-0.5-0.8l-4.2-4.6l1.4-1.3L166.7,149.8z"/>
	<path d="M169.4,148.7c0.6-0.1,1.6-0.4,2.4-1c1-0.9,1.1-1.8,0.6-2.4c-0.6-0.7-1.3-0.7-2.6-0.2c-1.8,0.7-3.1,0.4-3.9-0.5
		c-1-1.3-0.9-3.1,0.8-4.5c0.8-0.7,1.7-1,2.3-1.1l0.5,1.3c-0.5,0.1-1.2,0.3-2,0.9c-0.8,0.7-0.9,1.6-0.4,2.2c0.5,0.6,1.2,0.6,2.6,0.1
		c1.8-0.6,3-0.5,4,0.7c1.1,1.4,0.9,3.2-1,4.8c-0.9,0.7-1.8,1.1-2.6,1.3L169.4,148.7z"/>
	<path d="M171.1,133.1l1.7,2.3l2.1-1.6l0.8,1.1l-2.1,1.6l3.3,4.4c0.8,1,1.5,1.4,2.3,0.8c0.4-0.3,0.6-0.6,0.8-0.7l0.9,1.1
		c-0.2,0.3-0.6,0.8-1.2,1.2c-0.7,0.5-1.4,0.7-2.1,0.6c-0.7-0.1-1.4-0.7-2.2-1.7l-3.3-4.5l-1.3,0.9l-0.8-1.1l1.3-0.9l-1.5-2
		L171.1,133.1z"/>
	<path d="M177,129c0.4,0.5,0.3,1.2-0.3,1.6c-0.5,0.4-1.2,0.2-1.6-0.3c-0.4-0.5-0.3-1.2,0.3-1.6C175.9,128.3,176.6,128.5,177,129z
		 M182.6,140.9l-5.8-8.4l1.5-1l5.8,8.4L182.6,140.9z"/>
	<path d="M182.6,131.9c-0.5-0.9-1-1.6-1.5-2.3l1.4-0.9l1,1.4l0,0c-0.1-1.1,0.4-2.5,1.9-3.4c1.2-0.7,3.5-1.2,5.3,1.8l3.2,5.2l-1.6,1
		l-3.1-5c-0.9-1.4-2.1-2.2-3.6-1.3c-1,0.6-1.4,1.9-1.1,2.9c0,0.2,0.2,0.5,0.3,0.8l3.2,5.2l-1.6,1L182.6,131.9z"/>
	<path d="M196.6,135.2c-0.2-1.3-0.8-3.6-1.3-5l1.7-1.2c0.4,1.8,0.7,4.3,0.7,5.4L196.6,135.2z"/>
	<path d="M200.4,116.2l-3.9,1.8l-0.7-1.4l9.5-4.4l0.7,1.4l-3.9,1.8l5.3,11.4l-1.7,0.8L200.4,116.2z"/>
	<path d="M210.4,120.4c1,2.3,2.8,2.7,4.5,2c1.2-0.5,1.9-1,2.4-1.5l0.8,1.1c-0.5,0.5-1.4,1.2-2.9,1.8c-2.9,1.2-5.4-0.1-6.5-2.9
		c-1.1-2.9-0.3-5.8,2.4-6.9c3.1-1.2,5,1.2,5.7,2.9c0.1,0.4,0.2,0.6,0.3,0.8L210.4,120.4z M214.9,117.1c-0.4-1.1-1.6-2.6-3.5-1.9
		c-1.7,0.7-1.9,2.6-1.5,3.8L214.9,117.1z"/>
	<path d="M218.4,111.6l2.1,1.6c0.5,0.4,1,0.8,1.5,1.3l0.1,0c0.1-0.7,0.3-1.3,0.4-1.9l0.7-2.5l1.9-0.6l-1.8,5.7l5,3.9l-2,0.6
		l-2.1-1.7c-0.6-0.4-1.1-0.9-1.6-1.3l0,0c-0.1,0.7-0.3,1.3-0.5,2l-0.7,2.6l-1.9,0.6l1.8-6l-4.8-3.7L218.4,111.6z"/>
	<path d="M235.2,117.2l-0.5-1.2l-0.1,0c-0.4,0.9-1.2,1.9-2.6,2.2c-2,0.5-3.4-0.6-3.7-2.1c-0.6-2.4,1.2-4.2,5-5.2l-0.1-0.2
		c-0.2-0.8-0.8-2.2-2.8-1.7c-0.9,0.2-1.8,0.8-2.4,1.4l-0.7-1.1c0.7-0.7,1.8-1.4,3-1.7c3-0.8,4.3,1.1,4.8,3.1l0.9,3.7
		c0.2,0.9,0.5,1.7,0.8,2.3L235.2,117.2z M233.7,112.3c-2,0.5-4.1,1.4-3.6,3.3c0.3,1.2,1.2,1.5,2.1,1.3c1.3-0.3,1.9-1.4,2-2.3
		c0-0.2,0-0.4,0-0.6L233.7,112.3z"/>
	<path d="M238.8,114.5c0.6,0.2,1.6,0.4,2.5,0.3c1.3-0.3,1.8-1,1.6-1.9c-0.2-0.9-0.8-1.2-2.2-1.5c-1.9-0.3-3-1.1-3.2-2.3
		c-0.3-1.6,0.7-3.2,2.9-3.6c1-0.2,2-0.1,2.6,0.1l-0.2,1.4c-0.4-0.2-1.2-0.4-2.2-0.2c-1.1,0.2-1.5,0.9-1.4,1.7
		c0.2,0.8,0.8,1.1,2.2,1.3c1.9,0.3,2.9,1,3.2,2.5c0.3,1.8-0.8,3.3-3.1,3.7c-1.1,0.2-2.2,0.1-2.9-0.1L238.8,114.5z"/>
	<path d="M250.2,100.2c0.8-0.3,2-0.5,3.3-0.6c1.8-0.2,3,0,4,0.6c0.8,0.5,1.3,1.3,1.4,2.4c0.1,1.4-0.6,2.6-2.1,3.3l0,0
		c1.4,0.2,3.1,1.1,3.3,3.2c0.1,1.2-0.3,2.2-0.9,2.9c-0.9,1-2.4,1.6-4.7,1.8c-1.3,0.1-2.2,0.1-2.8,0.1L250.2,100.2z M252.7,105.8
		l1.7-0.2c1.9-0.2,2.9-1.3,2.8-2.7c-0.2-1.7-1.5-2.2-3.3-2c-0.8,0.1-1.3,0.2-1.6,0.3L252.7,105.8z M253.4,112.6c0.4,0,0.9,0,1.5-0.1
		c1.9-0.2,3.5-1.1,3.3-3.1c-0.2-1.9-1.9-2.5-3.9-2.3l-1.5,0.2L253.4,112.6z"/>
	<path d="M268.4,112.9l-0.2-1.3l-0.1,0c-0.5,0.8-1.6,1.6-3,1.6c-2.1,0.1-3.2-1.3-3.2-2.8c-0.1-2.5,2-3.9,6-4l0-0.2
		c0-0.8-0.3-2.3-2.4-2.3c-0.9,0-1.9,0.4-2.6,0.9l-0.5-1.2c0.8-0.6,2-1,3.3-1c3.1-0.1,3.9,2,4,4l0.1,3.8c0,0.9,0.1,1.7,0.3,2.4
		L268.4,112.9z M267.9,107.7c-2,0-4.3,0.5-4.2,2.5c0,1.2,0.9,1.7,1.8,1.7c1.3-0.1,2.1-0.9,2.4-1.8c0.1-0.2,0.1-0.4,0.1-0.6
		L267.9,107.7z"/>
	<path d="M272.4,110.9c0.5,0.4,1.5,0.8,2.4,0.8c1.3,0,2-0.6,2-1.5c0-0.9-0.5-1.4-1.9-1.9c-1.8-0.7-2.7-1.7-2.6-2.9
		c0-1.6,1.4-3,3.6-2.9c1,0,1.9,0.3,2.5,0.7l-0.5,1.3c-0.4-0.3-1.1-0.6-2.1-0.6c-1.1,0-1.7,0.6-1.7,1.4c0,0.8,0.6,1.2,1.9,1.8
		c1.8,0.7,2.6,1.6,2.6,3.1c0,1.8-1.4,3-3.9,3c-1.1,0-2.1-0.3-2.8-0.7L272.4,110.9z"/>
	<path d="M282.2,108.3c-0.1,2.5,1.4,3.6,3.2,3.8c1.3,0.1,2.1-0.1,2.8-0.3l0.2,1.3c-0.7,0.2-1.8,0.5-3.4,0.4
		c-3.1-0.2-4.8-2.4-4.6-5.5s2.2-5.3,5.2-5.1c3.3,0.3,4,3.2,3.8,5.1c0,0.4-0.1,0.7-0.1,0.9L282.2,108.3z M287.7,107.4
		c0.1-1.2-0.3-3-2.3-3.2c-1.9-0.1-2.8,1.5-3.1,2.8L287.7,107.4z"/>
	<path d="M301.9,100.4l-1.8,12.2c-0.1,0.9-0.3,1.9-0.3,2.6l-1.6-0.2l0.2-1.8l0,0c-0.7,1-2.1,1.7-3.7,1.5c-2.4-0.4-4-2.7-3.6-5.7
		c0.5-3.3,2.8-5.1,5.3-4.7c1.5,0.2,2.5,1.1,2.8,2l0,0l0.9-6L301.9,100.4z M298.7,108.9c0-0.2,0.1-0.5,0-0.8c-0.1-1.2-1-2.3-2.3-2.5
		c-1.9-0.3-3.3,1.2-3.6,3.4c-0.3,2,0.5,3.9,2.4,4.2c1.2,0.2,2.5-0.5,3-1.8c0.1-0.2,0.2-0.5,0.2-0.8L298.7,108.9z"/>
	<path d="M310.2,103c0.9,0,2.3,0.3,3.5,0.6c1.9,0.5,3,1.1,3.7,2.1c0.5,0.8,0.7,1.8,0.4,2.9c-0.5,1.8-1.9,2.7-3.5,2.9l0,0.1
		c1,0.6,1.4,1.8,1.3,3.3c0,2,0,3.4,0.1,4l-1.8-0.5c-0.1-0.4-0.1-1.7-0.1-3.5c0.1-2-0.5-2.9-2.1-3.4L310,111l-1.5,5.9l-1.8-0.4
		L310.2,103z M310.4,109.7l1.8,0.5c1.9,0.5,3.4-0.3,3.7-1.8c0.4-1.8-0.6-2.9-2.5-3.4c-0.9-0.2-1.5-0.3-1.8-0.3L310.4,109.7z"/>
	<path d="M319.9,115.1c-0.7,2.4,0.5,3.9,2.2,4.4c1.3,0.4,2.1,0.4,2.8,0.4l-0.1,1.4c-0.7,0.1-1.9,0.1-3.4-0.4c-3-1-4.1-3.5-3.2-6.4
		c0.9-2.9,3.4-4.7,6.2-3.7c3.2,1,3.1,4.1,2.5,5.9c-0.1,0.4-0.2,0.6-0.3,0.8L319.9,115.1z M325.5,115.6c0.4-1.1,0.5-3-1.5-3.6
		c-1.8-0.6-3.1,0.8-3.6,2L325.5,115.6z"/>
	<path d="M332.5,124.7l0.3-1.2l-0.1,0c-0.8,0.5-2.1,0.8-3.4,0.3c-1.9-0.8-2.4-2.5-1.8-3.9c0.9-2.3,3.4-2.7,7.1-1.3l0.1-0.2
		c0.3-0.8,0.7-2.3-1.3-3c-0.9-0.3-1.9-0.4-2.7-0.3l0.1-1.3c1-0.2,2.2-0.1,3.4,0.4c2.9,1.1,2.8,3.4,2.1,5.3l-1.4,3.5
		c-0.3,0.8-0.6,1.6-0.7,2.3L332.5,124.7z M334.1,119.8c-1.9-0.8-4.1-1.3-4.8,0.5c-0.4,1.1,0.1,1.9,1,2.3c1.2,0.5,2.3,0,2.9-0.7
		c0.1-0.2,0.2-0.3,0.3-0.5L334.1,119.8z"/>
	<path d="M342.6,112.8l1.7,0.8l-6.2,13.6l-1.7-0.8L342.6,112.8z"/>
	<path d="M354.4,128.1l-4.8-2.6l-2.5,4.5l5.4,2.9l-0.7,1.3l-7-3.8l6.8-12.4l6.7,3.7l-0.7,1.3l-5.1-2.8l-2.2,3.9l4.8,2.6L354.4,128.1
		z"/>
	<path d="M354.3,133.6c0.3,0.6,0.9,1.4,1.7,1.9c1.1,0.7,2,0.5,2.5-0.2c0.5-0.7,0.3-1.4-0.6-2.6c-1.2-1.5-1.4-2.8-0.8-3.9
		c0.9-1.4,2.7-1.8,4.6-0.7c0.9,0.5,1.5,1.3,1.8,1.9l-1.1,0.9c-0.2-0.4-0.6-1.1-1.4-1.6c-0.9-0.6-1.8-0.4-2.2,0.3
		c-0.4,0.7-0.1,1.4,0.7,2.5c1.1,1.5,1.4,2.7,0.6,4c-0.9,1.5-2.8,1.8-4.8,0.6c-0.9-0.6-1.7-1.4-2.1-2.1L354.3,133.6z"/>
	<path d="M369.7,130.2l-1.7,2.4l2.2,1.5l-0.8,1.2l-2.2-1.5l-3.1,4.5c-0.7,1-0.8,1.8,0,2.4c0.4,0.3,0.7,0.4,1,0.5l-0.7,1.2
		c-0.4-0.1-0.9-0.3-1.5-0.7c-0.7-0.5-1.1-1.1-1.2-1.8c-0.1-0.7,0.2-1.6,0.9-2.6l3.2-4.6l-1.3-0.9l0.8-1.2l1.3,0.9l1.4-2L369.7,130.2
		z"/>
	<path d="M370.4,147l0.7-1.1l0,0c-0.9,0.3-2.2,0.2-3.4-0.7c-1.6-1.3-1.6-3-0.7-4.2c1.5-1.9,4.1-1.7,7.1,0.8l0.1-0.2
		c0.5-0.7,1.3-2-0.4-3.3c-0.7-0.6-1.7-1-2.6-1l0.4-1.2c1,0.1,2.2,0.5,3.2,1.3c2.5,1.9,1.8,4,0.5,5.7l-2.3,3c-0.5,0.7-1,1.4-1.4,2
		L370.4,147z M373.3,142.8c-1.6-1.3-3.6-2.4-4.8-0.8c-0.7,0.9-0.5,1.9,0.3,2.5c1,0.8,2.2,0.7,3,0.2c0.2-0.1,0.3-0.3,0.4-0.4
		L373.3,142.8z"/>
	<path d="M383.8,141.3l-1.9,2.2l2,1.7l-0.9,1.1l-2-1.7l-3.6,4.1c-0.8,1-1,1.7-0.2,2.4c0.4,0.3,0.7,0.5,0.9,0.6l-0.8,1.1
		c-0.4-0.1-0.9-0.4-1.4-0.9c-0.7-0.6-1-1.2-1-1.9c0-0.8,0.4-1.6,1.2-2.5l3.6-4.2l-1.2-1l0.9-1.1l1.2,1l1.6-1.8L383.8,141.3z"/>
	<path d="M382.6,151.3c-1.7,1.8-1.3,3.7,0.1,5c1,0.9,1.7,1.3,2.4,1.6l-0.7,1.2c-0.7-0.2-1.7-0.8-2.9-1.9c-2.3-2.2-2.2-4.9-0.1-7.2
		c2.1-2.2,5.1-2.7,7.2-0.7c2.4,2.3,1,5-0.3,6.4c-0.3,0.3-0.5,0.5-0.6,0.6L382.6,151.3z M387.5,154.1c0.8-0.8,1.7-2.5,0.2-3.9
		c-1.3-1.3-3.1-0.6-4.1,0.2L387.5,154.1z"/>
	<path d="M399.6,155.4c0.8,0.7,1.8,1.7,2.7,2.8c1.7,2,2.4,3.8,2.4,5.5c-0.1,1.7-0.8,3.3-2.6,4.8c-1.8,1.5-3.7,2.2-5.5,2
		c-1.9-0.2-3.8-1.4-5.6-3.5c-0.8-1-1.5-1.9-2-2.6L399.6,155.4z M391.3,164.9c0.2,0.4,0.7,0.9,1.1,1.5c2.5,3,5.6,3.2,8.5,0.7
		c2.6-2.1,3-5,0.5-7.9c-0.6-0.7-1.1-1.2-1.5-1.5L391.3,164.9z"/>
	<path d="M402.2,173.1c-2,1.5-1.9,3.4-0.8,4.9c0.8,1.1,1.4,1.6,2.1,2l-0.9,1c-0.6-0.4-1.5-1.1-2.5-2.4c-1.8-2.5-1.3-5.3,1.2-7.1
		c2.5-1.8,5.5-1.7,7.2,0.7c1.9,2.7,0.1,5.1-1.4,6.2c-0.3,0.2-0.6,0.4-0.7,0.5L402.2,173.1z M406.4,176.7c1-0.7,2.1-2.1,0.9-3.8
		c-1.1-1.5-3-1.2-4.1-0.5L406.4,176.7z"/>
	<path d="M412.7,178.6l-3.8,4.7c-0.6,0.8-1.2,1.5-1.8,2.1l0,0.1c0.8-0.3,1.7-0.5,2.7-0.7l5.9-1.4l1,1.6l-10.7,2l-0.9-1.5l6.5-8.7
		L412.7,178.6z"/>
	<path d="M413.4,190.3c-2.2,1.2-2.3,3.1-1.4,4.7c0.6,1.2,1.2,1.8,1.8,2.2l-1,0.9c-0.6-0.4-1.4-1.2-2.2-2.7c-1.5-2.7-0.6-5.4,2.1-6.8
		c2.7-1.5,5.7-1,7.1,1.6c1.6,2.9-0.6,5.1-2.2,6c-0.3,0.2-0.6,0.3-0.8,0.4L413.4,190.3z M417.2,194.4c1-0.5,2.4-1.9,1.4-3.7
		c-0.9-1.6-2.8-1.5-4-1.1L417.2,194.4z"/>
	<path d="M427,194.3l0.8,1.7l-13.4,6.5l-0.8-1.7L427,194.3z"/>
	<path d="M424,211.6c-3.5,1.5-6-0.3-6.9-2.6c-1.1-2.5,0-5.3,2.9-6.5c3.1-1.3,5.8,0,6.9,2.5C428.1,207.7,426.9,210.4,424,211.6z
		 M420.8,204.2c-2.1,0.9-3.1,2.7-2.4,4.4c0.7,1.6,2.7,2.2,4.8,1.3c1.6-0.7,3.3-2.3,2.4-4.3C424.8,203.5,422.6,203.4,420.8,204.2z"/>
	<path d="M426.5,213.3c1.2-0.4,2.2-0.8,3.1-1.1l0.5,1.6l-1.6,0.6l0,0c1.4,0.3,2.5,1.2,3,2.8c0.8,2.3-0.6,4.7-3.5,5.7
		c-3.5,1.2-5.9-0.4-6.7-2.6c-0.4-1.3-0.3-2.6,0.5-3.5l0,0l-5.2,1.8l-0.6-1.7L426.5,213.3z M424.5,215.9c-0.3,0.1-0.5,0.2-0.7,0.3
		c-1.1,0.7-1.6,2.1-1.2,3.3c0.6,1.9,2.5,2.4,4.7,1.7c1.9-0.7,3.2-2.2,2.6-4.1c-0.4-1.2-1.6-2-3.1-1.9c-0.2,0-0.5,0-0.8,0.1
		L424.5,215.9z"/>
	<path d="M430.9,224.8c1-0.2,1.9-0.5,2.7-0.7l0.4,1.6l-1.6,0.5l0,0.1c1.1,0.3,2.2,1,2.6,2.7c0.3,1.3-0.3,2.6-1.3,3.3l0,0
		c0.6,0.2,1.1,0.5,1.5,0.8c0.6,0.5,1,1.1,1.2,2c0.3,1.3-0.1,3.5-3.5,4.3l-5.8,1.4l-0.4-1.8l5.6-1.3c1.9-0.5,2.9-1.4,2.5-2.9
		c-0.2-1-1.2-1.6-2.1-1.7c-0.3,0-0.6,0-0.9,0.1l-6.1,1.5l-0.4-1.8l5.9-1.4c1.6-0.4,2.6-1.3,2.2-2.7c-0.3-1.1-1.4-1.7-2.3-1.8
		c-0.3,0-0.6,0-0.9,0.1l-6,1.4l-0.4-1.8L430.9,224.8z"/>
	<path d="M432.3,243.6c-2.5,0.4-3.3,2.1-3,4c0.2,1.3,0.5,2.1,0.9,2.7l-1.3,0.5c-0.4-0.6-0.9-1.7-1.1-3.3c-0.5-3.1,1.3-5.2,4.3-5.7
		c3-0.4,5.7,1,6.1,3.9c0.5,3.3-2.3,4.6-4.1,4.9c-0.4,0.1-0.7,0.1-0.9,0.1L432.3,243.6z M434.4,248.8c1.2-0.2,2.9-0.9,2.6-3
		c-0.3-1.8-2.1-2.4-3.4-2.4L434.4,248.8z"/>
	<path d="M436.2,252.9c1-0.1,1.9-0.2,2.7-0.3l0.1,1.6l-1.7,0.2l0,0c1,0.4,2,1.5,2.2,3.2c0.1,1.4-0.6,3.6-4,3.9l-6,0.5l-0.1-1.8
		l5.8-0.5c1.6-0.1,2.9-0.8,2.8-2.6c-0.1-1.2-1-2.1-2.1-2.3c-0.2-0.1-0.6-0.1-0.9-0.1l-6.1,0.5l-0.1-1.8L436.2,252.9z"/>
	<path d="M442.7,266.8l-2.9,0.1l0.1,2.6l-1.4,0l-0.1-2.6l-5.5,0.1c-1.3,0-2,0.4-1.9,1.4c0,0.5,0.1,0.8,0.1,1.1l-1.4,0.1
		c-0.2-0.4-0.3-0.9-0.3-1.6c0-0.9,0.2-1.6,0.7-2c0.5-0.5,1.4-0.7,2.6-0.8l5.5-0.1l0-1.6l1.4,0l0,1.6l2.4-0.1L442.7,266.8z"/>
	<path d="M429.4,285.9c-0.3-0.7-0.5-2.1-0.4-3.8c0.3-4,3-6.8,7.6-6.5c4.4,0.3,7.2,3.5,6.9,7.9c-0.1,1.8-0.6,2.8-0.8,3.3l-1.5-0.5
		c0.4-0.7,0.7-1.6,0.8-2.8c0.2-3.3-1.8-5.6-5.5-5.9c-3.5-0.2-5.8,1.6-6,5.1c-0.1,1.1,0.1,2.3,0.4,3L429.4,285.9z"/>
	<path d="M432.6,297.4c-3.7-0.5-5-3.3-4.7-5.7c0.4-2.7,2.7-4.5,5.8-4.1c3.4,0.5,5,2.9,4.7,5.7C438.1,296.1,435.7,297.8,432.6,297.4z
		 M433.6,289.4c-2.2-0.3-4,0.7-4.3,2.5c-0.2,1.7,1.2,3.3,3.5,3.6c1.7,0.2,4-0.3,4.3-2.5C437.4,290.9,435.5,289.6,433.6,289.4z"/>
	<path d="M434.5,300.4c1,0.2,1.9,0.4,2.7,0.5l-0.4,1.6l-1.6-0.3l0,0.1c0.8,0.8,1.5,1.9,1.1,3.5c-0.3,1.4-1.4,2.2-2.6,2.3l0,0
		c0.5,0.4,0.8,0.9,1,1.4c0.3,0.7,0.4,1.4,0.2,2.4c-0.3,1.3-1.6,3.1-5.1,2.3l-5.8-1.4l0.4-1.8l5.6,1.3c1.9,0.4,3.2,0,3.5-1.4
		c0.2-1-0.3-2-1.1-2.5c-0.2-0.1-0.5-0.3-0.9-0.4l-6.1-1.4l0.4-1.8l5.9,1.4c1.6,0.4,2.9-0.1,3.2-1.4c0.3-1.1-0.4-2.2-1.3-2.6
		c-0.2-0.2-0.5-0.3-0.8-0.3l-6-1.4l0.4-1.8L434.5,300.4z"/>
	<path d="M429.6,317.5c1.2,0.4,2.2,0.7,3.2,1l-0.5,1.6l-1.7-0.5l0,0c0.9,1.1,1.3,2.5,0.7,4c-0.8,2.3-3.3,3.4-6.3,2.5
		c-3.5-1.1-4.5-3.8-3.7-6.1c0.4-1.3,1.4-2.2,2.5-2.5l0,0l-5.2-1.7l0.6-1.7L429.6,317.5z M426.5,318.4c-0.3-0.1-0.5-0.1-0.7-0.2
		c-1.3-0.1-2.5,0.7-2.9,2c-0.6,1.9,0.5,3.4,2.8,4.2c1.9,0.6,3.9,0.2,4.5-1.7c0.4-1.2-0.1-2.6-1.3-3.4c-0.2-0.1-0.4-0.3-0.7-0.4
		L426.5,318.4z"/>
	<path d="M417.2,331.7l1.2,0.3l0-0.1c-0.5-0.8-0.8-2.1-0.2-3.4c0.8-1.9,2.5-2.3,3.9-1.8c2.3,0.9,2.7,3.5,1.2,7.1l0.2,0.1
		c0.8,0.3,2.3,0.7,3.1-1.2c0.4-0.9,0.5-1.9,0.3-2.7l1.3,0.1c0.2,1,0.1,2.2-0.4,3.4c-1.2,2.9-3.4,2.8-5.3,2l-3.5-1.4
		c-0.8-0.3-1.6-0.6-2.3-0.8L417.2,331.7z M422.1,333.4c0.8-1.8,1.3-4.1-0.5-4.9c-1.1-0.5-1.9,0.1-2.3,0.9c-0.5,1.2,0,2.3,0.6,2.9
		c0.2,0.1,0.3,0.2,0.5,0.3L422.1,333.4z"/>
	<path d="M422.1,338.8c0.9,0.5,1.7,0.8,2.5,1.1l-0.7,1.5l-1.6-0.6l0,0c0.6,0.9,1,2.4,0.2,3.9c-0.6,1.3-2.3,2.9-5.5,1.3l-5.4-2.7
		l0.8-1.7l5.3,2.6c1.5,0.7,3,0.8,3.7-0.8c0.5-1.1,0.2-2.3-0.6-3.1c-0.2-0.2-0.4-0.4-0.7-0.5l-5.5-2.7l0.8-1.7L422.1,338.8z"/>
	<path d="M419,351.2l-6.3-1.1c-0.7-0.1-1.5-0.3-2.1-0.5l0,0c0.4,0.5,1,1,1.5,1.6l4.2,4.7l-1,1.7l-4.9-6c-2.4-2.9-3.5-4.6-3.8-6.2
		c-0.2-1.2-0.1-2.1,0.1-2.6l1.6,0.4c-0.1,0.5-0.2,1.1,0,1.9c0.1,0.6,0.4,1.5,1,2.4c0.1,0.2,0.2,0.3,0.3,0.3c0.1,0.1,0.2,0.1,0.5,0.1
		l10,1.4L419,351.2z"/>
	<path d="M407.1,353.4c0.7,0.4,0.8,1.1,0.4,1.8c-0.4,0.6-1.1,0.8-1.8,0.3c-0.6-0.4-0.9-1.1-0.4-1.8
		C405.7,353.1,406.5,353,407.1,353.4z"/>
	<path d="M400.8,368.5l-2.6-3.9l1.2-1.5l8.1,12.6l-1.4,1.7l-14.1-5l1.2-1.5l4.4,1.6L400.8,368.5z M399,373l4.1,1.4
		c0.9,0.3,1.7,0.7,2.5,1l0,0c-0.5-0.7-1.1-1.4-1.6-2.2l-2.3-3.6L399,373z"/>
	<path d="M387.3,381.6c-0.8-0.7-1.5-1.3-2.1-1.8l1.1-1.2l1.3,1l0,0c-0.3-0.9-0.3-2.4,0.9-3.8c1.1-1.2,3-2,5.7,0.4l4.4,4l-1.3,1.4
		l-4.1-3.8c-1.4-1.3-2.8-1.8-3.9-0.5c-0.8,0.9-0.8,2.1-0.4,2.9c0.1,0.3,0.3,0.5,0.6,0.8l4.6,4.2l-1.3,1.4L387.3,381.6z"/>
	<path d="M384.7,382.9c-0.6,0.1-1.6,0.5-2.3,1.2c-1,0.9-1,1.9-0.4,2.5c0.6,0.6,1.3,0.6,2.7,0c1.8-0.8,3.1-0.7,3.9,0.2
		c1.1,1.2,1.1,3.1-0.5,4.6c-0.7,0.7-1.6,1.1-2.2,1.3l-0.6-1.3c0.5-0.1,1.2-0.4,1.9-1c0.8-0.8,0.8-1.6,0.3-2.2
		c-0.6-0.6-1.3-0.5-2.6,0.1c-1.7,0.7-3,0.7-4-0.4c-1.2-1.3-1.1-3.2,0.6-4.8c0.8-0.8,1.7-1.3,2.5-1.5L384.7,382.9z"/>
	<path d="M384.2,398.6l-1.9-2.2l-2,1.7l-0.9-1.1l2-1.7l-3.6-4.1c-0.8-0.9-1.6-1.3-2.3-0.6c-0.4,0.3-0.6,0.6-0.7,0.8l-1-1
		c0.2-0.3,0.5-0.8,1.1-1.3c0.6-0.6,1.3-0.8,2-0.7c0.8,0.1,1.5,0.6,2.3,1.5l3.7,4.2l1.2-1l0.9,1.1l-1.2,1l1.6,1.8L384.2,398.6z"/>
	<path d="M372.1,391.7l6.4,7.9l-1.4,1.2l-6.4-7.9L372.1,391.7z M378.7,403.1c-0.4-0.5-0.4-1.2,0.2-1.6c0.5-0.4,1.2-0.3,1.6,0.2
		c0.4,0.5,0.4,1.2-0.2,1.6C379.8,403.8,379.1,403.7,378.7,403.1z"/>
	<path d="M372.8,400.7c0.6,0.8,1.1,1.5,1.7,2.2l-1.3,1l-1.1-1.3l0,0c0.2,1.1-0.2,2.5-1.6,3.5c-1.1,0.8-3.4,1.4-5.5-1.4l-3.6-4.9
		l1.5-1.1l3.5,4.7c1,1.3,2.3,2.1,3.7,1c1-0.7,1.2-2,0.9-3c-0.1-0.2-0.2-0.5-0.4-0.8l-3.6-4.9l1.5-1.1L372.8,400.7z"/>
	<path d="M358.7,398.5c0.3,1.3,1.1,3.5,1.7,4.9l-1.6,1.3c-0.6-1.8-1.1-4.2-1.1-5.4L358.7,398.5z"/>
	<path d="M356.3,417.8l3.8-2.1l0.8,1.4l-9.1,5.1l-0.8-1.4l3.8-2.1l-6.2-11l1.6-0.9L356.3,417.8z"/>
	<path d="M346.1,414.4c-1.1-2.2-3-2.4-4.7-1.6c-1.2,0.6-1.8,1.1-2.3,1.7l-0.9-1c0.5-0.6,1.3-1.3,2.8-2.1c2.8-1.4,5.4-0.4,6.7,2.4
		c1.4,2.8,0.8,5.7-1.9,7c-3,1.5-5.1-0.8-5.9-2.4c-0.2-0.3-0.3-0.6-0.3-0.8L346.1,414.4z M341.8,418c0.5,1.1,1.8,2.5,3.6,1.6
		c1.7-0.8,1.7-2.7,1.2-3.9L341.8,418z"/>
	<path d="M338.8,423.9l-2.2-1.5c-0.6-0.4-1.1-0.7-1.6-1.1l-0.1,0c-0.1,0.7-0.2,1.3-0.3,1.9l-0.5,2.5l-1.8,0.8l1.3-5.9l-5.3-3.5
		l1.9-0.8l2.3,1.5c0.6,0.4,1.1,0.8,1.7,1.2l0,0c0.1-0.7,0.2-1.3,0.3-2l0.5-2.7l1.9-0.8l-1.3,6.2l5.1,3.3L338.8,423.9z"/>
	<path d="M321.6,419.5l0.6,1.2l0.1,0c0.3-0.9,1.1-2,2.4-2.4c1.9-0.7,3.4,0.4,3.9,1.7c0.8,2.3-0.8,4.3-4.5,5.6l0.1,0.2
		c0.3,0.8,1,2.1,2.9,1.5c0.9-0.3,1.7-0.9,2.3-1.6l0.8,1c-0.6,0.8-1.7,1.5-2.9,1.9c-2.9,1-4.3-0.7-5-2.7l-1.2-3.6
		c-0.3-0.8-0.6-1.6-1-2.2L321.6,419.5z M323.5,424.4c1.9-0.6,4-1.7,3.3-3.6c-0.4-1.1-1.3-1.4-2.2-1.1c-1.2,0.4-1.8,1.5-1.8,2.4
		c0,0.2,0,0.4,0.1,0.6L323.5,424.4z"/>
	<path d="M318.3,422.6c-0.6-0.2-1.7-0.3-2.5,0c-1.3,0.4-1.7,1.2-1.5,2c0.2,0.8,0.9,1.2,2.3,1.3c1.9,0.1,3,0.9,3.4,2
		c0.4,1.6-0.5,3.2-2.6,3.8c-1,0.3-1.9,0.2-2.6,0.1l0.1-1.4c0.5,0.1,1.3,0.3,2.2,0c1.1-0.3,1.5-1.1,1.3-1.8c-0.2-0.8-0.9-1-2.3-1.1
		c-1.9-0.2-3-0.8-3.4-2.2c-0.5-1.7,0.5-3.3,2.8-4c1.1-0.3,2.1-0.3,2.9-0.1L318.3,422.6z"/>
	<path d="M307.9,437.7c-0.8,0.3-2,0.7-3.2,0.9c-1.8,0.3-3,0.2-4-0.3c-0.8-0.4-1.4-1.1-1.6-2.2c-0.2-1.3,0.4-2.7,1.8-3.5l0,0
		c-1.4-0.1-3.1-0.9-3.5-3c-0.2-1.2,0.1-2.2,0.7-3c0.8-1.1,2.3-1.8,4.6-2.2c1.2-0.2,2.2-0.3,2.8-0.4L307.9,437.7z M303.8,425.7
		c-0.4,0-0.9,0.1-1.5,0.2c-1.9,0.3-3.4,1.3-3.1,3.4c0.4,1.9,2.1,2.4,4.1,2l1.5-0.3L303.8,425.7z M305.1,432.3l-1.6,0.3
		c-1.9,0.4-2.8,1.6-2.6,2.9c0.3,1.6,1.7,2,3.5,1.7c0.8-0.2,1.3-0.3,1.6-0.4L305.1,432.3z"/>
	<path d="M288.9,426.5l0.3,1.3l0.1,0c0.5-0.9,1.5-1.7,2.9-1.9c2-0.2,3.3,1.1,3.4,2.5c0.3,2.4-1.7,4-5.6,4.5l0,0.2
		c0.1,0.8,0.5,2.3,2.6,2.1c0.9-0.1,1.9-0.5,2.5-1.1l0.6,1.2c-0.8,0.6-1.9,1.1-3.2,1.3c-3.1,0.4-4.1-1.7-4.3-3.7l-0.4-3.8
		c-0.1-0.9-0.2-1.7-0.5-2.4L288.9,426.5z M289.8,431.7c2-0.2,4.2-0.8,4-2.8c-0.1-1.2-1-1.7-1.9-1.5c-1.3,0.2-2.1,1.1-2.2,2
		c0,0.2-0.1,0.4,0,0.6L289.8,431.7z"/>
	<path d="M285,428.8c-0.6-0.3-1.6-0.6-2.5-0.6c-1.3,0.1-1.9,0.8-1.9,1.6c0.1,0.9,0.6,1.3,2,1.8c1.9,0.5,2.8,1.5,2.9,2.7
		c0.1,1.6-1.1,3.1-3.3,3.2c-1,0.1-1.9-0.2-2.5-0.5l0.4-1.4c0.4,0.2,1.2,0.5,2.1,0.5c1.1-0.1,1.7-0.7,1.6-1.5c-0.1-0.8-0.7-1.2-2-1.6
		c-1.8-0.6-2.8-1.4-2.8-2.9c-0.1-1.8,1.2-3.1,3.6-3.3c1.1-0.1,2.2,0.1,2.9,0.5L285,428.8z"/>
	<path d="M275.5,432.1c-0.1-2.5-1.7-3.5-3.5-3.5c-1.3,0-2.1,0.3-2.8,0.6l-0.3-1.3c0.6-0.3,1.8-0.7,3.4-0.7c3.1,0,5,2,5.1,5
		c0,3.1-1.7,5.5-4.7,5.6c-3.3,0.1-4.2-2.9-4.3-4.7c0-0.4,0-0.7,0-0.9L275.5,432.1z M270.1,433.5c0,1.2,0.5,3,2.6,3
		c1.9,0,2.7-1.8,2.8-3L270.1,433.5z"/>
	<path d="M256.5,441.6l0.8-12.3c0.1-0.9,0.1-1.9,0.1-2.6l1.7,0.1l0,1.8l0,0c0.6-1.1,1.9-1.9,3.6-1.8c2.5,0.2,4.2,2.4,4,5.4
		c-0.2,3.4-2.4,5.3-4.9,5.1c-1.6-0.1-2.5-0.9-3-1.8l0,0l-0.4,6.1L256.5,441.6z M258.9,432.9c0,0.2,0,0.5,0,0.8
		c0.2,1.2,1.1,2.2,2.5,2.3c1.9,0.1,3.1-1.5,3.3-3.7c0.1-2.1-0.8-3.8-2.7-3.9c-1.2-0.1-2.4,0.7-2.8,2c-0.1,0.2-0.1,0.5-0.1,0.8
		L258.9,432.9z"/>
	<path d="M248,439.7c-0.9,0-2.3-0.1-3.5-0.3c-1.9-0.3-3.1-0.9-3.8-1.8c-0.6-0.7-0.8-1.8-0.7-2.8c0.3-1.8,1.7-2.9,3.2-3.1l0-0.1
		c-1-0.6-1.5-1.7-1.6-3.2c-0.1-2-0.2-3.4-0.4-4l1.9,0.3c0.2,0.4,0.3,1.7,0.4,3.5c0.1,2,0.7,2.8,2.3,3.2l1.7,0.3l1-6l1.8,0.3
		L248,439.7z M247.3,433l-1.8-0.3c-1.9-0.3-3.3,0.5-3.6,2.1c-0.3,1.8,0.9,2.8,2.8,3.1c0.9,0.1,1.5,0.2,1.8,0.1L247.3,433z"/>
	<path d="M237.3,428.3c0.5-2.4-0.8-3.8-2.6-4.2c-1.3-0.3-2.1-0.3-2.9-0.1v-1.4c0.7-0.1,1.9-0.2,3.4,0.2c3,0.7,4.4,3.2,3.7,6.1
		c-0.7,3-3,4.9-5.9,4.2c-3.2-0.8-3.4-3.8-3-5.6c0.1-0.4,0.2-0.6,0.3-0.8L237.3,428.3z M231.7,428.4c-0.3,1.1-0.2,3,1.8,3.5
		c1.8,0.4,3-1.1,3.5-2.3L231.7,428.4z"/>
	<path d="M224,419.8l-0.2,1.3l0.1,0c0.8-0.6,2-1,3.4-0.5c2,0.6,2.5,2.3,2.1,3.7c-0.7,2.3-3.2,3-7,1.8l-0.1,0.2
		c-0.2,0.8-0.5,2.3,1.5,2.9c0.9,0.3,1.9,0.3,2.8,0.1l0,1.3c-1,0.3-2.2,0.3-3.5-0.1c-3-0.9-3.1-3.2-2.5-5.1l1.1-3.6
		c0.3-0.8,0.5-1.7,0.6-2.4L224,419.8z M222.8,424.9c1.9,0.6,4.2,1,4.8-0.9c0.4-1.1-0.2-1.9-1.1-2.2c-1.3-0.4-2.3,0.2-2.8,0.9
		c-0.1,0.2-0.2,0.4-0.3,0.5L222.8,424.9z"/>
	<path d="M214.9,432.4l-1.7-0.6l5.1-14l1.7,0.6L214.9,432.4z"/>
	<path d="M202,418.2l5,2.3l2.1-4.7l-5.6-2.5l0.6-1.4l7.3,3.3l-5.8,12.9l-7-3.1l0.6-1.4l5.3,2.4l1.8-4.1l-5-2.3L202,418.2z"/>
	<path d="M201.6,412.7c-0.3-0.6-1-1.3-1.8-1.8c-1.2-0.6-2.1-0.3-2.4,0.4c-0.4,0.8-0.2,1.5,0.8,2.5c1.3,1.4,1.6,2.7,1.1,3.8
		c-0.8,1.5-2.5,2-4.5,1c-0.9-0.5-1.6-1.2-1.9-1.7l1-1c0.2,0.4,0.7,1,1.6,1.5c1,0.5,1.8,0.2,2.1-0.4c0.4-0.7,0-1.4-0.9-2.4
		c-1.3-1.4-1.6-2.6-1-4c0.8-1.6,2.6-2.1,4.8-0.9c1,0.5,1.8,1.2,2.2,1.9L201.6,412.7z"/>
	<path d="M186.5,417.3l1.5-2.5l-2.3-1.3l0.7-1.2l2.3,1.3l2.8-4.7c0.6-1.1,0.7-1.9-0.2-2.4c-0.4-0.2-0.8-0.4-1-0.4l0.6-1.2
		c0.4,0.1,0.9,0.2,1.5,0.6c0.7,0.4,1.2,1,1.3,1.7c0.2,0.7-0.1,1.6-0.7,2.6l-2.8,4.8l1.4,0.8l-0.7,1.2l-1.4-0.8l-1.2,2.1L186.5,417.3
		z"/>
	<path d="M184.5,400.6l-0.6,1.2l0.1,0c0.9-0.4,2.2-0.4,3.4,0.4c1.7,1.1,1.8,2.9,1,4.1c-1.3,2.1-3.9,2-7.2-0.2l-0.1,0.2
		c-0.5,0.7-1.1,2.1,0.6,3.2c0.8,0.5,1.8,0.8,2.6,0.8l-0.3,1.2c-1,0-2.2-0.4-3.3-1.1c-2.6-1.7-2.1-3.9-1-5.6l2.1-3.2
		c0.5-0.7,0.9-1.5,1.2-2.1L184.5,400.6z M181.9,405c1.7,1.1,3.8,2.1,4.9,0.4c0.7-1,0.3-1.9-0.5-2.4c-1.1-0.7-2.3-0.5-3,0.1
		c-0.2,0.1-0.3,0.3-0.4,0.4L181.9,405z"/>
	<path d="M171.5,407.4l1.7-2.4l-2.1-1.6l0.8-1.1l2.1,1.6l3.2-4.4c0.7-1,0.9-1.8,0-2.4c-0.4-0.3-0.7-0.4-0.9-0.5l0.8-1.2
		c0.4,0.1,0.9,0.3,1.5,0.8c0.7,0.5,1.1,1.1,1.1,1.8c0.1,0.8-0.3,1.6-1,2.6l-3.3,4.5l1.3,0.9L176,407l-1.3-0.9l-1.4,2L171.5,407.4z"
		/>
	<path d="M171.9,397.2c1.6-2,1-3.8-0.5-4.9c-1-0.8-1.8-1.2-2.5-1.4l0.6-1.2c0.7,0.2,1.8,0.6,3,1.7c2.4,2,2.6,4.8,0.6,7.1
		c-1.9,2.4-4.9,3.1-7.2,1.2c-2.6-2.1-1.4-4.9-0.2-6.4c0.2-0.3,0.5-0.5,0.6-0.6L171.9,397.2z M166.9,394.8c-0.8,0.9-1.5,2.6,0.1,3.9
		c1.4,1.2,3.2,0.4,4.1-0.5L166.9,394.8z"/>
	<path d="M154.6,394.5c-0.9-0.7-1.9-1.5-2.9-2.6c-1.8-1.9-2.7-3.6-2.8-5.3c-0.1-1.7,0.6-3.4,2.2-5c1.6-1.6,3.5-2.5,5.3-2.4
		c1.9,0,3.9,1.1,5.9,3c0.9,0.9,1.6,1.7,2.2,2.5L154.6,394.5z M162.2,384.4c-0.3-0.4-0.7-0.9-1.2-1.4c-2.8-2.8-5.8-2.7-8.5,0
		c-2.4,2.3-2.6,5.2,0.2,7.9c0.7,0.7,1.2,1.1,1.6,1.4L162.2,384.4z"/>
	<path d="M150.7,377.1c1.9-1.7,1.6-3.5,0.4-4.9c-0.9-1-1.6-1.5-2.2-1.8l0.8-1.1c0.6,0.3,1.6,0.9,2.7,2.2c2,2.4,1.7,5.1-0.7,7.1
		c-2.3,2-5.3,2.2-7.3-0.1c-2.2-2.5-0.5-5.1,0.9-6.3c0.3-0.2,0.5-0.4,0.7-0.5L150.7,377.1z M146.2,373.8c-0.9,0.7-2,2.3-0.6,3.9
		c1.2,1.4,3.1,0.9,4.1,0.2L146.2,373.8z"/>
	<path d="M139.8,372.4l3.4-5c0.5-0.8,1-1.5,1.6-2.2l0-0.1c-0.8,0.3-1.7,0.6-2.6,0.9l-5.8,1.8l-1.2-1.5l10.5-2.9l1.1,1.4L141,374
		L139.8,372.4z"/>
	<path d="M138.1,360.9c2.1-1.4,2.1-3.3,1-4.8c-0.7-1.1-1.4-1.6-2-2.1l0.9-1c0.6,0.4,1.5,1.1,2.4,2.5c1.7,2.6,1,5.3-1.6,7
		s-5.6,1.5-7.2-1c-1.8-2.8,0.1-5.1,1.7-6.1c0.3-0.2,0.6-0.3,0.8-0.4L138.1,360.9z M134.1,357.1c-1,0.6-2.2,2-1.1,3.8
		c1,1.6,2.9,1.3,4.1,0.7L134.1,357.1z"/>
	<path d="M124.3,358l-0.9-1.6l12.9-7.6l0.9,1.6L124.3,358z"/>
	<path d="M125.9,340.5c3.3-1.7,6-0.2,7.1,2c1.3,2.4,0.5,5.3-2.4,6.7c-3,1.6-5.8,0.5-7.1-2C122.1,344.7,123.1,341.9,125.9,340.5z
		 M129.7,347.6c2-1,2.9-2.9,2-4.5c-0.8-1.6-2.9-2-4.9-0.9c-1.5,0.8-3.1,2.6-2.1,4.5S128,348.5,129.7,347.6z"/>
	<path d="M123.3,339c-1.2,0.5-2.1,1-3,1.4l-0.7-1.5l1.6-0.8l0,0c-1.4-0.2-2.6-1-3.2-2.5c-1-2.3,0.2-4.8,3-6c3.4-1.4,5.9-0.1,6.8,2.1
		c0.5,1.2,0.5,2.5-0.2,3.5l0,0l5.1-2.2l0.7,1.7L123.3,339z M125.1,336.2c0.3-0.1,0.5-0.2,0.7-0.4c1-0.8,1.4-2.2,0.9-3.4
		c-0.8-1.8-2.7-2.2-4.8-1.3c-1.9,0.8-3,2.5-2.3,4.3c0.5,1.2,1.8,1.9,3.2,1.7c0.2,0,0.5-0.1,0.7-0.2L125.1,336.2z"/>
	<path d="M117.9,327.8c-1,0.3-1.8,0.6-2.6,0.9l-0.5-1.5l1.5-0.6l0-0.1c-1.1-0.2-2.2-0.9-2.8-2.5c-0.4-1.3,0-2.6,1-3.4l0,0
		c-0.6-0.1-1.2-0.4-1.6-0.7c-0.6-0.4-1.1-1-1.4-1.9c-0.4-1.3-0.2-3.4,3.2-4.5l5.7-1.8l0.6,1.7l-5.5,1.8c-1.9,0.6-2.8,1.6-2.3,3.1
		c0.3,1,1.3,1.5,2.3,1.6c0.3,0,0.6,0,0.9-0.1l6-1.9l0.6,1.7l-5.8,1.9c-1.5,0.5-2.4,1.5-2,2.9c0.4,1.1,1.5,1.6,2.5,1.6
		c0.3,0,0.6,0,0.9-0.1l5.8-1.9l0.6,1.7L117.9,327.8z"/>
	<path d="M115.1,309.2c2.4-0.6,3.1-2.4,2.7-4.2c-0.3-1.3-0.7-2-1.1-2.6l1.2-0.6c0.4,0.6,1,1.6,1.4,3.2c0.7,3-0.9,5.3-3.9,6
		c-3,0.7-5.7-0.5-6.4-3.4c-0.7-3.2,1.9-4.7,3.7-5.2c0.4-0.1,0.7-0.1,0.9-0.1L115.1,309.2z M112.6,304.2c-1.2,0.2-2.8,1.1-2.4,3.2
		c0.4,1.8,2.3,2.2,3.6,2.1L112.6,304.2z"/>
	<path d="M110.4,300.2c-1,0.2-1.9,0.3-2.7,0.5l-0.3-1.6l1.6-0.4l0,0c-1-0.3-2.1-1.4-2.4-3c-0.2-1.4,0.3-3.7,3.7-4.2l6-0.9l0.3,1.8
		l-5.8,0.9c-1.6,0.3-2.9,1.1-2.6,2.8c0.2,1.2,1.2,2,2.3,2.2c0.2,0,0.6,0,0.9,0l6-1l0.3,1.8L110.4,300.2z"/>
	<path d="M102.9,286.9l2.9-0.3l-0.3-2.6l1.4-0.1l0.3,2.6l5.5-0.5c1.3-0.1,1.9-0.6,1.8-1.6c0-0.5-0.1-0.8-0.2-1.1l1.4-0.2
		c0.2,0.3,0.3,0.9,0.4,1.6c0.1,0.9-0.1,1.6-0.6,2.1c-0.5,0.6-1.4,0.9-2.6,1l-5.5,0.6l0.2,1.6l-1.4,0.1l-0.2-1.6l-2.4,0.2
		L102.9,286.9z"/>
	<path d="M114.6,266.8c0.3,0.7,0.7,2,0.7,3.7c0.1,4-2.4,7-7,7.1c-4.4,0.1-7.5-2.9-7.6-7.3c0-1.8,0.3-2.9,0.6-3.4l1.5,0.4
		c-0.3,0.7-0.6,1.7-0.5,2.9c0.1,3.3,2.2,5.5,5.9,5.4c3.5-0.1,5.7-2.1,5.6-5.5c0-1.1-0.3-2.2-0.6-3L114.6,266.8z"/>
	<path d="M110.5,255.6c3.8,0.2,5.2,2.9,5.1,5.4c-0.2,2.7-2.3,4.7-5.5,4.6c-3.4-0.2-5.3-2.5-5.1-5.3
		C105.2,257.3,107.4,255.4,110.5,255.6z M110.1,263.7c2.2,0.1,4-1.1,4.1-2.9c0.1-1.8-1.5-3.2-3.8-3.3c-1.7-0.1-3.9,0.6-4.1,2.8
		C106.3,262.5,108.2,263.6,110.1,263.7z"/>
	<path d="M108.4,252.8c-1-0.2-1.9-0.3-2.7-0.3l0.2-1.6l1.6,0.2l0-0.1c-0.9-0.7-1.6-1.8-1.4-3.4c0.2-1.4,1.2-2.3,2.4-2.5l0,0
		c-0.5-0.4-0.9-0.9-1.1-1.3c-0.4-0.7-0.5-1.4-0.4-2.3c0.2-1.3,1.4-3.2,4.9-2.7l5.9,0.9l-0.3,1.8l-5.7-0.8c-1.9-0.3-3.2,0.2-3.4,1.7
		c-0.2,1,0.5,2,1.3,2.4c0.2,0.1,0.6,0.2,0.9,0.3l6.2,0.9l-0.3,1.8l-6-0.9c-1.6-0.2-2.9,0.3-3.1,1.7c-0.2,1.1,0.6,2.1,1.5,2.5
		c0.3,0.1,0.6,0.2,0.9,0.3l6.1,0.9l-0.3,1.8L108.4,252.8z"/>
	<path d="M111.9,235.3c-1.3-0.3-2.3-0.5-3.2-0.7l0.4-1.6l1.7,0.3l0,0c-1-1-1.5-2.4-1.1-4c0.6-2.4,3-3.7,6-3c3.5,0.9,4.8,3.5,4.2,5.8
		c-0.3,1.3-1.2,2.3-2.3,2.7l0,0l5.4,1.3l-0.4,1.8L111.9,235.3z M115,234.2c0.3,0.1,0.5,0.1,0.8,0.1c1.3,0,2.4-0.9,2.8-2.2
		c0.5-1.9-0.8-3.4-3.1-3.9c-2-0.5-3.9,0.1-4.4,2c-0.3,1.2,0.3,2.6,1.6,3.3c0.2,0.1,0.5,0.2,0.7,0.3L115,234.2z"/>
	<path d="M123.2,220.2l-1.3-0.2l0,0.1c0.6,0.8,0.9,2,0.5,3.4c-0.6,2-2.3,2.5-3.7,2.1c-2.3-0.7-3-3.2-1.7-7l-0.2-0.1
		c-0.8-0.3-2.3-0.5-2.9,1.5c-0.3,0.9-0.3,1.9-0.1,2.8l-1.3,0c-0.3-1-0.2-2.2,0.2-3.5c0.9-3,3.2-3,5.1-2.4l3.6,1.2
		c0.8,0.3,1.7,0.5,2.4,0.6L123.2,220.2z M118.1,218.9c-0.7,1.9-1,4.2,0.9,4.8c1.1,0.4,1.9-0.2,2.2-1.1c0.4-1.3-0.1-2.3-0.9-2.9
		c-0.2-0.1-0.3-0.2-0.5-0.3L118.1,218.9z"/>
	<path d="M117.6,213.5c-1-0.4-1.8-0.7-2.6-0.9l0.6-1.5l1.6,0.5l0,0c-0.7-0.8-1.2-2.3-0.5-3.8c0.5-1.3,2.1-3,5.3-1.7l5.6,2.2
		l-0.7,1.7l-5.4-2.2c-1.5-0.6-3-0.5-3.7,1.1c-0.4,1.1,0,2.3,0.8,3c0.2,0.2,0.5,0.3,0.8,0.4l5.7,2.3l-0.7,1.7L117.6,213.5z"/>
	<path d="M119.8,200.9l6.4,0.6c0.7,0.1,1.5,0.2,2.2,0.3l0,0c-0.5-0.4-1.1-1-1.6-1.5l-4.5-4.4l0.8-1.8l5.4,5.6
		c2.6,2.7,3.8,4.3,4.3,5.9c0.3,1.2,0.2,2.1,0.1,2.6l-1.6-0.2c0.1-0.5,0.1-1.2-0.1-1.8c-0.1-0.6-0.5-1.5-1.2-2.3
		c-0.1-0.2-0.2-0.3-0.3-0.3c-0.1,0-0.2-0.1-0.5-0.1l-10.1-0.6L119.8,200.9z"/>
	<path d="M131.5,197.8c-0.7-0.4-0.9-1.1-0.6-1.7c0.3-0.7,1.1-0.8,1.7-0.5c0.7,0.4,0.9,1,0.6,1.7
		C132.9,197.9,132.1,198.1,131.5,197.8z"/>
</g>
</svg>
