<?xml version="1.0" encoding="utf-8"?>
<!-- Generator: Adobe Illustrator 22.1.0, SVG Export Plug-In . SVG Version: 6.00 Build 0)  -->
<svg version="1.1" id="Layer_1" xmlns="http://www.w3.org/2000/svg" xmlns:xlink="http://www.w3.org/1999/xlink" x="0px" y="0px"
	 viewBox="0 0 560 560" style="enable-background:new 0 0 560 560;" xml:space="preserve">
<style type="text/css">
	.st0{display:none;}
	.st1{display:inline;}
</style>
<title>Asset 1</title>
<g id="Layer_2_1_">
	<g id="Layer_1-2">
		<path d="M248.5,220.9v31.4h-28.1v38.4h-10.3v-38.3h-1.4c-4.6,0-9.2,0-13.8,0c-0.9,0-1.2-0.3-1.2-1.5c0.1-3,0-5.9,0-9.1h47v-10.3
			c-0.4,0-0.9-0.1-1.3-0.1c-26.3,0-52.7,0-79,0c-1.1,0-1.3,0.5-1.3,1.8c0,11,0,21.9,0,32.9c0,1.5-0.3,1.9-1.4,1.8
			c-2.2-0.1-4.3-0.1-6.5-0.1v-47.1h97.3V220.9z"/>
		<path d="M151.2,280.3c8.1,0,16.3,0.1,24.4,0c3,0,4.5-2,4.5-5.9c0.1-6.9,0-13.9,0-20.8c0-0.4-0.1-0.7-0.1-1.1h-8.7v-10.6h19.2v2
			c0,11.5-0.1,23,0,34.5c0,5.2-2.4,9.2-5.5,10.8c-2,1.1-4.1,1.6-6.2,1.6c-6.1-0.1-12.2,0-18.3-0.1c-1.1,0-1.4,0.5-1.3,1.9
			c0.1,1.8,0.1,3.5,0,5.3c0,1.1,0.3,1.4,1,1.4c0.7-0.1,1.4,0,2.1,0h78.5v-36.4h7.8v46.9h-95.7c-0.5,0-1,0-1.6,0.1L151.2,280.3z"/>
		<path d="M344,309.8v-39.6c0.4,0,0.6-0.1,0.9-0.1c4.2,0.1,8.4,0,12.6,0.3c3.2,0.2,5.6,2.4,6.8,6.6c1.1,4,0.1,8.2-2.5,10.7
			c-0.3,0.3-0.7,0.6-1.1,1c0.2,0.2,0.4,0.3,0.6,0.5c5,2.5,5.8,9.7,3.7,14.9c-1.4,3.6-3.9,4.9-6.6,5.5c-0.9,0.2-1.8,0.3-2.7,0.3
			C351.9,309.8,348,309.8,344,309.8z M347.7,305.4c3.5-0.2,7-0.1,10.5-0.6c2.8-0.4,4.1-3.1,4-7c-0.1-3.3-1.7-5.7-4.4-6.1
			c-1.9-0.3-3.8-0.3-5.7-0.3c-1.4,0-2.9,0-4.4,0V305.4z M347.7,280.7c0,1.7,0,3.4,0,5.1c0,0.7,0.2,1.1,0.8,1.1
			c2.8-0.1,5.7,0,8.5-0.3c2.5-0.2,4-2.4,4-5.6c0.1-3.3-1.2-5.8-3.7-6.1c-3-0.4-6-0.3-9-0.3c-0.2,0-0.6,0.7-0.6,1
			C347.6,277.4,347.7,279,347.7,280.7L347.7,280.7z"/>
		<path d="M310.3,309.8c-1.7,0-3,0.1-4.3,0c-0.4,0-0.8-0.6-1.1-1c-1.9-3.8-3.8-7.6-5.6-11.5c-1.7-3.7-4.1-5.6-7.4-5.2
			c-1.2,0.2-2.5,0-3.8,0v17.6h-3.7v-21.8c0.4,0,0.8-0.1,1.3-0.1c4,0,7.9,0,11.9-0.1c0.7,0,1.4-0.1,2.1-0.3c2.9-0.8,4.4-3.2,4.2-6.9
			c-0.1-3.2-1.9-5.7-4.7-5.8c-3.9-0.2-7.8-0.2-11.7-0.2c-0.2,0-0.4,0-0.7,0c-2.9,0-2.9,0-2.4-4c0.1-0.1,0.3-0.1,0.4-0.1
			c5.2,0.1,10.4,0,15.6,0.3c3.3,0.1,5.7,2.2,6.9,6.5c1.1,4.1,0.7,7.9-1.6,11.2c-1.4,1.9-3.2,2.8-5.1,3.3c-0.3,0.1-0.5,0.2-1,0.3
			C304.9,296.1,306.7,303.5,310.3,309.8z"/>
		<path d="M314.3,270.2h3.7v1.8c0,7.5,0,15,0,22.5c0,1.4,0.1,2.8,0.3,4.2c0.5,3.9,2.3,6.4,5.3,6.9c1.5,0.3,3.1,0.2,4.6-0.1
			c3.3-0.8,4.7-3,5.2-7.7c0.1-1.4,0.2-2.9,0.2-4.4c0-7.1,0-14.3,0-21.4v-1.9h3.7c0,0.5,0.1,1.1,0.1,1.6c0,7.7,0,15.5,0,23.2
			c0,1.6-0.2,3.2-0.4,4.8c-0.7,5.5-3.3,8.8-7.2,10.1c-2.7,0.9-5.6,0.8-8.3-0.2c-4.2-1.5-6.3-5.4-6.8-11c-0.2-1.6-0.2-3.2-0.3-4.8
			c0-7.4,0-14.9,0-22.3C314.2,271.2,314.2,270.8,314.3,270.2z"/>
		<path d="M316.2,227.3c0.7,0,1.4-0.1,2.1,0c0.4,0.2,0.7,0.6,0.9,1.1c3.1,7.8,6.3,15.7,9.3,23.5c0.3,0.7,0.6,1.4,1.1,1.9v-26.4h2.4
			v34.3c-0.7,0-1.4,0.1-2.1-0.1c-0.4-0.1-0.8-0.7-1-1.2c-3.2-7.9-6.3-15.9-9.4-23.8c-0.2-0.6-0.5-1.2-1-1.6v2c0,7.5,0,15,0,22.5
			c0,2.2,0,2.2-1.7,2.2c-0.2,0-0.4-0.1-0.8-0.1L316.2,227.3z"/>
		<path d="M380.8,261.5c-2.5,0.4-2.5,0.4-2.5-2.6c0-9.9,0-19.8,0-29.7c0-0.6,0.2-1.7,0.5-1.9c1-0.6,2.2,0,2.6,1
			c2.2,5.6,4.4,11.2,6.6,16.8c1.1,2.8,2.2,5.6,3.3,8.4c0.1,0.2,0.1,0.4,0.2,0.6l0.3-0.2v-26.5h2.4v34.3c-0.7,0-1.4,0.1-2.1-0.1
			c-0.4-0.1-0.8-0.7-1-1.2c-3-7.6-6.1-15.2-9.1-22.9c-0.3-0.9-0.8-1.7-1.3-2.5L380.8,261.5z"/>
		<path d="M256.7,274.6v-4.4H280c0,1.2,0.1,2.4,0,3.6c0,0.3-0.6,0.7-0.9,0.8c-2.4,0.1-4.9,0-7.3,0h-1.5v35.1h-3.8v-1.8
			c0-10.5,0-21,0-31.5c0-1.5-0.4-1.9-1.4-1.8C262.3,274.7,259.6,274.6,256.7,274.6z"/>
		<path d="M272.4,245.2c0-5.1,0.5-9.5,2.5-13.3c3.8-7.4,11.7-6.9,14.8,1c2.9,7.2,2.9,14.7,0.4,22.1c-1.6,4.7-4.4,7.4-8.4,7.3
			c-4-0.2-6.4-3.4-8-8C272.8,251.4,272.3,248.3,272.4,245.2z M289.4,245.5c-0.2-3.4-0.4-6.7-1.5-9.8c-1.2-3.3-3.1-5.4-6-5.2
			s-4.9,2.4-5.8,5.9c-1.4,5.3-1.6,10.9,0,16.2c1,3.5,2.9,5.9,5.9,6s5-2,6.1-5.6C288.7,250.6,288.9,248,289.4,245.5z"/>
		<path d="M374.6,244.5c0,3.3-0.4,6.6-1.4,9.7c-1.5,4.4-3.8,7.5-7.5,8c-4,0.5-7-2-8.7-6.6c-2.9-7.9-2.9-16,0.6-23.5
			c3.7-7.8,11.9-6.9,15.1,1.4C374.1,236.9,374.6,240.6,374.6,244.5z M357.7,243.9c0.2,2.2,0.2,3.6,0.4,5.1c0.2,1.4,0.5,2.8,1,4.1
			c1.2,3.3,3,5.5,5.9,5.5c3-0.1,4.9-2.4,5.9-5.9c1.6-5.5,1.5-11,0-16.5c-0.7-2.5-2-4.5-4-5.4c-3.3-1.5-7,1-8.1,5.9
			C358.1,239.3,357.9,242,357.7,243.9z"/>
		<path d="M351.4,236.8l-2.2,0.4c-0.1-0.3-0.2-0.5-0.3-0.8c-0.4-5-3.4-6.5-6.6-5.6c-2.3,0.7-3.5,3.2-3.1,6.2
			c0.3,1.7,1.1,2.7,2.2,3.2c1.8,0.9,3.7,1.6,5.5,2.5c2.9,1.4,4.8,4,5.1,8.3c0.5,6.2-2.8,11.3-7.5,11.3c-4.8,0-7.6-3-8.5-9.1
			c-0.3-2.3-0.2-2.5,1.5-2.6c0.2,0,0.4,0,0.7,0c0.1,0.8,0.2,1.5,0.3,2.2c1.1,6,6.7,6.7,9.2,4.3c2.5-2.3,2.3-7.5-0.4-9.4
			c-1.1-0.8-2.3-1.2-3.5-1.8c-1.1-0.5-2.1-0.9-3.2-1.5c-3.1-1.7-4.7-5.6-4.1-9.8c0.6-4.7,2.9-7.6,6.5-7.9
			C348.1,226.3,351.6,230.6,351.4,236.8z"/>
		<path d="M298.1,241.4h10.8v-14.1h2.5v34.1c-0.1,0.1-0.1,0.1-0.2,0.1c-2.3,0.2-2.3,0.2-2.3-2.8c0-3.9,0-7.8,0-11.8v-1.7h-2.3
			c-2.4,0-4.8,0.1-7.2,0c-1,0-1.3,0.3-1.3,1.7c0.1,4.1,0,8.2,0,12.4c0,2.5,0,2.5-1.9,2.3c-0.2,0-0.4-0.1-0.6-0.1v-34.3
			c0.5,0,1.1,0.1,1.6,0c0.8-0.1,1,0.4,1,1.3c0,3.8,0,7.5,0,11.3L298.1,241.4z"/>
		<path d="M268.5,227.4c0,0.6,0.1,1.1,0.1,1.5c0,7.5,0.1,15.1,0,22.6c0,2.2-0.3,4.4-0.8,6.5c-0.7,3-2.6,4.3-5,4.2
			c-2.2,0-3.8-1.4-4.6-4.4c-0.4-1.8-0.6-3.7-0.9-5.7l2.3-0.6c0.2,1.5,0.3,2.9,0.6,4.2c0.4,1.7,1.3,2.6,2.6,2.6
			c1.3,0,2.3-0.8,2.8-2.5c0.2-0.6,0.2-1.2,0.3-1.8c0.1-5.5,0.1-10.9,0.2-16.4c0-3.4,0-6.8,0-10.3L268.5,227.4z"/>
		<path d="M393.7,305.3v4.4h-22.8c0-0.1-0.1-0.3-0.1-0.5c-0.2-3.9-0.2-3.9,2.7-3.9H393.7L393.7,305.3z"/>
		<path d="M392.8,270.2v4.3h-22v-4.3H392.8z"/>
		<path d="M392.8,287.2v4.2h-22v-4.2H392.8z"/>
	</g>
</g>
<g class="st0">
	<g class="st1">
		<path d="M278.9,106.6l-0.6,12.1l-2.2-0.1l0.6-12.1L278.9,106.6z"/>
		<path d="M285.8,107.2l7,0.8l-0.2,1.8l-4.8-0.6l-0.4,3.3l4.4,0.5l-0.2,1.8l-4.4-0.5l-0.6,5.1l-2.2-0.3L285.8,107.2z"/>
		<path d="M302.2,117.4c-0.6,3.2-3.1,4.2-5.3,3.8c-2.4-0.5-4-2.5-3.5-5.2c0.5-2.8,2.7-4.2,5.3-3.7
			C301.3,112.7,302.7,114.8,302.2,117.4z M295.7,116.3c-0.3,1.7,0.3,3.1,1.6,3.3c1.2,0.2,2.3-0.8,2.7-2.5c0.3-1.4-0.1-3-1.6-3.3
			C296.8,113.5,295.9,114.9,295.7,116.3z"/>
		<path d="M304.4,116.5c0.3-1.1,0.5-2,0.6-2.8l1.9,0.5l-0.3,1.6h0.1c0.7-1.1,1.9-1.5,2.8-1.2c0.2,0.1,0.3,0.1,0.5,0.2l-0.5,2
			c-0.2-0.1-0.4-0.2-0.6-0.2c-1-0.2-1.9,0.2-2.3,1.2c-0.1,0.2-0.2,0.4-0.2,0.6l-1.1,4.4l-2.2-0.5L304.4,116.5z"/>
		<path d="M319.2,117.7c-0.2,0.6-0.5,1.2-0.8,2.4l-1.4,4.8c-0.5,1.8-1.3,2.9-2.4,3.4s-2.4,0.4-3.6,0c-1.1-0.3-2.1-0.9-2.7-1.5
			l0.9-1.5c0.4,0.5,1.2,1.1,2.3,1.4c1.4,0.4,2.6,0,3.2-1.8l0.2-0.7l0,0c-0.7,0.6-1.7,0.8-2.8,0.5c-2.1-0.6-3-2.8-2.3-5.2
			c0.8-2.8,3.1-3.9,5.1-3.3c1.3,0.4,1.9,1.2,2,2l0,0l0.4-1.1L319.2,117.7z M316,120.4c0.1-0.2,0.1-0.4,0.1-0.6
			c0-0.8-0.4-1.6-1.3-1.9c-1.2-0.4-2.4,0.4-2.9,2.1c-0.4,1.4-0.1,2.8,1.3,3.2c0.8,0.2,1.6-0.1,2.1-0.8c0.1-0.2,0.2-0.5,0.3-0.7
			L316,120.4z"/>
		<path d="M321.5,123.8c-0.5,1.5,0.4,2.6,1.7,3.1c1,0.4,1.7,0.5,2.4,0.5l-0.2,1.5c-0.8,0-1.9-0.1-3.1-0.6c-2.7-1-3.6-3.2-2.7-5.7
			c0.8-2.3,3-3.9,5.7-2.9s2.7,3.5,2,5.3c-0.1,0.4-0.3,0.7-0.4,0.8L321.5,123.8z M325.6,123.7c0.3-0.8,0.4-2.1-1-2.6
			c-1.3-0.5-2.2,0.5-2.6,1.3L325.6,123.7z"/>
		<path d="M334,120.7l-1,2.3l1.9,0.8l-0.7,1.5l-1.9-0.8l-1.5,3.5c-0.4,1-0.4,1.6,0.4,1.9c0.3,0.2,0.6,0.2,0.8,0.3l-0.6,1.6
			c-0.4,0-0.9-0.2-1.6-0.4c-0.7-0.3-1.3-0.8-1.5-1.4c-0.2-0.7-0.1-1.5,0.3-2.5l1.6-3.8l-1.1-0.5l0.7-1.5l1.1,0.5l0.8-1.8L334,120.7z
			"/>
		<path d="M337.9,135l3.3-12.1l2.1,1.1l-1.7,5.4c-0.5,1.4-1,2.9-1.4,4.1l0,0c0.8-1,1.8-2.1,2.8-3.3l3.8-4.2l2,1.1l-1.7,5.5
			c-0.4,1.4-0.9,2.7-1.3,3.9l0,0c0.8-1.1,1.8-2.1,2.8-3.3l3.8-4.2l2,1.1l-8.7,9l-2.1-1.1l1.7-5.6c0.4-1.3,0.8-2.5,1.3-3.7l0,0
			c-0.8,1-1.6,1.9-2.6,3l-4,4.3L337.9,135z"/>
		<path d="M356.6,131l1.8,1.2l-2.9,4.3l0,0c0.5-0.2,1-0.3,1.5-0.2c0.5,0,1,0.2,1.5,0.5c1.2,0.8,2,2.5,0.4,4.9L356,146l-1.8-1.2
			l2.7-4.1c0.7-1.1,0.9-2.1-0.2-2.8c-0.7-0.5-1.5-0.3-2.1,0.1c-0.2,0.1-0.3,0.3-0.5,0.5l-2.9,4.4l-1.8-1.2L356.6,131z"/>
		<path d="M361.8,150.3l0.5-0.9l0,0c-0.8,0.2-1.9,0.1-2.8-0.6c-1.4-1.1-1.4-2.7-0.6-3.7c1.3-1.8,3.6-1.4,6.1,0.5l0.1-0.1
			c0.3-0.5,0.8-1.4-0.5-2.3c-0.7-0.5-1.6-0.8-2.3-0.9l0.5-1.4c0.8,0.1,1.9,0.5,3,1.3c2.2,1.7,1.8,3.6,0.6,5.1l-1.9,2.5
			c-0.5,0.6-0.9,1.3-1.2,1.8L361.8,150.3z M364.1,146.7c-1.2-1-2.6-1.6-3.4-0.6c-0.5,0.7-0.3,1.3,0.2,1.8c0.7,0.5,1.6,0.5,2.1,0.1
			c0.1-0.1,0.2-0.2,0.3-0.3L364.1,146.7z"/>
		<path d="M374.2,145.9l-1.6,1.9l1.6,1.4l-1.1,1.3l-1.6-1.4L369,152c-0.7,0.8-0.8,1.4-0.2,2c0.3,0.2,0.5,0.4,0.7,0.5l-1.1,1.3
			c-0.3-0.1-0.8-0.4-1.4-0.9s-1-1.2-1-1.8c0-0.7,0.3-1.4,1.1-2.3l2.7-3.1l-1-0.8l1.1-1.3l1,0.8l1.3-1.5L374.2,145.9z"/>
		<path d="M381.2,153.7l-2.5-2.4l1.3-1.3l6.5,6.4l-1.3,1.3l-2.5-2.5l-7.2,7.3L374,161L381.2,153.7z"/>
		<path d="M382.7,164.5c-1.1,1.1-0.8,2.5,0.1,3.5c0.7,0.8,1.3,1.2,1.9,1.5l-0.9,1.3c-0.7-0.3-1.6-1-2.5-1.9
			c-1.9-2.1-1.7-4.5,0.3-6.3c1.8-1.6,4.5-2,6.4,0.1s0.8,4.4-0.7,5.7c-0.3,0.3-0.6,0.5-0.7,0.6L382.7,164.5z M386.4,166.4
			c0.6-0.5,1.4-1.7,0.4-2.8c-0.9-1-2.2-0.6-2.9-0.1L386.4,166.4z"/>
		<path d="M392.6,168.4l-0.6,1.8c-0.2,0.5-0.4,1-0.6,1.5l0,0c0.5-0.1,1-0.2,1.6-0.3l1.9-0.2l1.5,1.9l-5.1,0.3l-1.7,5.2l-1.6-2
			l0.7-1.9c0.2-0.5,0.4-1,0.6-1.5l0,0c-0.5,0.1-1.1,0.2-1.6,0.3l-2,0.3l-1.5-1.9l5.4-0.4l1.5-5L392.6,168.4z"/>
		<path d="M400.9,175.1l-2,1.5l1.2,1.7l-1.3,1l-1.2-1.7l-3.1,2.3c-0.9,0.6-1.1,1.2-0.7,1.9c0.2,0.3,0.4,0.5,0.6,0.6l-1.3,1
			c-0.3-0.2-0.7-0.6-1.1-1.2c-0.5-0.7-0.6-1.4-0.5-2c0.1-0.7,0.7-1.3,1.6-2l3.4-2.4l-0.7-1l1.3-1l0.7,1l1.6-1.2L400.9,175.1z"/>
		<path d="M407.3,183.2l-10.3,6.5l-1.2-1.9l10.3-6.5L407.3,183.2z"/>
		<path d="M400,190.6c0,0.6,0.2,1.6,0.6,2.3c0.5,0.8,1.1,1,1.6,0.7s0.6-0.8,0.4-1.9c-0.3-1.8,0.1-2.9,1-3.4c1.3-0.8,3-0.3,4,1.5
			c0.5,0.8,0.7,1.7,0.7,2.3l-1.6,0.4c0-0.4-0.1-1.2-0.5-1.9s-0.9-0.9-1.4-0.6c-0.5,0.3-0.5,0.8-0.3,1.9c0.3,1.7,0,2.7-1.1,3.4
			c-1.4,0.8-3,0.3-4.2-1.7c-0.5-0.9-0.8-1.9-0.8-2.6L400,190.6z"/>
		<path d="M408.2,209.9c-0.6-0.6-1.6-1.8-2.3-3.3c-0.9-1.9-1-3.5-0.5-5c0.5-1.4,1.7-2.7,3.3-3.4c3.5-1.6,6.9-0.2,8.6,3.5
			c0.6,1.4,0.8,2.5,0.8,3.2l-1.8,0.3c0-0.7-0.1-1.6-0.7-2.7c-1.1-2.3-3.2-3.4-5.8-2.2c-2.5,1.2-3.3,3.4-2.2,5.7
			c0.3,0.7,0.7,1.2,0.9,1.4l2.7-1.3l-0.9-1.9l1.6-0.7l1.8,3.9L408.2,209.9z"/>
		<path d="M415.5,218.2c-3,1.1-5.2-0.5-6-2.6c-0.9-2.3,0.1-4.7,2.7-5.7c2.7-1,5,0.1,5.9,2.6C419.1,215,418,217.3,415.5,218.2z
			 M413.1,212c-1.6,0.6-2.5,1.8-2,3.1c0.4,1.2,1.9,1.6,3.6,1c1.3-0.5,2.5-1.6,2-3C416.1,211.6,414.5,211.5,413.1,212z"/>
		<path d="M411.8,221.4l8.3-2.7l0.7,2.1l-8.3,2.7L411.8,221.4z M423.2,220.2c-0.6,0.2-1.3-0.1-1.5-0.8s0.1-1.3,0.8-1.5
			c0.6-0.2,1.3,0.1,1.5,0.8C424.2,219.3,423.9,220,423.2,220.2z"/>
		<path d="M419.2,224c1-0.3,1.8-0.5,2.5-0.7l0.5,1.9l-1.2,0.4l0,0c0.8,0.2,1.8,0.9,2.2,2.3c0.4,1.5-0.1,3.3-2.8,4l-5,1.4l-0.6-2.1
			l4.8-1.3c1.2-0.3,2-1,1.7-2.2c-0.2-0.9-1-1.3-1.7-1.3c-0.2,0-0.5,0-0.7,0.1l-5,1.3l-0.6-2.1L419.2,224z"/>
		<path d="M425.9,241.5c-0.6,0.1-1.3,0.2-2.5,0.4l-4.9,1c-1.8,0.4-3.2,0.2-4.1-0.5c-1-0.7-1.5-1.9-1.7-3.1c-0.2-1.1-0.2-2.3,0.1-3.1
			l1.8,0.1c-0.2,0.6-0.4,1.6-0.2,2.6c0.3,1.4,1.2,2.3,3.1,2l0.7-0.1l0,0c-0.8-0.3-1.5-1.1-1.8-2.3c-0.4-2.1,1-4,3.5-4.5
			c2.8-0.6,4.9,0.9,5.3,3c0.3,1.3-0.2,2.2-0.8,2.8l0,0l1.2-0.1L425.9,241.5z M422,240c0.2,0,0.4-0.1,0.6-0.2c0.8-0.4,1.2-1.1,1-2.1
			c-0.2-1.2-1.5-1.9-3.2-1.6c-1.5,0.3-2.5,1.3-2.2,2.6c0.2,0.8,0.8,1.4,1.7,1.5c0.2,0,0.5,0,0.8-0.1L422,240z"/>
		<path d="M430.5,250l-4.8,0.5l0.5,5.1l4.8-0.5l0.2,2.2l-12.1,1.2l-0.2-2.2l5.3-0.5l-0.5-5.1l-5.3,0.5l-0.2-2.2l12.1-1.2L430.5,250z
			"/>
		<path d="M423,262.2c-1.6,0.1-2.2,1.4-2.2,2.8c0,1,0.2,1.7,0.5,2.4l-1.5,0.4c-0.3-0.7-0.6-1.8-0.6-3c-0.1-2.8,1.6-4.6,4.3-4.6
			c2.4-0.1,4.7,1.3,4.8,4.2c0.1,2.8-2.2,3.8-4.2,3.9c-0.4,0-0.7,0-0.9-0.1L423,262.2z M424.7,266c0.8,0,2.1-0.4,2.1-1.9
			c0-1.4-1.3-1.9-2.2-2L424.7,266z"/>
		<path d="M425.3,270c1.2,0,2,0,2.8,0v1.9h-1.7v0.1c1.2,0.5,1.8,1.5,1.8,2.4c0,0.2,0,0.3-0.1,0.5H426c0-0.2,0.1-0.4,0.1-0.6
			c0-1.1-0.6-1.8-1.6-2c-0.2,0-0.4-0.1-0.7-0.1l-4.5-0.1v-2.2L425.3,270z"/>
		<path d="M422.9,278c-1.6-0.1-2.4,1.1-2.5,2.5c-0.1,1,0,1.8,0.2,2.4l-1.5,0.2c-0.3-0.8-0.4-1.8-0.3-3.1c0.2-2.8,2.1-4.4,4.8-4.2
			c2.4,0.2,4.6,1.8,4.4,4.6c-0.2,2.8-2.6,3.6-4.5,3.5c-0.4,0-0.7-0.1-0.9-0.1L422.9,278z M424.1,281.9c0.8,0.1,2.2-0.2,2.3-1.7
			c0.1-1.4-1.1-2-2-2.2L424.1,281.9z"/>
		<path d="M419.7,285.1c0.8,0.1,1.4,0.7,1.3,1.5s-0.7,1.3-1.6,1.2c-0.8-0.1-1.3-0.7-1.3-1.5C418.2,285.5,418.9,285,419.7,285.1z"/>
		<path d="M425.4,312.7l-11.7-3.2l0.6-2.1l11.7,3.2L425.4,312.7z"/>
		<path d="M423.4,319.3l-2.3,6.6l-1.7-0.6l1.6-4.5l-3.2-1.1l-1.5,4.2l-1.7-0.6l1.5-4.2l-4.9-1.7l0.7-2.1L423.4,319.3z"/>
		<path d="M409.8,333.1c-3-1.3-3.4-3.9-2.5-6c1-2.3,3.3-3.4,5.9-2.3s3.5,3.6,2.5,6C414.6,333.2,412.3,334.1,409.8,333.1z
			 M412.3,326.9c-1.6-0.7-3.1-0.4-3.6,0.8c-0.5,1.2,0.3,2.5,1.9,3.2c1.3,0.5,3,0.6,3.6-0.8S413.7,327.5,412.3,326.9z"/>
		<path d="M410.3,335.4c1.1,0.5,1.8,0.9,2.6,1.2l-0.8,1.7l-1.5-0.7v0.1c0.9,0.9,1,2.1,0.6,3c-0.1,0.2-0.2,0.3-0.3,0.4l-1.9-0.9
			c0.1-0.2,0.2-0.3,0.3-0.6c0.5-0.9,0.2-1.9-0.6-2.5c-0.2-0.1-0.4-0.2-0.6-0.3l-4.1-2l1-2L410.3,335.4z"/>
		<path d="M405.9,349.7c-0.5-0.3-1.1-0.7-2.2-1.3l-4.3-2.4c-1.6-0.9-2.6-1.9-2.8-3.1c-0.3-1.2,0.1-2.4,0.7-3.5
			c0.5-1,1.3-1.9,2.1-2.3l1.2,1.2c-0.6,0.3-1.3,1-1.8,1.9c-0.7,1.3-0.6,2.6,1.1,3.5l0.7,0.4l0,0c-0.4-0.8-0.4-1.8,0.1-2.9
			c1.1-1.9,3.4-2.4,5.5-1.1c2.5,1.4,3.1,3.9,2.1,5.7c-0.7,1.2-1.6,1.5-2.4,1.6l0,0l1,0.6L405.9,349.7z M404,346
			c0.2,0.1,0.4,0.2,0.6,0.2c0.8,0.2,1.7-0.1,2.1-0.9c0.6-1.1,0.1-2.4-1.4-3.3c-1.3-0.7-2.7-0.7-3.4,0.5c-0.4,0.7-0.3,1.6,0.3,2.2
			c0.2,0.2,0.4,0.3,0.6,0.5L404,346z"/>
		<path d="M399.5,350.5c-1.4-0.8-2.6-0.2-3.4,1c-0.6,0.9-0.8,1.6-1,2.2l-1.5-0.6c0.1-0.8,0.5-1.8,1.2-2.9c1.5-2.4,3.9-2.8,6.2-1.4
			c2,1.3,3.1,3.8,1.6,6.2c-1.5,2.4-4,1.9-5.6,0.8c-0.3-0.2-0.6-0.4-0.7-0.6L399.5,350.5z M398.7,354.6c0.7,0.4,2,0.9,2.8-0.4
			c0.7-1.1,0-2.3-0.7-2.9L398.7,354.6z"/>
		<path d="M399.7,363.5l-2-1.5l-1.2,1.7l-1.3-1l1.2-1.7l-3.1-2.3c-0.9-0.6-1.5-0.7-2,0c-0.2,0.3-0.4,0.6-0.4,0.8l-1.4-1
			c0.1-0.3,0.4-0.9,0.8-1.4c0.5-0.7,1.1-1,1.7-1.1c0.7-0.1,1.5,0.2,2.4,0.9l3.3,2.4l0.7-1l1.3,1l-0.7,1l1.6,1.2L399.7,363.5z"/>
		<path d="M385,364.2l11.1,5.8l-1.6,1.8l-4.9-2.8c-1.3-0.8-2.7-1.6-3.7-2.2l0,0c0.8,1,1.7,2.2,2.6,3.5l3.3,4.6l-1.5,1.8l-5-2.8
			c-1.3-0.7-2.5-1.4-3.6-2.2l0,0c0.9,1,1.7,2.2,2.6,3.4l3.3,4.6l-1.5,1.7l-6.9-10.5l1.6-1.8l5.1,2.8c1.2,0.7,2.2,1.3,3.3,2l0,0
			c-0.8-1-1.6-2-2.4-3.1l-3.4-4.8L385,364.2z"/>
		<path d="M384.9,383.3l-1.6,1.5l-3.6-3.8l0,0c0.1,0.5,0.1,1-0.1,1.5c-0.1,0.5-0.4,0.9-0.8,1.3c-1.1,1-2.9,1.4-4.8-0.6l-3.6-3.7
			l1.6-1.5l3.4,3.6c0.9,0.9,1.9,1.3,2.8,0.5c0.6-0.6,0.7-1.4,0.4-2.1c-0.1-0.2-0.2-0.4-0.4-0.5l-3.6-3.8l1.6-1.5L384.9,383.3z"/>
		<path d="M364.9,384.2l0.7,0.6l0,0c0-0.9,0.3-1.8,1.2-2.6c1.4-1.1,2.9-0.8,3.8,0.2c1.4,1.7,0.6,3.8-1.8,5.9l0.1,0.1
			c0.4,0.4,1.2,1,2.3,0c0.7-0.6,1.2-1.3,1.4-2l1.3,0.8c-0.2,0.7-0.9,1.8-1.9,2.6c-2.1,1.8-3.9,1-5.1-0.5l-2-2.4
			c-0.5-0.6-1-1.2-1.5-1.5L364.9,384.2z M367.9,387.3c1.2-1,2.1-2.2,1.3-3.2c-0.6-0.7-1.2-0.6-1.8-0.1c-0.7,0.6-0.8,1.4-0.5,2
			c0.1,0.1,0.2,0.3,0.3,0.4L367.9,387.3z"/>
		<path d="M366.5,397.2l-1.5-2l-1.7,1.3l-1-1.3l1.7-1.3l-2.3-3.1c-0.7-0.9-1.2-1.1-1.9-0.6c-0.3,0.2-0.5,0.4-0.6,0.6l-1.1-1.3
			c0.2-0.3,0.6-0.7,1.1-1.2c0.6-0.5,1.4-0.7,2-0.6c0.7,0.1,1.3,0.6,2,1.5l2.5,3.3l1-0.8l1,1.3l-1,0.8l1.2,1.6L366.5,397.2z"/>
		<path d="M357.4,402.5l2.9-1.9l1,1.6l-7.7,5l-1-1.6l2.9-1.9L350,395l1.9-1.2L357.4,402.5z"/>
		<path d="M346.5,401.6c-0.8-1.4-2.2-1.4-3.5-0.7c-0.9,0.5-1.4,1-1.9,1.5l-1-1.2c0.5-0.6,1.3-1.4,2.4-2c2.5-1.4,4.8-0.7,6.1,1.6
			c1.2,2.1,1,4.8-1.4,6.2c-2.5,1.4-4.4-0.2-5.4-1.9c-0.2-0.4-0.3-0.7-0.4-0.8L346.5,401.6z M343.9,404.8c0.4,0.7,1.3,1.7,2.6,1
			c1.2-0.7,1.1-2,0.7-2.9L343.9,404.8z"/>
		<path d="M340.6,410.5l-1.7-1c-0.5-0.3-0.9-0.6-1.3-0.9l0,0c0,0.6,0,1.1-0.1,1.6l-0.2,1.9l-2.2,1.1l0.8-5.1l-4.7-2.8l2.3-1.1
			l1.7,1.1c0.5,0.3,0.9,0.6,1.3,0.9l0,0c0-0.6,0-1.1,0.1-1.6l0.1-2l2.2-1.1l-0.8,5.3l4.5,2.6L340.6,410.5z"/>
		<path d="M332.3,417.1l-1-2.3l-1.9,0.8l-0.6-1.5l1.9-0.8l-1.5-3.6c-0.4-1-0.9-1.4-1.7-1c-0.3,0.1-0.6,0.3-0.8,0.4l-0.7-1.5
			c0.3-0.2,0.8-0.6,1.4-0.8c0.7-0.3,1.5-0.3,2-0.1c0.6,0.3,1.2,0.9,1.6,2l1.6,3.8l1.2-0.5l0.6,1.5l-1.1,0.5l0.8,1.8L332.3,417.1z"/>
		<path d="M323,421.6l-4.1-11.4l2.1-0.7l4.1,11.4L323,421.6z"/>
		<path d="M317.4,412.8c-0.6-0.1-1.6-0.2-2.3,0.1c-0.9,0.3-1.2,0.8-1.1,1.4c0.2,0.6,0.6,0.7,1.8,0.8c1.8,0,2.8,0.7,3.1,1.7
			c0.5,1.5-0.4,3-2.4,3.6c-0.9,0.3-1.8,0.3-2.4,0.2V419c0.4,0.1,1.2,0.2,1.9-0.1c0.8-0.2,1.1-0.7,0.9-1.3c-0.2-0.5-0.6-0.7-1.8-0.7
			c-1.7-0.1-2.6-0.6-3-1.8c-0.5-1.5,0.4-3,2.6-3.7c1-0.3,2-0.4,2.7-0.2L317.4,412.8z"/>
		<path d="M296.7,416.7c0.7-0.4,2.1-1.1,3.7-1.5c2-0.4,3.6-0.3,5,0.6c1.3,0.8,2.2,2.2,2.6,4c0.8,3.8-1.3,6.7-5.3,7.6
			c-1.5,0.3-2.7,0.3-3.3,0.1l0.1-1.8c0.7,0.1,1.6,0.2,2.8-0.1c2.5-0.5,4-2.4,3.4-5.2c-0.6-2.7-2.6-3.9-5.1-3.4
			c-0.8,0.2-1.3,0.4-1.6,0.6l0.6,3l2.1-0.5l0.4,1.7l-4.2,0.9L296.7,416.7z"/>
		<path d="M287,422c-0.5-3.2,1.6-4.9,3.8-5.3c2.4-0.4,4.6,1.1,5,3.8c0.4,2.8-1.2,4.9-3.8,5.2C289.4,426.2,287.4,424.7,287,422z
			 M293.5,421c-0.2-1.7-1.3-2.8-2.6-2.6c-1.3,0.2-2,1.5-1.7,3.3c0.2,1.4,1,2.8,2.5,2.6C293.3,424,293.7,422.5,293.5,421z"/>
		<path d="M284.7,417.7l0.8,8.7l-2.2,0.2l-0.8-8.7L284.7,417.7z M283.4,429.1c-0.1-0.7,0.4-1.2,1.1-1.3c0.7-0.1,1.3,0.4,1.3,1.1
			c0.1,0.7-0.4,1.2-1.1,1.3C284,430.3,283.5,429.8,283.4,429.1z"/>
		<path d="M280.6,424.3c0,1,0.1,1.8,0.2,2.6l-1.9,0.1l-0.2-1.3h-0.1c-0.4,0.7-1.3,1.6-2.7,1.6c-1.5,0.1-3.2-0.8-3.3-3.6l-0.2-5.2
			l2.2-0.1l0.2,4.9c0.1,1.3,0.6,2.2,1.8,2.1c0.9,0,1.5-0.7,1.7-1.4c0.1-0.2,0.1-0.5,0.1-0.7l-0.2-5.1l2.2-0.1L280.6,424.3z"/>
		<path d="M262,427.1c0.1-0.6,0.1-1.3,0.1-2.5l0.1-5c0-1.8,0.4-3.1,1.4-3.9c0.9-0.8,2.2-1,3.4-1c1.1,0,2.3,0.3,3,0.8l-0.5,1.7
			c-0.6-0.3-1.5-0.7-2.5-0.7c-1.4,0-2.5,0.7-2.6,2.6v0.7l0,0c0.5-0.8,1.4-1.3,2.6-1.2c2.2,0,3.7,1.9,3.6,4.4c-0.1,2.9-2,4.6-4.1,4.5
			c-1.3,0-2.1-0.7-2.5-1.4l0,0l-0.1,1.2L262,427.1z M264.3,423.7c0,0.2,0,0.4,0.1,0.6c0.2,0.8,0.8,1.4,1.8,1.5c1.2,0,2.2-1,2.2-2.8
			c0-1.5-0.7-2.7-2.1-2.7c-0.8,0-1.5,0.5-1.8,1.3c-0.1,0.2-0.1,0.5-0.1,0.8L264.3,423.7z"/>
		<path d="M252.7,429.8l0.6-4.8l-5.1-0.6l-0.6,4.8l-2.2-0.3l1.4-12.1l2.2,0.3l-0.6,5.3l5.1,0.6l0.6-5.3l2.2,0.3l-1.4,12.1
			L252.7,429.8z"/>
		<path d="M242.4,419.9c0.2-1.6-0.8-2.5-2.2-2.7c-1-0.2-1.7-0.2-2.5-0.1v-1.6c0.8-0.2,1.9-0.2,3.1,0c2.8,0.5,4.1,2.6,3.6,5.2
			c-0.5,2.4-2.3,4.4-5.1,3.8c-2.8-0.5-3.3-3-2.9-4.9c0.1-0.4,0.2-0.7,0.3-0.9L242.4,419.9z M238.3,420.7c-0.2,0.8-0.1,2.2,1.4,2.4
			c1.3,0.3,2.1-0.9,2.4-1.7L238.3,420.7z"/>
		<path d="M234.3,420.5c-0.3,1.1-0.5,2-0.6,2.8l-1.9-0.5l0.3-1.6H232c-0.7,1.1-1.9,1.5-2.8,1.2c-0.2-0.1-0.3-0.1-0.5-0.2l0.5-2
			c0.2,0.1,0.4,0.2,0.6,0.2c1,0.2,1.9-0.2,2.3-1.2c0.1-0.2,0.2-0.4,0.2-0.6l1.1-4.4l2.2,0.5L234.3,420.5z"/>
		<path d="M227.1,416.4c0.4-1.5-0.6-2.6-1.9-3c-1-0.3-1.7-0.3-2.4-0.3l0.1-1.6c0.8-0.1,1.9,0,3.1,0.3c2.7,0.8,3.8,3,3,5.5
			c-0.7,2.3-2.8,4.1-5.5,3.3c-2.7-0.8-2.9-3.3-2.4-5.2c0.1-0.4,0.2-0.7,0.3-0.9L227.1,416.4z M222.9,416.8c-0.2,0.8-0.3,2.1,1.1,2.6
			c1.3,0.4,2.2-0.6,2.6-1.5L222.9,416.8z"/>
		<path d="M220.7,411.7c-0.3,0.8-1,1.2-1.8,0.9c-0.8-0.3-1.1-1-0.8-1.8s1-1.2,1.8-0.9C220.7,410.2,221,411,220.7,411.7z"/>
		<path d="M182.4,405.4l6.4-10.3l1.9,1.2l-6.4,10.3L182.4,405.4z"/>
		<path d="M176.7,401.5l-5.7-4.1l1.1-1.5l3.9,2.8l2-2.7l-3.6-2.6l1.1-1.5l3.6,2.6l3-4.2l1.8,1.3L176.7,401.5z"/>
		<path d="M167.4,384.6c2.1-2.5,4.7-2.1,6.4-0.7c1.9,1.6,2.3,4.1,0.5,6.3c-1.8,2.2-4.4,2.4-6.5,0.7
			C165.8,389.2,165.7,386.6,167.4,384.6z M172.5,388.7c1.1-1.3,1.2-2.8,0.2-3.7c-1-0.8-2.4-0.4-3.6,0.9c-0.9,1.1-1.4,2.7-0.2,3.6
			C170.1,390.6,171.6,389.8,172.5,388.7z"/>
		<path d="M165,384.4c-0.8,0.9-1.4,1.5-1.9,2.1l-1.4-1.3l1.1-1.3l0,0c-1.2,0.6-2.3,0.4-3-0.3c-0.2-0.1-0.2-0.2-0.3-0.4l1.4-1.5
			c0.1,0.2,0.2,0.3,0.4,0.5c0.8,0.7,1.8,0.7,2.6,0.1c0.2-0.1,0.3-0.3,0.5-0.5l3.1-3.3l1.6,1.5L165,384.4z"/>
		<path d="M152.6,376.1c0.5-0.4,1-0.9,1.9-1.7l3.6-3.5c1.3-1.3,2.5-1.9,3.8-1.8c1.2,0.1,2.3,0.8,3.1,1.7c0.8,0.8,1.4,1.8,1.6,2.7
			l-1.5,0.8c-0.2-0.6-0.6-1.5-1.3-2.3c-1-1-2.3-1.3-3.7,0l-0.5,0.5l0,0c0.9-0.2,1.9,0.1,2.7,0.9c1.5,1.6,1.3,3.9-0.5,5.6
			c-2.1,2-4.6,1.9-6.1,0.4c-0.9-1-1-2-0.8-2.8l0,0l-0.9,0.8L152.6,376.1z M156.7,375.3c-0.2,0.1-0.3,0.3-0.4,0.5
			c-0.4,0.7-0.4,1.6,0.2,2.3c0.9,0.9,2.3,0.8,3.6-0.4c1.1-1,1.4-2.4,0.4-3.4c-0.6-0.6-1.5-0.7-2.2-0.4c-0.2,0.1-0.4,0.3-0.6,0.5
			L156.7,375.3z"/>
		<path d="M153.6,369.7c1.2-1.1,0.9-2.5,0-3.5c-0.7-0.8-1.3-1.2-1.9-1.6l0.9-1.2c0.7,0.4,1.6,1,2.4,2c1.8,2.2,1.6,4.6-0.5,6.3
			c-1.8,1.6-4.5,1.9-6.4-0.2c-1.8-2.2-0.7-4.4,0.8-5.6c0.3-0.3,0.6-0.5,0.8-0.5L153.6,369.7z M149.9,367.7c-0.6,0.5-1.4,1.6-0.4,2.8
			c0.9,1,2.2,0.7,2.9,0.2L149.9,367.7z"/>
		<path d="M141.1,366.3l2-1.5l-1.3-1.7l1.3-1l1.3,1.7l3.1-2.4c0.9-0.7,1.1-1.2,0.6-1.9c-0.2-0.3-0.4-0.5-0.6-0.6l1.3-1.1
			c0.3,0.2,0.7,0.6,1.2,1.1c0.5,0.6,0.7,1.4,0.6,1.9c-0.1,0.7-0.6,1.3-1.5,2l-3.3,2.5l0.8,1l-1.3,1l-0.8-1l-1.6,1.2L141.1,366.3z"/>
		<path d="M144.6,351.9l-8.7,9l-1.3-2l4.1-3.9c1.1-1,2.2-2.1,3.2-2.9l0,0c-1.2,0.5-2.6,1-4.1,1.5l-5.3,1.8l-1.2-2l4.1-4
			c1.1-1,2.1-1.9,3.1-2.8l0,0c-1.3,0.5-2.6,1-4,1.5l-5.3,1.8L128,348l12-3.7l1.3,2l-4.2,4.1c-1,1-1.9,1.8-2.9,2.6l0,0
			c1.2-0.5,2.3-0.9,3.7-1.4l5.6-1.8L144.6,351.9z"/>
		<path d="M126.3,346.3l-1-2l4.6-2.4l0,0c-0.5-0.1-1-0.2-1.4-0.5s-0.8-0.7-1-1.2c-0.7-1.3-0.5-3.2,2-4.5l4.6-2.4l1,2l-4.4,2.2
			c-1.1,0.6-1.8,1.4-1.2,2.5c0.4,0.8,1.2,1,1.9,1c0.2,0,0.4-0.1,0.6-0.2l4.7-2.4l1,2L126.3,346.3z"/>
		<path d="M131.2,327l-0.8,0.5l0,0c0.8,0.2,1.7,0.9,2.1,1.9c0.7,1.6-0.1,3-1.3,3.6c-2,0.9-3.8-0.5-5.1-3.4l-0.1,0.1
			c-0.5,0.2-1.3,0.8-0.7,2.2c0.3,0.8,1,1.5,1.5,1.9l-1.1,1c-0.6-0.4-1.4-1.3-2-2.6c-1.1-2.6,0.2-4,1.9-4.8l2.9-1.3
			c0.7-0.3,1.4-0.7,1.9-1L131.2,327z M127.4,328.9c0.6,1.4,1.5,2.7,2.7,2.1c0.8-0.3,0.9-1,0.7-1.7c-0.4-0.8-1.1-1.2-1.8-1.1
			c-0.2,0-0.3,0.1-0.5,0.1L127.4,328.9z"/>
		<path d="M118.2,324.8l2.3-0.9l-0.7-2l1.5-0.6l0.7,2l3.6-1.4c1-0.4,1.4-0.8,1.1-1.6c-0.1-0.4-0.3-0.6-0.4-0.8l1.6-0.6
			c0.2,0.3,0.5,0.8,0.8,1.4c0.3,0.8,0.3,1.5,0,2c-0.3,0.6-1,1.1-2.1,1.5l-3.9,1.5l0.4,1.2l-1.5,0.6l-0.4-1.2l-1.9,0.7L118.2,324.8z"
			/>
		<path d="M115.8,314.5l1,3.3l-1.8,0.5l-2.6-8.8l1.8-0.5l1,3.4l9.9-2.9l0.6,2.1L115.8,314.5z"/>
		<path d="M119.8,304.4c1.5-0.4,1.9-1.8,1.6-3.1c-0.2-1-0.5-1.7-0.9-2.3l1.4-0.7c0.5,0.7,0.9,1.6,1.2,2.9c0.6,2.8-0.7,4.8-3.3,5.4
			c-2.4,0.5-4.9-0.4-5.5-3.1c-0.6-2.8,1.5-4.2,3.3-4.6c0.4-0.1,0.7-0.1,0.9-0.1L119.8,304.4z M117.5,300.9c-0.8,0.2-2,0.8-1.7,2.3
			c0.3,1.3,1.6,1.6,2.5,1.5L117.5,300.9z"/>
		<path d="M113,296.1l1.5-1.3c0.4-0.4,0.8-0.7,1.2-1l0,0c-0.5-0.2-1-0.3-1.5-0.5l-1.8-0.7l-0.4-2.4l4.6,2.2l4-3.7l0.4,2.5l-1.6,1.3
			c-0.4,0.4-0.8,0.7-1.3,1l0,0c0.5,0.2,1,0.3,1.5,0.5l1.9,0.7l0.4,2.4l-4.9-2.3l-3.8,3.6L113,296.1z"/>
		<path d="M109.1,286.3l2.5-0.3l-0.2-2.1l1.6-0.2l0.2,2.1l3.8-0.4c1.1-0.1,1.6-0.5,1.5-1.3c0-0.4-0.1-0.7-0.2-0.8l1.7-0.2
			c0.2,0.3,0.3,0.9,0.4,1.6c0.1,0.8-0.1,1.5-0.5,2s-1.2,0.8-2.4,1l-4.1,0.5l0.1,1.2l-1.6,0.2l-0.1-1.2l-2,0.2L109.1,286.3z"/>
		<path d="M107.4,276l12.1-0.6l0.1,2.2l-12.1,0.6L107.4,276z"/>
		<path d="M117.4,273.2c0.3-0.5,0.6-1.5,0.6-2.2c0-1-0.4-1.4-1-1.4s-0.9,0.4-1.3,1.5c-0.6,1.7-1.5,2.5-2.5,2.5
			c-1.5,0-2.8-1.2-2.8-3.3c0-1,0.2-1.8,0.5-2.3l1.6,0.4c-0.2,0.4-0.5,1.1-0.5,1.9s0.4,1.2,0.9,1.2c0.6,0,0.8-0.4,1.2-1.5
			c0.5-1.6,1.3-2.4,2.6-2.4c1.6,0,2.8,1.2,2.8,3.5c0,1.1-0.2,2-0.6,2.7L117.4,273.2z"/>
		<path d="M119.6,252.3c0.2,0.8,0.5,2.3,0.4,3.9c-0.2,2-0.8,3.6-2,4.6c-1.1,1-2.7,1.5-4.6,1.4c-3.8-0.3-6.1-3.2-5.8-7.2
			c0.1-1.5,0.5-2.6,0.8-3.2l1.7,0.6c-0.3,0.6-0.6,1.4-0.7,2.7c-0.2,2.6,1.2,4.5,4,4.7c2.8,0.2,4.5-1.4,4.7-3.9
			c0.1-0.8,0-1.4-0.1-1.7l-3-0.2l-0.2,2.1l-1.7-0.1l0.3-4.3L119.6,252.3z"/>
		<path d="M117.2,241.5c3.2,0.5,4.3,2.9,4,5.1c-0.4,2.4-2.3,4.1-5.1,3.7c-2.8-0.4-4.3-2.5-3.9-5.2
			C112.5,242.6,114.6,241.1,117.2,241.5z M116.3,248c1.7,0.2,3.1-0.4,3.2-1.7c0.2-1.3-0.9-2.3-2.6-2.6c-1.4-0.2-3,0.2-3.2,1.7
			C113.5,247,114.9,247.8,116.3,248z"/>
		<path d="M111.5,236c0.6,0.1,1.1,0.7,0.9,1.5c-0.1,0.7-0.8,1.1-1.4,1c-0.7-0.1-1.1-0.7-0.9-1.4C110.2,236.2,110.8,235.9,111.5,236z
			 M122,240.5l-8.6-1.7l0.4-2.2l8.6,1.7L122,240.5z"/>
		<path d="M116.9,234.6c-1-0.2-1.8-0.4-2.5-0.6l0.5-1.9l1.3,0.2l0,0c-0.6-0.5-1.1-1.7-0.8-3.1c0.4-1.5,1.7-2.8,4.4-2.1l5.1,1.3
			l-0.5,2.2l-4.8-1.2c-1.2-0.3-2.3-0.1-2.6,1.1c-0.2,0.9,0.2,1.6,0.8,2c0.2,0.1,0.4,0.2,0.7,0.3l5,1.2l-0.5,2.2L116.9,234.6z"/>
		<path d="M119.5,216c0.5,0.2,1.2,0.5,2.4,0.8l4.7,1.5c1.7,0.6,2.9,1.3,3.4,2.4c0.5,1.1,0.3,2.4,0,3.6c-0.3,1.1-0.9,2.1-1.6,2.7
			l-1.5-1c0.5-0.4,1.1-1.2,1.4-2.2c0.4-1.4,0-2.6-1.8-3.2l-0.7-0.2l0,0c0.6,0.7,0.8,1.7,0.4,2.8c-0.7,2.1-2.9,3-5.2,2.2
			c-2.8-0.9-3.8-3.2-3.2-5.2c0.4-1.3,1.3-1.8,2.1-2l0,0l-1.1-0.4L119.5,216z M122.1,219.3c-0.2-0.1-0.4-0.1-0.6-0.1
			c-0.8,0-1.6,0.4-1.9,1.3c-0.4,1.2,0.4,2.4,2.1,2.9c1.4,0.5,2.8,0.1,3.2-1.2c0.3-0.8,0-1.6-0.7-2.1c-0.2-0.1-0.5-0.3-0.7-0.3
			L122.1,219.3z"/>
	</g>
</g>
<g>
	<path d="M146.5,174.4L141,173l-5.1,8.1l3.6,4.5l-2.1,3.3L120.9,166l0.5-0.8l27.2,5.8L146.5,174.4z M126.7,169.4l7.4,9.5l4.1-6.4
		L126.7,169.4z"/>
	<path d="M137.3,155.4l9.2,7.7c2.2,1.9,4.2,1.8,5.8-0.1c0.7-0.8,1.1-1.8,1.2-2.9c0.1-1.1-0.1-2-0.5-2.8l-10.2-8.5l2.1-2.6l14.5,12.1
		l-2.1,2.6l-2-1.7c0.3,0.8,0.4,1.8,0.1,3c-0.3,1.3-0.7,2.3-1.4,3.1c-1.3,1.6-2.8,2.4-4.4,2.5c-1.6,0.1-3.3-0.6-4.9-2l-9.5-7.9
		L137.3,155.4z"/>
	<path d="M160.5,155.6l-1.4-3.1c2.2-0.4,3.7-1,4.5-1.8c1.5-1.4,1.6-2.8,0.4-4c-0.9-0.9-2.3-1-4.4-0.2c-1.6,0.6-2.7,0.9-3.3,1
		s-1.3,0.1-1.9,0.1c-0.6-0.1-1.2-0.2-1.7-0.4s-1-0.6-1.4-1c-1.1-1.1-1.5-2.4-1.3-3.8c0.2-1.4,1-2.7,2.3-4c1-1,2.5-1.8,4.6-2.7
		l1.5,2.9c-1.7,0.2-3,0.7-4,1.6c-0.6,0.6-0.9,1.2-1.1,1.8c-0.1,0.6,0,1.2,0.4,1.6c0.8,0.9,2,1,3.4,0.5l2.5-0.9
		c1.5-0.5,2.8-0.7,3.9-0.6c1.1,0.2,2.1,0.7,3,1.6c1.2,1.2,1.7,2.6,1.5,4.1c-0.2,1.5-1,3-2.5,4.5C164.1,154.1,162.5,155,160.5,155.6z
		"/>
	<path d="M163.1,132.6l-1.7,1.4l-1.7-2.1l1.7-1.4l-2.5-3.1l1.8-3.1l3.3,4.1l4-3.2l1.7,2.1l-4,3.2l5.9,7.3c1,1.2,1.9,1.9,2.7,2.1
		s1.7-0.1,2.6-0.8c0.7-0.5,1.2-1.3,1.7-2.2l2.2,2c-0.9,1.1-1.9,2.2-3.2,3.3c-1.2,0.9-2.5,1.3-4,1.1s-2.8-1-3.8-2.3L163.1,132.6z"/>
	<path d="M171.4,114.1c0.5-0.3,1-0.4,1.6-0.3c0.6,0.1,1,0.4,1.3,0.9c0.3,0.5,0.4,1,0.3,1.6c-0.1,0.6-0.4,1-0.9,1.3
		c-0.5,0.3-1,0.4-1.5,0.3c-0.6-0.1-1-0.4-1.3-0.9c-0.3-0.5-0.4-1-0.3-1.5C170.7,114.8,170.9,114.4,171.4,114.1z M184.6,136.5
		l-9.1-13.2l-2.1,1.5l-1.6-2.3l4.9-3.4l10.7,15.5L184.6,136.5z"/>
	<path d="M201.4,126.2l-5.3-9.6c-1-1.8-1.9-2.8-2.8-3.2c-0.9-0.4-2-0.3-3.2,0.4c-0.7,0.4-1.2,1-1.8,1.8c-0.5,0.8-0.8,1.6-0.9,2.4
		l6.8,12.2l-2.9,1.6l-9.2-16.4l2-1.1l2.1,1.6c0.1-2.2,1.2-3.8,3.4-5.1c3.6-2,6.6-0.8,9.1,3.6l5.7,10.2L201.4,126.2z"/>
	<path d="M212,128.2l-1.3-0.8c1.2-2.3,1.6-4,1.1-5.1c-0.2-0.5-0.6-0.9-1.1-1.2c-1.1,0-1.9-0.5-2.2-1.3c-0.2-0.6-0.2-1.1,0.1-1.7
		c0.3-0.6,0.8-1,1.4-1.3c0.6-0.3,1.2-0.2,1.9,0.1c0.7,0.3,1.2,0.8,1.5,1.5c0.6,1.4,0.9,2.9,0.8,4.3S213.3,125.9,212,128.2z"/>
	<path d="M233.1,90.7l5.2,22l-3.4,0.8l-5.2-22l-8,1.9l-0.7-3.1l19.7-4.7l0.7,3.1L233.1,90.7z"/>
	<path d="M258.8,100.2l-13.4,1.8c0.3,2.2,1.1,3.8,2.5,4.8c1.2,0.9,2.6,1.2,4.3,1c1.9-0.3,3.4-1,4.5-2.3l1.7,2.2
		c-0.4,0.6-1.2,1.1-2.2,1.6c-1.3,0.7-2.7,1.1-4.3,1.3c-2.3,0.3-4.4-0.2-6.3-1.6c-2.1-1.5-3.3-3.7-3.7-6.7c-0.4-3.1,0.2-5.7,1.8-7.8
		c1.4-1.9,3.3-3,5.6-3.3c2.7-0.4,4.8,0.1,6.6,1.4c1.7,1.2,2.6,3.1,3,5.4C258.9,98.8,258.9,99.5,258.8,100.2z M249.8,94
		c-1.5,0.2-2.6,0.8-3.5,1.9c-0.8,1-1.2,2.2-1.2,3.6l10.3-1.4c-0.2-1.3-0.7-2.4-1.7-3.2C252.7,94.1,251.4,93.8,249.8,94z"/>
	<path d="M274.6,108.9l-5.2-6.8l-4.5,6.9l-3.9,0.1l6.7-9.7l-6.4-9.1l3.8-0.1l4.3,6.4l4.6-6.5l3.7-0.1l-6.7,9.3l7.6,9.5L274.6,108.9z
		"/>
	<path d="M291.2,107.8c-1.5,1.5-3.6,2.2-6.3,1.9c-1.5-0.1-2.7-0.8-3.7-2s-1.4-2.6-1.2-4.1c0.2-1.9,1.2-3.4,3-4.6
		c1.8-1.2,4-1.6,6.6-1.3c0.7,0.1,1.5,0.3,2.3,0.7c0.3-3-0.9-4.7-3.6-4.9c-2.1-0.2-3.7,0.2-5,1.2l-1.1-2.9c0.7-0.5,1.6-0.8,2.7-1.1
		c1.1-0.3,2.2-0.3,3.2-0.2c2.7,0.3,4.6,1.1,5.7,2.4c1.1,1.4,1.5,3.4,1.3,6.1l-0.7,6.7c-0.2,1.6,0.2,2.8,1.1,3.4l-0.2,1.7
		c-1.4-0.1-2.3-0.4-3-0.9C291.8,109.4,291.4,108.8,291.2,107.8z M291.6,100.8c-1-0.3-1.8-0.5-2.2-0.6c-1.7-0.2-3.1,0.1-4.2,0.9
		c-1.1,0.8-1.8,1.7-1.9,2.9c-0.2,1.9,0.9,3,3.2,3.3c1.7,0.2,3.2-0.5,4.7-2L291.6,100.8z"/>
	<path d="M297.6,109.7l1.8-2.9c1.6,1.6,2.9,2.5,4,2.7c2,0.4,3.2-0.2,3.6-1.9c0.2-1.2-0.5-2.5-2.3-3.7c-1.4-1-2.3-1.7-2.7-2.2
		c-0.5-0.5-0.8-1-1.1-1.5c-0.3-0.5-0.5-1.1-0.6-1.6c-0.1-0.5-0.1-1.1,0.1-1.7c0.3-1.5,1.1-2.6,2.4-3.2s2.8-0.8,4.6-0.4
		c1.3,0.3,2.9,1,4.8,2.3l-1.6,2.8c-1.1-1.3-2.3-2.1-3.6-2.4c-0.8-0.2-1.5-0.1-2.1,0.1c-0.6,0.3-1,0.7-1.1,1.2
		c-0.2,1.2,0.2,2.2,1.5,3.1l2.1,1.5c1.3,0.9,2.2,1.9,2.7,2.9s0.6,2.1,0.3,3.4c-0.3,1.7-1.2,2.8-2.5,3.5c-1.4,0.7-3.1,0.8-5.1,0.4
		C300.8,111.9,299.1,111,297.6,109.7z"/>
	<path d="M329.2,119.8l-6.8-2.7l9.6-23.9c3,1,5.1,1.8,6.4,2.3c2.4,0.9,4,2.2,4.9,3.7c0.9,1.5,1,3.2,0.2,5.1c-0.4,1.1-1.3,2-2.5,2.5
		c-1.2,0.6-2.3,0.8-3.4,0.6c1.7,1.2,2.8,2.5,3.2,3.9c0.4,1.4,0.3,3-0.4,4.8c-0.8,2.1-2.3,3.5-4.3,4.1
		C333.9,121,331.7,120.8,329.2,119.8z M330.4,106.5l-3.7,9.1c1.1,0.6,1.9,1,2.5,1.2c2,0.8,3.7,1,4.9,0.6s2.2-1.4,2.9-3.1
		c0.6-1.6,0.6-2.9,0-4c-0.6-1.1-2-2.1-4.1-2.9L330.4,106.5z M334.2,97.1l-2.8,6.9c0.7,0.3,1.5,0.7,2.5,1.1c3.1,1.2,5.1,0.6,6.1-1.9
		c0.9-2.2-0.1-3.9-2.9-5C336.1,97.7,335.1,97.3,334.2,97.1z"/>
	<path d="M350.6,127.8c-2,0.8-4.2,0.6-6.6-0.8c-1.3-0.7-2.2-1.8-2.6-3.3c-0.4-1.5-0.3-2.9,0.5-4.3c0.9-1.7,2.4-2.7,4.5-3
		c2.1-0.3,4.3,0.1,6.5,1.4c0.6,0.3,1.2,0.9,1.9,1.6c1.5-2.7,1-4.7-1.4-6c-1.8-1-3.5-1.3-5-0.9l0.1-3.1c0.8-0.1,1.8-0.1,2.9,0.1
		c1.2,0.2,2.2,0.6,3.1,1.1c2.4,1.3,3.8,2.8,4.3,4.5c0.5,1.7,0.1,3.7-1.2,6.1l-3.3,5.9c-0.8,1.4-0.9,2.6-0.3,3.6l-0.8,1.5
		c-1.2-0.7-2-1.3-2.4-2C350.5,129.5,350.4,128.7,350.6,127.8z M353.7,121.4c-0.8-0.7-1.4-1.2-1.8-1.4c-1.5-0.8-2.9-1.1-4.2-0.9
		c-1.4,0.2-2.3,0.9-2.9,1.9c-0.9,1.7-0.4,3.1,1.6,4.2c1.5,0.8,3.2,0.8,5.1,0.1L353.7,121.4z"/>
	<path d="M355.7,132l2.8-1.9c0.8,2.1,1.7,3.4,2.6,4.1c1.7,1.2,3,1.1,4-0.4c0.7-1,0.5-2.5-0.6-4.3c-0.9-1.5-1.4-2.5-1.6-3.1
		c-0.2-0.6-0.4-1.2-0.4-1.8c-0.1-0.6,0-1.2,0.1-1.7c0.1-0.5,0.4-1.1,0.7-1.5c0.9-1.3,2-1.9,3.5-2s2.9,0.4,4.4,1.5
		c1.1,0.8,2.3,2.1,3.5,4l-2.5,2c-0.5-1.6-1.3-2.8-2.4-3.6c-0.7-0.5-1.3-0.7-2-0.7c-0.7,0-1.2,0.2-1.5,0.7c-0.7,1-0.7,2.1,0.1,3.4
		l1.3,2.3c0.8,1.4,1.3,2.6,1.3,3.7c0.1,1.1-0.3,2.2-1,3.2c-1,1.4-2.2,2.1-3.7,2.2c-1.5,0.1-3.1-0.4-4.9-1.6
		C357.8,135.3,356.6,133.8,355.7,132z"/>
	<path d="M385.4,145.2l-10.2-8.9c-1.4,1.7-2.1,3.3-2,5c0.1,1.5,0.8,2.8,2.1,3.9c1.4,1.3,3,1.9,4.7,1.9l-0.5,2.7
		c-0.7,0.1-1.6-0.1-2.7-0.6c-1.3-0.5-2.6-1.3-3.9-2.4c-1.8-1.6-2.8-3.5-3-5.8c-0.2-2.5,0.6-4.9,2.6-7.2c2-2.3,4.4-3.6,7-3.8
		c2.4-0.2,4.4,0.5,6.2,2c2,1.8,3.1,3.7,3.3,5.9c0.2,2.1-0.5,4-2.1,5.8C386.4,144.4,385.9,144.9,385.4,145.2z M384,134.4
		c-1.1-1-2.4-1.4-3.8-1.4c-1.3,0.1-2.5,0.6-3.5,1.5l7.9,6.8c0.9-1,1.3-2.1,1.3-3.4C385.9,136.7,385.2,135.5,384,134.4z"/>
	<path d="M389.5,163.1l1-0.9c-1.6-0.1-3.2-1-4.7-2.6c-1.6-1.8-2.2-3.7-1.9-6c0.3-2.2,1.5-4.3,3.6-6.1c2.1-1.9,4.5-2.9,7.1-2.9
		s4.7,0.8,6.3,2.5c1.3,1.4,1.9,2.9,1.9,4.2l6.5-5.8l2.2,2.5l-19.8,17.7L389.5,163.1z M400.3,153.5c0.4-1.5,0.1-2.8-0.9-3.8
		c-1.2-1.3-2.7-2-4.4-1.9c-1.7,0.1-3.4,0.8-4.9,2.2c-3.4,3-3.7,6.1-0.9,9.1c0.4,0.4,0.9,0.8,1.6,1.1s1.3,0.4,1.7,0.3L400.3,153.5z"
		/>
	<path d="M407.7,189.8l6-11.6c-0.4-0.7-1-1.8-1.7-3.3l-9.7,5.7l-1.8-3l22.2-13.1c0.1,0.1,0.6,0.9,1.5,2.3c0.9,1.4,1.6,2.5,2,3.1
		c3.2,5.3,2.6,9.2-1.6,11.7c-1.4,0.8-2.9,1.1-4.5,0.9c-1.6-0.2-2.9-0.8-3.9-1.8l-6.4,12.5L407.7,189.8z M421.7,169.1l-7.2,4.3
		c0.3,0.8,0.7,1.5,1.1,2.2c1.1,1.8,2.2,3,3.2,3.4c1.1,0.5,2.4,0.3,3.9-0.6c1.2-0.7,1.9-1.7,1.9-2.9s-0.5-2.8-1.7-4.7
		C422.8,170.5,422.4,169.9,421.7,169.1z"/>
	<path d="M424.4,204.3l-5.5-12.4c-2,0.9-3.3,2.1-3.9,3.7c-0.5,1.4-0.4,2.9,0.2,4.4c0.8,1.7,1.9,3,3.5,3.7l-1.6,2.3
		c-0.7-0.3-1.4-0.8-2.2-1.6c-1-1-1.8-2.3-2.5-3.8c-1-2.2-1-4.3-0.2-6.5c0.9-2.4,2.7-4.2,5.4-5.4c2.8-1.3,5.5-1.4,8-0.4
		c2.2,0.9,3.8,2.4,4.7,4.5c1.1,2.5,1.2,4.7,0.5,6.7c-0.7,1.9-2.2,3.4-4.4,4.4C425.7,204,425.1,204.2,424.4,204.3z M427.8,194
		c-0.6-1.4-1.5-2.3-2.8-2.8c-1.2-0.5-2.5-0.5-3.8-0.1l4.2,9.5c1.2-0.5,2.1-1.4,2.6-2.5C428.5,196.8,428.5,195.4,427.8,194z"/>
	<path d="M422.3,220.4c-2-0.8-3.4-2.5-4.2-5.1c-0.4-1.4-0.3-2.8,0.4-4.1c0.7-1.3,1.8-2.3,3.4-2.7c1.8-0.6,3.6-0.2,5.4,1
		c1.7,1.2,3,3.1,3.7,5.5c0.2,0.7,0.3,1.5,0.3,2.4c2.9-0.9,4-2.6,3.2-5.2c-0.6-2-1.6-3.4-3-4.1l2.3-2.2c0.7,0.5,1.4,1.2,2,2.1
		s1.2,1.9,1.5,2.9c0.8,2.6,0.8,4.7-0.1,6.2c-0.8,1.5-2.5,2.7-5.1,3.5l-6.5,2c-1.6,0.5-2.5,1.3-2.7,2.4l-1.6,0.5
		c-0.4-1.3-0.5-2.3-0.3-3.1C421,221.6,421.5,221,422.3,220.4z M429,218.1c-0.1-1.1-0.2-1.8-0.3-2.2c-0.5-1.6-1.3-2.8-2.4-3.6
		s-2.3-1-3.4-0.6c-1.9,0.6-2.5,2-1.8,4.2c0.5,1.6,1.7,2.8,3.6,3.6L429,218.1z"/>
	<path d="M427.3,227.7l20.8-4.3l0.7,3.3l-20.2,4.1c-1,0.2-1.7,0.6-2.2,1.3c-0.5,0.7-0.6,1.5-0.4,2.4l-2.9,0.6
		C422.2,231,423.6,228.5,427.3,227.7z"/>
	<path d="M448.1,251.6l-7.1,0.3l0.3,8.5l-3,0.1l-0.3-8.5l-9.3,0.4l0.5,11.7l-3.2,0.1l-0.6-15.2l25.7-1l0.6,15.4l-3.2,0.1
		L448.1,251.6z"/>
	<path d="M427,266.2l3.1,1.4c-1.3,1.8-2,3.2-2.1,4.4c-0.1,2.1,0.7,3.1,2.4,3.3c1.2,0.1,2.4-0.8,3.4-2.8c0.8-1.5,1.4-2.5,1.8-3
		c0.4-0.5,0.8-0.9,1.3-1.3c0.5-0.4,1-0.6,1.5-0.8c0.5-0.2,1.1-0.2,1.7-0.2c1.5,0.1,2.7,0.7,3.5,1.9c0.8,1.2,1.1,2.7,1,4.5
		c-0.1,1.4-0.6,3.1-1.6,5.1l-3-1.1c1.1-1.3,1.7-2.5,1.8-3.9c0.1-0.8-0.1-1.5-0.4-2c-0.3-0.6-0.8-0.9-1.4-0.9
		c-1.2-0.1-2.2,0.5-2.9,1.9l-1.2,2.3c-0.8,1.4-1.6,2.4-2.5,3c-0.9,0.6-2,0.9-3.3,0.8c-1.7-0.1-3-0.8-3.8-2c-0.9-1.2-1.2-2.9-1.1-5
		C425.3,269.7,425.9,267.9,427,266.2z"/>
	<path d="M440.5,285l0.3-2.2l2.6,0.4l-0.3,2.2l3.9,0.6l0.8,3.5l-5.2-0.8l-0.8,5.1l-2.6-0.4l0.8-5.1l-9.2-1.4
		c-1.6-0.2-2.7-0.2-3.5,0.3c-0.7,0.4-1.2,1.2-1.4,2.4c-0.1,0.8-0.1,1.8,0.2,2.7l-3,0c-0.1-1.4-0.1-2.9,0.2-4.6
		c0.2-1.5,1-2.6,2.2-3.5c1.3-0.8,2.7-1.1,4.4-0.9L440.5,285z"/>
	<path d="M421.9,305.6c-1.3-1.7-1.6-3.9-0.9-6.6c0.4-1.4,1.2-2.5,2.5-3.3c1.3-0.8,2.7-1,4.3-0.5c1.8,0.5,3.2,1.7,4,3.7
		s0.9,4.2,0.3,6.7c-0.2,0.7-0.5,1.4-1.1,2.2c2.9,0.8,4.8-0.1,5.5-2.8c0.5-2,0.4-3.7-0.4-5.1l3.1-0.6c0.3,0.7,0.5,1.7,0.6,2.9
		c0.1,1.2,0,2.3-0.3,3.2c-0.7,2.6-1.8,4.4-3.3,5.3c-1.5,0.9-3.6,1-6.2,0.3l-6.5-1.7c-1.6-0.4-2.8-0.2-3.6,0.6l-1.6-0.4
		c0.3-1.3,0.8-2.2,1.3-2.8C420.2,306,420.9,305.7,421.9,305.6z M428.8,307.1c0.5-1,0.8-1.6,0.9-2.1c0.4-1.6,0.4-3.1-0.2-4.3
		c-0.6-1.3-1.4-2-2.6-2.3c-1.9-0.5-3.1,0.4-3.7,2.6c-0.4,1.6,0,3.3,1.2,4.9L428.8,307.1z"/>
	<path d="M432.2,319.2l0.8-2l2.5,0.9l-0.8,2l3.7,1.4l0,3.6l-4.9-1.9l-1.8,4.8l-2.5-0.9l1.8-4.8l-8.7-3.3c-1.5-0.6-2.6-0.7-3.4-0.5
		c-0.8,0.3-1.4,0.9-1.9,2.1c-0.3,0.8-0.4,1.7-0.3,2.7l-2.9-0.6c0.2-1.4,0.5-2.9,1.1-4.4c0.5-1.4,1.5-2.4,2.9-2.9
		c1.4-0.6,2.9-0.5,4.5,0.1L432.2,319.2z"/>
	<path d="M413.5,343.3l6.1-12.1c-2-1-3.7-1.2-5.3-0.7c-1.4,0.5-2.5,1.5-3.2,3c-0.9,1.7-1.1,3.4-0.7,5l-2.8,0.2
		c-0.2-0.7-0.3-1.6-0.1-2.7c0.2-1.4,0.6-2.9,1.4-4.3c1.1-2.1,2.7-3.5,4.9-4.3c2.4-0.8,4.9-0.6,7.6,0.8c2.8,1.4,4.6,3.4,5.4,5.9
		c0.7,2.3,0.6,4.4-0.5,6.5c-1.2,2.4-2.8,3.9-4.9,4.6c-2,0.7-4,0.4-6.2-0.6C414.5,344.1,414,343.7,413.5,343.3z M423.7,339.4
		c0.7-1.3,0.8-2.7,0.4-4c-0.4-1.3-1.1-2.3-2.3-3l-4.7,9.3c1.2,0.6,2.4,0.7,3.6,0.4C421.9,341.7,422.9,340.8,423.7,339.4z"/>
	<path d="M394.8,354.8l3.2-4.1l20.2,16c-2,2.7-3.2,4.4-3.8,5.1c-2.2,2.8-4.9,4.4-7.9,4.7c-3,0.3-5.9-0.7-8.8-2.9
		C390.5,367.8,389.5,361.5,394.8,354.8z M413.6,367.5l-15.1-11.9c-0.6,0.5-1.2,1.3-1.9,2.2c-1.5,1.9-2,4-1.4,6.3
		c0.6,2.2,2.2,4.4,4.7,6.4c4.8,3.8,8.9,3.5,12.3-0.8C412.3,369.4,412.8,368.7,413.6,367.5z"/>
	<path d="M379.7,384.6l9.7-9.5c-1.5-1.6-3.2-2.4-4.8-2.4c-1.5,0-2.8,0.6-4,1.8c-1.4,1.3-2.1,2.8-2.3,4.5l-2.7-0.7
		c0-0.7,0.3-1.6,0.8-2.6c0.6-1.3,1.5-2.5,2.7-3.6c1.7-1.7,3.7-2.5,6-2.5c2.6,0,4.9,1,7,3.2c2.2,2.2,3.2,4.7,3.2,7.3
		c0,2.4-0.9,4.4-2.5,6c-1.9,1.9-4,2.8-6.1,2.8c-2.1,0-3.9-0.9-5.6-2.6C380.4,385.7,380,385.1,379.7,384.6z M390.6,384.1
		c1.1-1,1.6-2.3,1.7-3.6c0.1-1.3-0.4-2.5-1.2-3.6l-7.5,7.3c0.9,1,2,1.5,3.3,1.5C388.2,385.8,389.5,385.2,390.6,384.1z"/>
	<path d="M365.4,383.8l0.7-0.5l18.1,10.3l-2.9,2.2l-12-7.4l4,13.5l-2.8,2.1L365.4,383.8z"/>
	<path d="M348.5,406.1l11.6-7c-1.1-1.9-2.5-3-4.2-3.4c-1.4-0.3-2.9-0.1-4.3,0.8c-1.6,1-2.7,2.3-3.2,3.9L346,399
		c0.2-0.7,0.6-1.5,1.3-2.4c0.9-1.1,2-2.1,3.5-2.9c2-1.2,4.2-1.6,6.4-1c2.5,0.6,4.5,2.1,6,4.7c1.6,2.7,2.1,5.3,1.4,7.9
		c-0.6,2.3-1.9,4-3.9,5.2c-2.3,1.4-4.5,1.8-6.6,1.3c-2-0.5-3.6-1.8-4.9-3.8C349,407.4,348.7,406.7,348.5,406.1z M359.2,408.2
		c1.3-0.8,2.1-1.8,2.5-3.2c0.4-1.3,0.2-2.5-0.3-3.8l-8.9,5.4c0.7,1.2,1.6,1.9,2.8,2.2C356.5,409.2,357.9,409,359.2,408.2z"/>
	<path d="M343,404.5l9.1,19.2l-3,1.4l-8.9-18.6c-0.4-0.9-1-1.5-1.8-1.8s-1.6-0.2-2.4,0.2l-1.3-2.7
		C338.6,400.3,341.3,401.1,343,404.5z"/>
	<path d="M336.3,412.4c1,2.7,1.1,5.2,0.2,7.4c-0.9,2.2-2.5,3.8-4.9,4.6c-2.5,0.9-4.8,0.8-6.8-0.3c-2-1.1-3.5-3.1-4.5-5.9
		c-1-2.9-1.1-5.4-0.3-7.5c0.8-2.2,2.5-3.7,4.9-4.6c2.5-0.9,4.8-0.8,6.8,0.3C333.7,407.6,335.2,409.6,336.3,412.4z M333,413.6
		c-1.6-4.4-4-6.1-7.1-4.9c-1.5,0.5-2.4,1.5-2.8,3c-0.4,1.5-0.2,3.3,0.5,5.3c1.6,4.4,4,6,7.1,4.9c1.4-0.5,2.4-1.5,2.8-3
		S333.7,415.6,333,413.6z"/>
	<path d="M311.3,411.8l-1.9-8.2l3.3-0.7l5.9,25.5l-3.3,0.7l-0.3-1.5c-1,1.5-2.3,2.5-4,2.9c-2.6,0.6-4.8,0.3-6.6-1
		c-1.8-1.3-3.1-3.5-3.8-6.6c-0.6-2.8-0.4-5.2,0.6-7.3s3-3.5,5.7-4.1c0.8-0.2,1.6-0.2,2.6-0.2C310.3,411.4,311,411.5,311.3,411.8z
		 M314.4,425.2l-2.5-10.7c-0.3-0.3-0.8-0.5-1.5-0.6c-0.7-0.1-1.4-0.1-2,0c-4,0.9-5.5,3.7-4.5,8.2c0.5,2.3,1.4,3.9,2.6,4.8
		c1.2,0.9,2.9,1,5,0.6c0.5-0.1,1-0.4,1.6-0.9S314.1,425.7,314.4,425.2z"/>
	<path d="M274,416l0.8,11.9c0.2,3,1.6,4.3,4.1,4.2c0.8-0.1,1.5-0.4,2.2-0.9c0.7-0.5,1.1-1.1,1.3-1.8l-1-13.9l3.3-0.2l0.9,13.3
		c0.1,0.9,0.5,1.6,1.2,2.1s1.7,0.7,2.8,0.6c0.7,0,1.4-0.4,2.1-0.9c0.7-0.6,1.2-1.2,1.5-1.8l-1-13.9l3.3-0.2l1.3,18.8l-2.2,0.2
		l-1.3-2.1c-1.2,1.8-2.7,2.7-4.6,2.9c-2.7,0.2-4.6-0.5-5.8-2.1c-0.3,0.7-1,1.4-2,1.9c-1,0.5-2,0.9-3.1,0.9c-1.9,0.1-3.5-0.3-4.6-1.4
		c-1.1-1.1-1.8-2.7-1.9-4.7l-0.9-12.6L274,416z"/>
	<path d="M250.3,423.5l13.5,1.1c0.2-2.2-0.3-3.9-1.4-5.2c-1-1.1-2.3-1.7-4-1.9c-1.9-0.2-3.5,0.3-4.9,1.3l-1.2-2.5
		c0.6-0.5,1.4-0.8,2.5-1.1c1.4-0.4,2.9-0.5,4.5-0.4c2.4,0.2,4.3,1.2,5.8,2.9c1.7,1.9,2.4,4.4,2.2,7.3c-0.3,3.1-1.4,5.5-3.4,7.2
		c-1.8,1.5-3.9,2.2-6.2,2c-2.7-0.2-4.7-1.2-6.1-2.8c-1.4-1.6-1.9-3.6-1.7-5.9C249.9,424.8,250,424.1,250.3,423.5z M257.7,431.4
		c1.5,0.1,2.8-0.2,3.9-1.1c1-0.8,1.7-1.9,1.9-3.3l-10.4-0.9c-0.1,1.3,0.2,2.5,1,3.5C254.9,430.7,256.1,431.3,257.7,431.4z"/>
	<path d="M236.7,411.6l-2.2,10.7c-0.4,2-0.4,3.4,0,4.3c0.4,0.9,1.3,1.5,2.7,1.8c0.7,0.2,1.6,0.1,2.5-0.2c0.9-0.3,1.6-0.7,2.2-1.3
		l2.9-13.7l3.3,0.7l-3.9,18.4l-2.2-0.5l-0.5-2.6c-1.5,1.6-3.4,2.1-5.9,1.6c-4-0.8-5.5-3.7-4.5-8.6l2.4-11.4L236.7,411.6z"/>
	<path d="M223.3,424.7l2.1,0.7l-0.8,2.5l-2.1-0.7l-1.2,3.7l-3.6,0.2l1.6-5l-4.9-1.6l0.8-2.5l4.9,1.6l2.9-8.9
		c0.5-1.5,0.6-2.7,0.3-3.5c-0.3-0.8-1-1.4-2.1-1.7c-0.8-0.3-1.7-0.3-2.7-0.2l0.4-2.9c1.4,0.1,2.9,0.4,4.5,0.9
		c1.4,0.5,2.4,1.4,3.1,2.7c0.6,1.4,0.7,2.9,0.2,4.5L223.3,424.7z"/>
	<path d="M180.5,415.2l2.5-2.1c0.6,1.3,2,2.5,4.1,3.6c2,1.1,4,1.1,6.2,0c2.1-1.1,3.9-2.9,5.4-5.6c1.4-2.6,1.9-5,1.5-7.3
		c-0.4-2.3-1.5-3.9-3.5-5c-2.1-1.1-4.2-1.3-6.1-0.4l-0.4-3.3c2.8-0.8,5.5-0.5,8.4,1.1c3,1.6,4.7,3.9,5.3,7c0.5,3.1-0.1,6.3-2,9.8
		c-1.8,3.4-4.3,5.7-7.3,7c-3,1.3-6,1.1-8.9-0.4C183.2,418.2,181.5,416.8,180.5,415.2z"/>
	<path d="M184.4,399.6c-1.7,2.4-3.7,3.8-6,4.3s-4.5,0.1-6.6-1.4c-2.2-1.6-3.4-3.5-3.6-5.8c-0.2-2.3,0.6-4.6,2.4-7.1
		c1.8-2.5,3.8-4,6-4.5c2.3-0.5,4.5,0,6.6,1.5c2.2,1.6,3.4,3.5,3.5,5.8C186.9,394.8,186.1,397.2,184.4,399.6z M181.5,397.5
		c2.8-3.8,2.8-6.7,0.1-8.7c-1.3-0.9-2.6-1.1-4.1-0.6c-1.5,0.5-2.8,1.7-4.1,3.4c-2.7,3.8-2.7,6.7,0,8.6c1.2,0.9,2.6,1.1,4,0.6
		C178.9,400.4,180.2,399.3,181.5,397.5z"/>
	<path d="M158.3,365.3l-8.4,8.5c-2.1,2.1-2.2,4.1-0.4,5.9c0.6,0.6,1.3,0.9,2.1,1.1s1.6,0.1,2.2-0.2l9.8-9.9l2.4,2.3l-9.4,9.5
		c-0.6,0.7-0.9,1.4-0.8,2.3c0.1,0.9,0.6,1.7,1.4,2.5c0.5,0.5,1.2,0.8,2.1,0.9c0.9,0.2,1.7,0.1,2.3-0.1l9.7-9.9l2.4,2.3L160.7,394
		l-1.6-1.5l0.7-2.3c-2.1,0.3-3.8-0.2-5.2-1.6c-1.9-1.9-2.7-3.8-2.3-5.8c-0.8,0.2-1.7,0.2-2.7-0.2c-1.1-0.4-2-0.9-2.7-1.7
		c-1.4-1.4-2.1-2.8-2-4.4c0-1.6,0.8-3.1,2.3-4.6l8.8-9L158.3,365.3z"/>
	<path d="M150.9,357.7l6.8-5l2,2.7l-21,15.6l-2-2.7l1.2-0.9c-1.8-0.3-3.2-1.1-4.3-2.6c-1.6-2.1-2.2-4.3-1.7-6.5
		c0.4-2.2,2-4.2,4.5-6.2c2.3-1.7,4.6-2.5,7-2.4c2.3,0.1,4.4,1.3,6.1,3.6c0.5,0.6,0.9,1.4,1.2,2.3C150.9,356.6,151,357.3,150.9,357.7
		z M139.9,365.9l8.8-6.5c0.1-0.4,0.1-0.9-0.1-1.6c-0.2-0.7-0.5-1.3-0.8-1.9c-2.5-3.3-5.6-3.6-9.4-0.8c-1.9,1.4-3,2.9-3.3,4.3
		c-0.3,1.4,0.2,3,1.5,4.8c0.3,0.4,0.8,0.7,1.4,1.1C138.7,365.6,139.3,365.8,139.9,365.9z"/>
	<path d="M135.3,335.9c2.1,0.3,3.9,1.7,5.2,4.1c0.7,1.3,0.9,2.7,0.5,4.1c-0.4,1.5-1.3,2.6-2.7,3.4c-1.7,0.9-3.5,1-5.4,0.2
		c-2-0.8-3.6-2.3-4.9-4.6c-0.3-0.6-0.6-1.4-0.8-2.3c-2.6,1.5-3.3,3.4-2,5.8c1,1.8,2.3,2.9,3.8,3.4l-1.7,2.6
		c-0.8-0.3-1.6-0.8-2.5-1.6c-0.9-0.8-1.6-1.6-2.1-2.5c-1.3-2.4-1.8-4.4-1.3-6.1c0.5-1.7,1.9-3.2,4.2-4.5l5.9-3.3
		c1.4-0.8,2.2-1.8,2.1-2.9l1.5-0.8c0.7,1.2,1,2.2,1,2.9C136.2,334.5,135.9,335.2,135.3,335.9z M129.3,339.7c0.3,1,0.6,1.7,0.8,2.1
		c0.8,1.5,1.9,2.5,3.2,2.9c1.3,0.5,2.4,0.5,3.5-0.1c1.7-1,2-2.5,0.8-4.5c-0.8-1.5-2.3-2.4-4.3-2.7L129.3,339.7z"/>
	<path d="M129.2,317.5l-10.1,4.2c-1.8,0.8-3,1.6-3.5,2.5c-0.5,0.9-0.5,2,0.1,3.3c0.3,0.7,0.8,1.4,1.6,1.9c0.7,0.6,1.5,1,2.3,1.1
		l12.9-5.4l1.3,3.1l-17.4,7.3l-0.9-2.1l1.8-1.9c-2.1-0.3-3.7-1.6-4.6-3.9c-1.6-3.8-0.1-6.7,4.6-8.6l10.8-4.5L129.2,317.5z"/>
	<path d="M127.7,302.8c1.3,0.1,2.5,0.7,3.6,1.8c1.1,1.1,2,2.5,2.4,4.1l-2.9,0.8c-0.4-1.3-1-2.4-1.9-3.2c-0.9-0.8-1.8-1-2.7-0.8
		c-1,0.3-1.9,0.7-2.8,1.4c-0.9,0.6-1.9,1.4-3.2,2.4l-11.2,8.5l-0.9-3.3l12.5-9.3l-15.4-0.8l-0.9-3.3L127.7,302.8z"/>
	<path d="M117.5,295.4c-0.1-0.7,0-1.4,0.4-2c0.4-0.6,1-1,1.7-1.1c0.7-0.2,1.4,0,2,0.4s1,1,1.1,1.7c0.1,0.7,0,1.4-0.4,2
		c-0.4,0.6-1,1-1.7,1.1c-0.7,0.1-1.4,0-2-0.4S117.7,296.1,117.5,295.4z"/>
</g>
</svg>
