<?xml version="1.0" encoding="utf-8"?>
<!-- Generator: Adobe Illustrator 22.1.0, SVG Export Plug-In . SVG Version: 6.00 Build 0)  -->
<svg version="1.1" id="logoyo" 
    xmlns="http://www.w3.org/2000/svg" 
    xmlns:xlink="http://www.w3.org/1999/xlink" x="0px" y="0px" viewBox="0 0 1084.1 298.2" style="enable-background:new 0 0 1084.1 298.2;" xml:space="preserve">
    <style type="text/css">	.st0{fill:#FFFFFF;}
</style>
    <title>Asset 1</title>
    <g id="Layer_2_1_">
        <g id="Layer_1-2">
            <path class="st0" d="M0.1,197v-41c9.7,0.1,19.3-0.1,29,0.3c4.8,0.2,6.2-1.2,6.1-6.1c-0.2-36.3,0-72.7-0.2-109			c0-4.3,0.8-6.1,5.7-6.1c117.1,0.1,234.3,0.2,351.4,0.1c1.9,0,3.9,0.2,5.9,0.2v34.2h-209c0,10.5,0.2,20.3-0.1,30.1			c-0.1,4.1,1.3,5,5.2,5c20.5-0.2,41-0.1,61.5-0.1h6.4v127h46V104.3h125V0h651v298c-359.8,0-719.7,0-1079.5,0c-1.9,0-5.3,1.5-4.5-3			c2.3-0.1,4.7-0.2,7-0.2h425.7V139.4h-34.6V260h-349c-3.2,0-6.3-0.2-9.5,0c-3.4,0.2-4.8-1-4.6-4.6c0.3-5.8,0.2-11.6-0.1-17.4			c-0.3-4.7,1.1-6.2,6-6.2c27.2,0.2,54.3,0,81.5,0.2c9.5,0.1,18.9-1.7,27.8-5.2c14-5.5,24.9-18.6,24.7-35.8			c-0.4-38.2-0.1-76.3-0.1-114.5v-6.7H89.7v35h38.6c0.2,1.2,0.4,2.4,0.5,3.5c0,23,0.3,46-0.1,69c-0.2,13-6.8,19.6-20.1,19.7			C72.4,197.3,36.3,197,0.1,197z M857.5,294.7c17.8,0,35.1,0.1,52.4,0c4,0,8-0.3,11.9-0.9c12.2-2,23-6.3,29.4-18.1			c9.3-17.2,5.7-41.2-16.5-49.3c-1-0.5-2-1-2.9-1.6c1.8-1.2,3.3-2.2,4.8-3.3c11.6-8.3,15.9-22.1,11-35.3			c-5.2-13.9-15.9-21-30.1-21.8c-18.6-1-37.3-0.8-55.9-1c-1.3,0-2.6,0.1-4.2,0.2L857.5,294.7z M707.9,294.7			c-16.1-20.7-24.2-45.5-47.3-59.7c1.8-0.5,3-0.9,4.3-1.1c8.4-1.9,16.4-4.6,22.5-11c10.2-10.8,11.9-23.4,7-37.1			c-5.1-14.3-16.2-21-30.7-21.5c-23.1-0.8-46.3-0.6-69.4-0.9c-0.6,0.1-1.2,0.2-1.7,0.5c-1.9,13.4-1.9,13.4,10.8,13.4c1,0,2,0,3,0			c17.3,0.2,34.7,0,52,0.8c12.4,0.6,20.5,8.7,21,19.4c0.6,12.4-6,20.5-18.8,23c-3.1,0.6-6.3,0.9-9.4,0.9c-17.7,0.1-35.3,0.1-53,0.2			c-1.9,0-3.8,0.3-5.7,0.4v72.4h16.7V236c6.1,0,11.6,0.4,17-0.1c14.8-1.4,25.2,5,33,17.1c8.1,12.8,16.4,25.4,24.8,37.9			c1,1.6,3.1,3.4,4.7,3.5C694.5,295,700.3,294.7,707.9,294.7L707.9,294.7z M725.4,163.5c-0.1,1.8-0.2,3.1-0.2,4.4			c0,24.7-0.1,49.3,0,74c0,5.3,0.4,10.6,1.1,15.9c2.4,18.6,11.8,31.6,30.5,36.6c12.1,3.3,24.9,3.5,37.1,0.6			c17.7-4.3,29-15.1,32.2-33.3c1-5.2,1.6-10.5,1.8-15.9c0.2-25.7,0.2-51.3,0.2-77c0-1.8-0.2-3.5-0.4-5.3h-16.4v6.2			c0,23.7,0.1,47.3,0,71c0,4.8-0.4,9.7-1,14.4c-2.1,15.5-8.5,23-23.1,25.5c-6.7,1.1-13.6,1.2-20.3,0.3c-13.3-1.8-21.3-10-23.6-22.9			c-0.8-4.6-1.2-9.3-1.3-13.9c-0.1-24.8-0.1-49.7-0.1-74.5v-6.1L725.4,163.5z M734.1,21.1v113.7c1.5,0.1,2.4,0.3,3.4,0.3			c7.3,0.2,7.3,0.2,7.3-7.1c0-24.8,0-49.7,0-74.5v-6.6c1.8,1.4,3.3,3.2,4.2,5.3c14,26.3,28,52.6,42,78.9c0.9,1.6,2.7,3.5,4.4,3.8			c3,0.6,6.2,0.2,9.2,0.2V21.5h-10.8v87.6c-2-1.7-3.7-3.9-4.8-6.3c-13.8-26-27.7-52-41.6-78c-0.9-1.7-2.3-2.9-4.1-3.5			C740.5,20.7,737.4,21.1,734.1,21.1L734.1,21.1z M1021.1,134.7V46.9c2.3,2.5,4.1,5.3,5.6,8.3c13.4,25.3,26.9,50.6,40.3,75.8			c0.9,1.7,2.6,3.7,4.3,4c3,0.7,6.2,0.2,9.2,0.2V21.4h-10.5v87.7l-1.5,0.8c-0.2-0.6-0.4-1.3-0.7-1.9c-4.9-9.3-9.9-18.5-14.8-27.8			c-9.8-18.5-19.6-37.1-29.4-55.6c-1.8-3.4-7.1-5.3-11.7-3.3c-1.4,0.6-2.1,4-2.1,6.2c-0.1,32.8-0.1,65.6-0.1,98.4			C1009.9,136.1,1009.9,136.1,1021.1,134.7L1021.1,134.7z M469.5,178.1c12.7,0,24.8,0.2,37-0.1c4.7-0.1,6.3,1,6.2,6			c-0.2,34.8-0.1,69.6-0.1,104.4v6h16.9V178.1h6.7c10.8,0,21.7,0.1,32.5-0.1c1.5,0,4-1.5,4.2-2.5c0.5-3.9,0.2-7.8,0.2-11.9H469.5			V178.1z M539.1,80.6c-0.3,10.4,1.9,20.7,6.3,30.1c7,15.1,17.7,25.8,35.5,26.4s30.4-8.4,37.4-24.1c10.9-24.4,10.8-49.3-1.9-73.1			c-14.1-26.4-48.9-28-66-3.4C541.5,49,539.2,63.5,539.1,80.6z M993.9,78.3c-0.2-13-2.4-25.4-8.4-37.1c-14-27.4-50.5-30.5-66.9-4.5			c-15.7,24.9-15.6,51.8-2.8,78.1c7.5,15.5,20.6,23.9,38.5,22c16.5-1.7,27-11.7,33.5-26.4C992.2,100.2,993.7,89.4,993.9,78.3z			 M890.7,52.6c0.8-20.5-14.9-34.7-36.4-33.3c-15.6,1-26.1,10.6-28.7,26.3c-2.3,14.1,4.7,26.7,18.4,32.5c4.6,1.9,9.4,3.2,14.1,4.9			c5.2,1.9,10.5,3.3,15.3,5.8c11.9,6.3,12.6,23.5,1.6,31.2c-11.4,7.9-36,5.7-41-14.3c-0.6-2.4-1-4.8-1.5-7.3			c-1.2-0.1-2.1-0.2-3.1-0.1c-7.6,0.4-8.2,1.2-6.7,8.7c4,20.1,16.7,30.2,37.8,30.1c20.8-0.1,35.5-16.8,33.2-37.5			c-1.6-14.3-9.7-22.9-22.8-27.4c-8.2-2.8-16.5-5.3-24.6-8.2c-4.9-1.8-8.5-5.1-9.6-10.6c-2.1-10,3.4-18.5,13.7-20.7			c14.1-3,27.4,1.8,29.3,18.5c0.3,1,0.6,1.9,1.2,2.8L890.7,52.6z M653.7,68v-5c0-12.5-0.1-25,0-37.5c0-3.1-0.8-4.7-4.2-4.4			c-2.2,0.2-4.5,0-6.9,0v113.6c1.2,0.2,2,0.4,2.8,0.4c8.4,0.5,8.4,0.5,8.4-7.7c0-13.7,0.1-27.3-0.2-41c-0.1-4.5,1.4-5.7,5.7-5.6			c10.7,0.3,21.3,0.1,32,0.1h10.3v5.7c0,13,0,26,0,39c0,10,0,10.1,10.1,9.3c0.3,0,0.6-0.3,0.9-0.5V21.4h-11V68H653.7z M521.9,21.5			H511c0,11.7,0.1,23,0,34.3c-0.2,18.1-0.4,36.3-0.7,54.4c-0.1,2-0.5,4-1.2,5.8c-2,5.4-6.5,8.3-12.4,8.2c-5.7-0.1-9.8-2.8-11.5-8.6			c-1.3-4.4-1.9-9-2.8-13.9l-10.4,1.9c1.3,6.7,1.8,13.1,3.9,18.9c3.4,9.8,10.5,14.4,20.4,14.6c10.9,0.1,19-4.3,22.3-14.1			c2.2-6.9,3.4-14.2,3.5-21.5c0.4-25,0.2-49.9,0.2-74.9C522.2,25,522,23.4,521.9,21.5z M1078.7,279.8h-89.9c-13,0-13,0-12,13.1			c0.1,0.5,0.3,1,0.5,1.5h101.4L1078.7,279.8z M1074.7,163.5H977v14.1h97.7L1074.7,163.5z M1074.7,219.6H977v13.9h97.7L1074.7,219.6			z"/>
            <path d="M433.1,0v104.3h-125v127.3h-46v-127h-6.4c-20.5,0-41-0.1-61.5,0.1c-3.9,0-5.3-0.9-5.2-5c0.3-9.8,0.1-19.6,0.1-30.1h208.9			v-34c-2-0.1-4-0.2-5.9-0.2c-117.1,0-234.3,0-351.4-0.1c-4.9,0-5.7,1.8-5.7,6.1c0.1,36.3,0,72.7,0.2,109c0,4.9-1.4,6.3-6.1,6.1			c-9.6-0.4-19.3-0.3-29-0.3V0H433.1z"/>
            <path d="M0.1,197c36.2,0,72.3,0.3,108.5,0c13.3-0.1,19.9-6.7,20.1-19.7c0.4-23,0.1-46,0.1-69c-0.1-1.2-0.3-2.4-0.5-3.5H89.7v-35			h85.2v6.6c0,38.2-0.3,76.3,0.1,114.5c0.2,17.2-10.7,30.3-24.7,35.8c-8.8,3.5-18.3,5.3-27.8,5.2c-27.2-0.2-54.3,0.1-81.5-0.2			c-4.9-0.1-6.3,1.5-6,6.2c0.3,5.8,0.3,11.7,0,17.5c-0.2,3.6,1.2,4.8,4.6,4.6c3.2-0.2,6.3,0,9.5,0h349V139.4h34.6v155.4H7.1			c-2.3,0-4.7,0.1-7,0.2L0.1,197z"/>
            <path d="M857.5,294.7V163.5c1.6-0.1,2.9-0.3,4.2-0.2c18.6,0.3,37.3,0,55.9,1c14.2,0.8,24.9,7.9,30.1,21.8c5,13.3,0.6,27.1-11,35.3			c-1.5,1-3,2-4.8,3.3c0.9,0.6,1.9,1.2,2.9,1.6c22.2,8.1,25.8,32.2,16.5,49.3c-6.4,11.8-17.2,16.1-29.4,18.1			c-3.9,0.6-7.9,0.9-11.9,0.9C892.6,294.8,875.3,294.7,857.5,294.7z M874.2,280.3c15.7-0.5,31.2-0.2,46.5-1.9			c12.4-1.4,18.1-10.2,17.7-23.2c-0.3-11.1-7.4-19-19.4-20.4c-8.4-1-16.9-0.9-25.4-1.1c-6.4-0.2-12.8,0-19.4,0V280.3z M873.9,198.3			c0,5.7,0.1,11.3,0,17c0,2.5,0.8,3.7,3.4,3.6c12.7-0.3,25.3-0.1,38-0.9c11-0.7,17.6-8,17.9-18.4c0.3-11-5.5-19.1-16.5-20.1			c-13.2-1.2-26.6-1-39.9-1.1c-0.9,0-2.7,2.2-2.7,3.5C873.8,187.3,873.9,192.8,873.9,198.3L873.9,198.3z"/>
            <path d="M707.9,294.7c-7.5,0-13.3,0.3-19.1-0.2c-1.7-0.1-3.7-1.9-4.7-3.5c-8.4-12.6-16.7-25.3-24.9-38			c-7.7-12.1-18.2-18.6-33-17.1c-5.4,0.5-10.9,0.1-17,0.1v58.4h-16.7v-72.4c1.8-0.1,3.8-0.4,5.7-0.4c17.7-0.1,35.3-0.1,53-0.2			c3.2,0,6.3-0.3,9.4-0.9c12.8-2.5,19.4-10.7,18.8-23c-0.5-10.6-8.5-18.8-21-19.4c-17.3-0.8-34.6-0.6-52-0.8c-1,0-2,0-3,0			c-12.8,0-12.8,0-10.8-13.4c0.6-0.3,1.1-0.4,1.7-0.5c23.2,0.2,46.3,0.1,69.4,0.9c14.5,0.5,25.5,7.3,30.7,21.5			c4.9,13.6,3.1,26.3-7,37.1c-6.1,6.4-14.1,9.2-22.5,11c-1.2,0.3-2.4,0.6-4.3,1.1C683.7,249.2,691.8,274,707.9,294.7z"/>
            <path d="M725.4,163.5h16.5v6.1c0,24.8,0,49.7,0.1,74.5c0,4.7,0.4,9.3,1.2,13.9c2.3,13,10.3,21.2,23.6,22.9			c6.8,0.9,13.6,0.8,20.3-0.3c14.6-2.5,21-10,23.1-25.5c0.6-4.8,1-9.6,1-14.4c0.1-23.7,0-47.3,0-71v-6.2h16.4			c0.1,1.7,0.4,3.5,0.4,5.3c0,25.7,0,51.3-0.2,77c-0.1,5.3-0.7,10.6-1.8,15.9c-3.3,18.2-14.5,29.1-32.2,33.3			c-12.2,2.9-25,2.7-37.1-0.6c-18.7-5-28-18-30.5-36.6c-0.7-5.3-1.1-10.6-1.1-15.9c-0.1-24.7-0.1-49.3,0-74			C725.2,166.6,725.3,165.3,725.4,163.5z"/>
            <path d="M734.1,21.1c3.3,0,6.4-0.4,9.2,0.2c1.8,0.6,3.3,1.8,4.1,3.5c13.9,26,27.8,52,41.6,78c1.1,2.4,2.8,4.5,4.8,6.3V21.5h10.8			v113.7c-3,0-6.2,0.4-9.2-0.2c-1.7-0.4-3.5-2.2-4.4-3.8c-14.1-26.3-28.1-52.6-42-78.9c-1-2.1-2.4-3.9-4.2-5.3v6.6			c0,24.8,0,49.7,0,74.5c0,7.4,0,7.4-7.3,7.1c-1,0-2-0.2-3.4-0.3L734.1,21.1z"/>
            <path d="M1021.2,134.7c-11.2,1.3-11.2,1.3-11.2-8.7c0-32.8,0-65.6,0.1-98.4c0-2.1,0.7-5.5,2.1-6.2c4.5-2,9.8-0.1,11.7,3.3			c9.8,18.5,19.6,37.1,29.4,55.6c4.9,9.3,9.9,18.5,14.8,27.8c0.3,0.6,0.5,1.2,0.7,1.9l1.5-0.8V21.4h10.5v113.8			c-3.1,0-6.3,0.5-9.2-0.2c-1.7-0.4-3.4-2.4-4.3-4c-13.5-25.2-27-50.5-40.3-75.8c-1.5-3-3.4-5.8-5.6-8.3L1021.2,134.7z"/>
            <path d="M469.5,178.1v-14.5H573c0,4,0.3,8-0.2,11.9c-0.1,1-2.7,2.5-4.2,2.5c-10.8,0.2-21.7,0.1-32.5,0.1h-6.7v116.3h-16.9v-6			c0-34.8-0.1-69.6,0.1-104.4c0-5-1.6-6.1-6.2-6C494.3,178.4,482.2,178.1,469.5,178.1z"/>
            <path d="M539.1,80.6c0.1-17,2.4-31.5,11.3-44.2c17.1-24.5,51.9-23,66,3.4c12.7,23.8,12.8,48.7,1.9,73.1			c-7,15.7-19.6,24.6-37.4,24.1s-28.5-11.2-35.5-26.4C541,101.2,538.8,90.9,539.1,80.6z M614.9,81.4c-0.8-11.4-1.8-22.3-6.8-32.4			c-5.4-11-13.8-17.9-26.7-17.4s-21.8,7.9-25.9,19.4c-6.4,17.7-7,36-0.1,53.8c4.5,11.5,12.8,19.7,26.1,20s22.3-6.8,27-18.5			C611.6,98.4,612.8,89.8,614.9,81.4z"/>
            <path d="M993.9,78.3c-0.2,11.1-1.7,21.9-6.2,32.1c-6.5,14.7-16.9,24.7-33.5,26.4c-17.9,1.8-30.9-6.6-38.5-22			c-12.8-26.2-13-53.1,2.8-78.1c16.4-25.9,53-22.9,66.9,4.5C991.5,52.9,993.8,65.4,993.9,78.3z M918.4,76.2			c0.7,7.2,0.8,12.1,1.7,16.8c0.8,4.7,2.3,9.4,4.3,13.7c5.3,10.9,13.5,18.3,26.3,18.1c13.2-0.2,21.8-7.8,26.4-19.5			c7.1-18.1,6.8-36.5-0.2-54.6c-3.2-8.3-9-14.8-17.8-17.8c-14.9-5.1-31.2,3.4-36.2,19.7C920.4,60.9,919.6,69.8,918.4,76.2z"/>
            <path d="M890.7,52.6l-9.9,1.3c-0.5-0.9-0.9-1.8-1.2-2.8c-1.9-16.7-15.1-21.5-29.3-18.5c-10.3,2.2-15.8,10.7-13.7,20.7			c1.1,5.5,4.7,8.8,9.6,10.6c8.1,2.9,16.4,5.4,24.6,8.2c13.1,4.5,21.2,13.2,22.8,27.4c2.3,20.7-12.4,37.4-33.2,37.5			c-21.2,0.1-33.9-10-37.8-30.1c-1.5-7.6-0.9-8.3,6.7-8.7c1,0,2,0.1,3.1,0.1c0.5,2.5,0.9,5,1.5,7.3c5.1,20,29.6,22.3,41.1,14.3			c11-7.7,10.3-24.9-1.6-31.2c-4.8-2.5-10.2-4-15.3-5.8c-4.7-1.7-9.5-3-14.1-4.9c-13.7-5.8-20.7-18.4-18.4-32.5			c2.6-15.7,13.1-25.3,28.7-26.3C875.8,17.9,891.5,32.1,890.7,52.6z"/>
            <path d="M653.7,68h47.8V21.4h11v113.1c-0.3,0.2-0.6,0.5-0.9,0.5c-10.1,0.7-10.1,0.7-10.1-9.3c0-13,0-26,0-39V81h-10.3			c-10.7,0-21.3,0.2-32-0.1c-4.3-0.1-5.8,1.1-5.7,5.6c0.3,13.7,0.1,27.3,0.2,41c0,8.2,0,8.2-8.4,7.7c-0.8,0-1.6-0.3-2.8-0.4V21.1			c2.4,0,4.7,0.2,6.9,0c3.4-0.3,4.3,1.3,4.2,4.4c-0.1,12.5,0,25,0,37.5L653.7,68z"/>
            <path d="M521.9,21.5c0.1,1.9,0.3,3.5,0.3,5.1c0,25,0.2,49.9-0.2,74.9c-0.1,7.3-1.2,14.5-3.5,21.5c-3.3,9.8-11.4,14.2-22.3,14.1			c-9.9-0.1-17-4.8-20.4-14.6c-2-5.8-2.5-12.2-3.9-18.9l10.4-1.9c1,4.9,1.5,9.5,2.8,13.9c1.7,5.7,5.8,8.5,11.5,8.6			c5.9,0.1,10.4-2.8,12.4-8.2c0.7-1.9,1.1-3.8,1.2-5.8c0.3-18.1,0.5-36.3,0.7-54.4c0.1-11.3,0-22.6,0-34.3L521.9,21.5z"/>
            <path d="M1078.7,279.8v14.6H977.3c-0.2-0.5-0.4-1-0.5-1.5c-1.1-13.1-1.1-13.1,12-13.1L1078.7,279.8L1078.7,279.8z"/>
            <path d="M1074.7,163.5v14.1H977v-14.1H1074.7z"/>
            <path d="M1074.7,219.6v13.9H977v-13.9H1074.7z"/>
            <path class="st0" d="M874.2,280.3v-46.5c6.6,0,13-0.1,19.4,0c8.5,0.2,17,0.1,25.4,1.1c12,1.4,19.1,9.3,19.4,20.4			c0.4,13-5.3,21.8-17.7,23.2C905.5,280.1,890,279.8,874.2,280.3z"/>
            <path class="st0" d="M873.9,198.3c0-5.5-0.2-11,0.1-16.5c0.1-1.3,1.8-3.5,2.7-3.5c13.3,0.1,26.7-0.1,39.9,1.1			c11,1,16.8,9.1,16.5,20.1c-0.3,10.4-6.9,17.7-17.9,18.4c-12.6,0.8-25.3,0.6-38,0.9c-2.7,0.1-3.5-1.1-3.4-3.6			C874,209.6,873.9,204,873.9,198.3z"/>
            <path class="st0" d="M614.9,81.4c-2.1,8.3-3.3,17-6.5,24.9c-4.7,11.8-13.8,18.9-27,18.5s-21.6-8.5-26.1-20			c-6.9-17.7-6.3-36.1,0.1-53.8c4.2-11.5,12.9-18.9,25.9-19.5S602.7,38,608.1,49C613.1,59.1,614.1,70,614.9,81.4z"/>
            <path class="st0" d="M918.4,76.2c1.2-6.4,2-15.3,4.6-23.6c5-16.2,21.3-24.7,36.2-19.7c8.8,3,14.6,9.5,17.8,17.8			c6.9,18.1,7.3,36.5,0.2,54.6c-4.6,11.7-13.2,19.3-26.4,19.5c-12.8,0.2-21.1-7.2-26.3-18.1c-2-4.4-3.4-9-4.3-13.8			C919.2,88.3,919.1,83.4,918.4,76.2z"/>
        </g>
    </g>
</svg>